<svg width="32" height="32" viewBox="0 0 32 32" fill="none" xmlns="http://www.w3.org/2000/svg">
<circle cx="16" cy="16" r="16" fill="#69008E"/>
<path d="M23.6667 20.6667C23.6667 21.0203 23.5262 21.3594 23.2761 21.6095C23.0261 21.8595 22.687 22 22.3333 22H10.3333C9.97971 22 9.64057 21.8595 9.39052 21.6095C9.14048 21.3594 9 21.0203 9 20.6667V13.3333C9 12.9797 9.14048 12.6406 9.39052 12.3905C9.64057 12.1405 9.97971 12 10.3333 12H13L14.3333 10H18.3333L19.6667 12H22.3333C22.687 12 23.0261 12.1405 23.2761 12.3905C23.5262 12.6406 23.6667 12.9797 23.6667 13.3333V20.6667Z" fill="#69008E" stroke="white" stroke-width="1.53162" stroke-linecap="round" stroke-linejoin="round"/>
<path d="M16.6667 19.3333C18.1394 19.3333 19.3333 18.1394 19.3333 16.6667C19.3333 15.1939 18.1394 14 16.6667 14C15.1939 14 14 15.1939 14 16.6667C14 18.1394 15.1939 19.3333 16.6667 19.3333Z" fill="#69008E" stroke="white" stroke-width="1.53162" stroke-linecap="round" stroke-linejoin="round"/>
</svg>
