<svg width="32" height="32" viewBox="0 0 32 32" fill="none" xmlns="http://www.w3.org/2000/svg">
<path fill-rule="evenodd" clip-rule="evenodd" d="M27.7421 10.1645L26.9122 8.72437C26.2101 7.50581 24.6542 7.08543 23.434 7.78463C22.8531 8.1268 22.16 8.22388 21.5075 8.05446C20.855 7.88504 20.2967 7.46303 19.9557 6.8815C19.7363 6.51187 19.6184 6.09087 19.614 5.66106C19.6338 4.97197 19.3738 4.30421 18.8933 3.8099C18.4128 3.31559 17.7526 3.03683 17.0633 3.03711H15.3913C14.7159 3.03711 14.0683 3.30623 13.5919 3.78493C13.1155 4.26364 12.8495 4.91247 12.8527 5.58783C12.8327 6.98224 11.6966 8.10209 10.302 8.10195C9.8722 8.09748 9.45119 7.9796 9.08156 7.76022C7.86133 7.06103 6.3054 7.4814 5.6033 8.69996L4.71238 10.1645C4.01113 11.3815 4.42579 12.9365 5.63992 13.6428C6.42912 14.0984 6.91529 14.9405 6.91529 15.8518C6.91529 16.763 6.42912 17.6051 5.63992 18.0608C4.42733 18.7623 4.01222 20.3134 4.71238 21.5268L5.55449 22.9791C5.88345 23.5727 6.43539 24.0107 7.08818 24.1963C7.74096 24.3818 8.44077 24.2995 9.03275 23.9677C9.61469 23.6281 10.3082 23.5351 10.959 23.7093C11.6099 23.8834 12.1642 24.3104 12.4988 24.8952C12.7182 25.2649 12.8361 25.6859 12.8405 26.1157C12.8405 27.5244 13.9825 28.6664 15.3913 28.6664H17.0633C18.4672 28.6664 19.6073 27.5318 19.614 26.1279C19.6107 25.4504 19.8784 24.7997 20.3575 24.3206C20.8365 23.8416 21.4872 23.5739 22.1647 23.5772C22.5935 23.5886 23.0128 23.706 23.3851 23.9189C24.6022 24.6201 26.1571 24.2055 26.8634 22.9913L27.7421 21.5268C28.0823 20.943 28.1756 20.2477 28.0015 19.5948C27.8274 18.942 27.4003 18.3855 26.8146 18.0486C26.2289 17.7116 25.8018 17.1551 25.6277 16.5023C25.4536 15.8494 25.5469 15.1541 25.8871 14.5703C26.1082 14.1841 26.4284 13.8639 26.8146 13.6428C28.0214 12.9369 28.4351 11.391 27.7421 10.1767V10.1645Z" stroke="white" stroke-width="2" stroke-linecap="round" stroke-linejoin="round"/>
<path d="M16.2334 19.3667C18.1746 19.3667 19.7483 17.793 19.7483 15.8518C19.7483 13.9106 18.1746 12.3369 16.2334 12.3369C14.2922 12.3369 12.7185 13.9106 12.7185 15.8518C12.7185 17.793 14.2922 19.3667 16.2334 19.3667Z" stroke="white" stroke-width="2" stroke-linecap="round" stroke-linejoin="round"/>
</svg>
