<svg width="32" height="32" viewBox="0 0 32 32" fill="none" xmlns="http://www.w3.org/2000/svg">
<path fill-rule="evenodd" clip-rule="evenodd" d="M27.7421 10.165L26.9122 8.72486C26.2101 7.5063 24.6542 7.08592 23.434 7.78512C22.8531 8.12729 22.16 8.22437 21.5075 8.05495C20.855 7.88552 20.2967 7.46352 19.9557 6.88199C19.7363 6.51236 19.6184 6.09136 19.614 5.66155C19.6338 4.97246 19.3738 4.3047 18.8933 3.81039C18.4128 3.31608 17.7526 3.03731 17.0633 3.0376H15.3913C14.7159 3.0376 14.0683 3.30672 13.5919 3.78542C13.1155 4.26413 12.8495 4.91295 12.8527 5.58832C12.8327 6.98273 11.6966 8.10258 10.302 8.10243C9.8722 8.09797 9.45119 7.98009 9.08156 7.76071C7.86133 7.06151 6.3054 7.48189 5.6033 8.70045L4.71238 10.165C4.01113 11.382 4.42579 12.937 5.63992 13.6432C6.42912 14.0989 6.91529 14.941 6.91529 15.8522C6.91529 16.7635 6.42912 17.6056 5.63992 18.0612C4.42733 18.7628 4.01222 20.3139 4.71238 21.5273L5.55449 22.9796C5.88345 23.5732 6.43539 24.0112 7.08818 24.1968C7.74096 24.3823 8.44077 24.3 9.03275 23.9682C9.61469 23.6286 10.3082 23.5356 10.959 23.7098C11.6099 23.8839 12.1642 24.3109 12.4988 24.8957C12.7182 25.2654 12.8361 25.6864 12.8405 26.1162C12.8405 27.5249 13.9825 28.6669 15.3913 28.6669H17.0633C18.4672 28.6669 19.6073 27.5323 19.614 26.1284C19.6107 25.4509 19.8784 24.8002 20.3575 24.3211C20.8365 23.8421 21.4872 23.5744 22.1647 23.5776C22.5935 23.5891 23.0128 23.7065 23.3851 23.9194C24.6022 24.6206 26.1571 24.206 26.8634 22.9918L27.7421 21.5273C28.0823 20.9435 28.1756 20.2482 28.0015 19.5953C27.8274 18.9425 27.4003 18.386 26.8146 18.049C26.2289 17.7121 25.8018 17.1556 25.6277 16.5028C25.4536 15.8499 25.5469 15.1546 25.8871 14.5708C26.1082 14.1846 26.4284 13.8644 26.8146 13.6432C28.0214 12.9374 28.4351 11.3915 27.7421 10.1772V10.165Z" stroke="#A7A5A6" stroke-width="2" stroke-linecap="round" stroke-linejoin="round"/>
<path d="M16.2334 19.3671C18.1746 19.3671 19.7483 17.7935 19.7483 15.8523C19.7483 13.9111 18.1746 12.3374 16.2334 12.3374C14.2922 12.3374 12.7185 13.9111 12.7185 15.8523C12.7185 17.7935 14.2922 19.3671 16.2334 19.3671Z" stroke="#A7A5A6" stroke-width="2" stroke-linecap="round" stroke-linejoin="round"/>
</svg>
