<svg width="32" height="32" viewBox="0 0 32 32" fill="none" xmlns="http://www.w3.org/2000/svg">
<path fill-rule="evenodd" clip-rule="evenodd" d="M21.2116 2.66797C25.4036 2.66797 28.2196 5.53864 28.2196 9.81064V22.072C28.2196 26.3813 25.4903 29.184 21.2663 29.2106L11.009 29.2146C6.81697 29.2146 3.99963 26.344 3.99963 22.072V9.81064C3.99963 5.49997 6.72897 2.69864 10.953 2.6733L21.2103 2.66797H21.2116ZM21.2116 4.66797L10.9596 4.6733C7.85563 4.69197 5.99963 6.61197 5.99963 9.81064V22.072C5.99963 25.292 7.87297 27.2146 11.0076 27.2146L21.2596 27.2106C24.3636 27.192 26.2196 25.2693 26.2196 22.072V9.81064C26.2196 6.59064 24.3476 4.66797 21.2116 4.66797ZM20.9544 20.6329C21.5064 20.6329 21.9544 21.0809 21.9544 21.6329C21.9544 22.1849 21.5064 22.6329 20.9544 22.6329H11.3278C10.7758 22.6329 10.3278 22.1849 10.3278 21.6329C10.3278 21.0809 10.7758 20.6329 11.3278 20.6329H20.9544ZM20.9544 15.0509C21.5064 15.0509 21.9544 15.4989 21.9544 16.0509C21.9544 16.6029 21.5064 17.0509 20.9544 17.0509H11.3278C10.7758 17.0509 10.3278 16.6029 10.3278 16.0509C10.3278 15.4989 10.7758 15.0509 11.3278 15.0509H20.9544ZM15.0007 9.48184C15.5527 9.48184 16.0007 9.92984 16.0007 10.4818C16.0007 11.0338 15.5527 11.4818 15.0007 11.4818H11.3274C10.7754 11.4818 10.3274 11.0338 10.3274 10.4818C10.3274 9.92984 10.7754 9.48184 11.3274 9.48184H15.0007Z" fill="#666666"/>
</svg>
