<svg width="30" height="30" viewBox="0 0 30 30" fill="none" xmlns="http://www.w3.org/2000/svg">
<g clip-path="url(#clip0_204_3827)">
<path d="M15 3C12.6266 3 10.3066 3.70379 8.33316 5.02236C6.35977 6.34094 4.8217 8.21508 3.91345 10.4078C3.0052 12.6005 2.76756 15.0133 3.23058 17.3411C3.6936 19.6689 4.83649 21.807 6.51472 23.4853C8.19295 25.1635 10.3311 26.3064 12.6589 26.7694C14.9867 27.2324 17.3995 26.9948 19.5922 26.0865C21.7849 25.1783 23.6591 23.6402 24.9776 21.6668C26.2962 19.6934 27 17.3734 27 15C27 11.8174 25.7357 8.76515 23.4853 6.51472C21.2348 4.26428 18.1826 3 15 3ZM15 25.5C12.9233 25.5 10.8932 24.8842 9.16652 23.7304C7.4398 22.5767 6.09399 20.9368 5.29927 19.0182C4.50455 17.0995 4.29661 14.9883 4.70176 12.9515C5.1069 10.9147 6.10693 9.04383 7.57538 7.57538C9.04383 6.10693 10.9148 5.1069 12.9516 4.70175C14.9884 4.29661 17.0996 4.50454 19.0182 5.29926C20.9368 6.09398 22.5767 7.4398 23.7304 9.16651C24.8842 10.8932 25.5 12.9233 25.5 15C25.5 17.7848 24.3938 20.4555 22.4246 22.4246C20.4555 24.3937 17.7848 25.5 15 25.5Z" fill="#555555"/>
<path d="M15.5452 8.00074C14.7297 7.98756 13.9213 8.15016 13.1774 8.47698C12.4334 8.80379 11.7722 9.28681 11.2408 9.8917C11.167 9.9586 11.1076 10.0393 11.0663 10.129C11.0249 10.2188 11.0024 10.3157 11 10.4141C11 10.5049 11.0186 10.5947 11.0548 10.6783C11.091 10.7619 11.144 10.8376 11.2107 10.9007C11.2774 10.9639 11.3564 11.0133 11.443 11.046C11.5296 11.0787 11.6221 11.094 11.7149 11.091C11.9137 11.0862 12.1038 11.0103 12.2492 10.8776C12.6514 10.4168 13.1509 10.0466 13.7134 9.79261C14.2758 9.53857 14.8879 9.40671 15.5075 9.40608C17.2834 9.40608 18.3896 10.5245 18.3896 11.9151V11.9519C18.3896 13.578 17.0652 14.483 14.9732 14.6375C14.8885 14.6407 14.8055 14.6613 14.7295 14.6981C14.6535 14.7348 14.5863 14.7869 14.5323 14.8508C14.4784 14.9147 14.4388 14.989 14.4162 15.0689C14.3936 15.1488 14.3886 15.2325 14.4013 15.3144C14.4013 15.3144 14.4013 17.0214 14.4013 17.3378C14.4201 17.5199 14.5075 17.6887 14.6467 17.8111C14.7858 17.9336 14.9666 18.0009 15.1538 18H15.2366C15.4229 17.9817 15.5955 17.8962 15.7207 17.7601C15.8459 17.6241 15.9148 17.4472 15.9139 17.2642V15.7485C18.1714 15.4395 20 14.2769 20 11.8636V11.8268C19.9774 9.61946 18.2166 8.00074 15.5452 8.00074Z" fill="#555555"/>
<path d="M15 22C15.5523 22 16 21.5523 16 21C16 20.4477 15.5523 20 15 20C14.4477 20 14 20.4477 14 21C14 21.5523 14.4477 22 15 22Z" fill="#555555"/>
</g>
<defs>
<clipPath id="clip0_204_3827">
<rect width="30" height="30" fill="white"/>
</clipPath>
</defs>
</svg>
