<svg width="30" height="30" viewBox="0 0 30 30" fill="none" xmlns="http://www.w3.org/2000/svg">
<path fill-rule="evenodd" clip-rule="evenodd" d="M14.6874 5.625C14.5736 5.625 14.2936 5.65625 14.1449 5.95375L11.8624 10.5175C11.5011 11.2387 10.8049 11.74 9.9999 11.855L4.88989 12.5912C4.5524 12.64 4.4374 12.89 4.4024 12.995C4.37115 13.0962 4.32115 13.3538 4.55365 13.5763L8.24864 17.1263C8.8374 17.6925 9.1049 18.5087 8.9649 19.3075L8.09489 24.32C8.04114 24.6337 8.23739 24.8162 8.32489 24.8787C8.4174 24.9487 8.6649 25.0875 8.97115 24.9275L13.5399 22.5588C14.2599 22.1875 15.1174 22.1875 15.8349 22.5588L20.4024 24.9263C20.7099 25.085 20.9574 24.9462 21.0511 24.8787C21.1386 24.8162 21.3349 24.6337 21.2811 24.32L20.4086 19.3075C20.2686 18.5087 20.5361 17.6925 21.1249 17.1263L24.8199 13.5763C25.0536 13.3538 25.0036 13.095 24.9711 12.995C24.9374 12.89 24.8224 12.64 24.4849 12.5912L19.3749 11.855C18.5711 11.74 17.8749 11.2387 17.5136 10.5163L15.2286 5.95375C15.0811 5.65625 14.8011 5.625 14.6874 5.625ZM8.68365 26.875C8.1674 26.875 7.6549 26.7125 7.21615 26.3925C6.45865 25.8375 6.0874 24.9212 6.24865 23.9987L7.11865 18.9862C7.15115 18.8 7.0874 18.6112 6.94989 18.4788L3.2549 14.9288C2.5749 14.2775 2.33115 13.315 2.61865 12.4213C2.90865 11.5175 3.67614 10.8712 4.6224 10.7362L9.73239 10C9.92989 9.9725 10.0999 9.85125 10.1849 9.67875L12.4686 5.11375C12.8899 4.2725 13.7399 3.75 14.6874 3.75C15.6349 3.75 16.4849 4.2725 16.9061 5.11375L19.1911 9.6775C19.2774 9.85125 19.4461 9.9725 19.6424 10L24.7524 10.7362C25.6986 10.8712 26.4661 11.5175 26.7561 12.4213C27.0436 13.315 26.7986 14.2775 26.1186 14.9288L22.4236 18.4788C22.2861 18.6112 22.2236 18.8 22.2561 18.985L23.1274 23.9987C23.2874 24.9225 22.9161 25.8388 22.1574 26.3925C21.3886 26.9563 20.3874 27.0325 19.5386 26.59L14.9724 24.2237C14.7936 24.1313 14.5799 24.1313 14.4011 24.2237L9.8349 26.5913C9.4699 26.7812 9.07615 26.875 8.68365 26.875Z" fill="#666666"/>
</svg>
