<svg width="20" height="20" viewBox="0 0 20 20" fill="none" xmlns="http://www.w3.org/2000/svg">
<path fill-rule="evenodd" clip-rule="evenodd" d="M9.78249 1.6665C14.2575 1.6665 17.8975 5.3065 17.8975 9.7815C17.8975 11.8928 17.0873 13.8184 15.7614 15.2636L18.3703 17.8671C18.6145 18.1113 18.6153 18.5063 18.3712 18.7504C18.2495 18.8738 18.0887 18.9346 17.9287 18.9346C17.7695 18.9346 17.6095 18.8738 17.487 18.7521L14.8465 16.119C13.4576 17.2314 11.6964 17.8973 9.78249 17.8973C5.30749 17.8973 1.66666 14.2565 1.66666 9.7815C1.66666 5.3065 5.30749 1.6665 9.78249 1.6665ZM9.78249 2.9165C5.99666 2.9165 2.91666 5.99567 2.91666 9.7815C2.91666 13.5673 5.99666 16.6473 9.78249 16.6473C13.5675 16.6473 16.6475 13.5673 16.6475 9.7815C16.6475 5.99567 13.5675 2.9165 9.78249 2.9165Z" fill="#909590"/>
</svg>
