<svg width="24" height="24" viewBox="0 0 24 24" fill="none" xmlns="http://www.w3.org/2000/svg">
<g clip-path="url(#clip0_396_3261)">
<path d="M13.8812 18.7598C13.8812 16.0698 16.0697 13.8813 18.7597 13.8813C19.1797 13.8813 19.5874 13.9346 19.9765 14.0349C20.1458 13.3703 20.2313 12.6871 20.231 12.0013C20.231 7.46336 16.5391 3.77148 12.0012 3.77148C7.46324 3.77148 3.77136 7.46336 3.77136 12.0013C3.77136 16.5392 7.46324 20.2311 12.0012 20.2311C12.7028 20.2311 13.3841 20.1426 14.0348 19.9766C13.9326 19.5791 13.881 19.1703 13.8812 18.7598Z" fill="#0593FC"/>
<path d="M18.4952 13.8883C18.673 13.275 18.7629 12.6396 18.7625 12.001C18.7625 8.26684 15.7354 5.23975 12.0012 5.23975C8.26708 5.23975 5.23999 8.26684 5.23999 12.001C5.23999 15.7352 8.26708 18.7622 12.0012 18.7622C12.6563 18.7622 13.2895 18.6687 13.8885 18.495C14.0217 16.0151 16.0154 14.0215 18.4952 13.8883Z" fill="white"/>
<path d="M15.1173 11.6499H12.6924C12.7464 11.7556 12.7775 11.8748 12.7775 12.0015C12.7775 12.1281 12.7464 12.2473 12.6924 12.353H15.1173C15.3115 12.353 15.4688 12.1956 15.4688 12.0015C15.4688 11.8073 15.3115 11.6499 15.1173 11.6499ZM12.0012 11.2252C12.1278 11.2252 12.2471 11.2563 12.3528 11.3103V8.12109C12.3528 7.92694 12.1954 7.76953 12.0012 7.76953C11.807 7.76953 11.6497 7.92694 11.6497 8.12109V11.3103C11.7584 11.2545 11.8789 11.2253 12.0012 11.2252Z" fill="#60B7FF"/>
<path d="M16.7807 12.001C16.7807 12.8778 16.6134 13.7155 16.3096 14.4843C16.9816 14.0983 17.7355 13.8771 18.5095 13.8391C18.6779 13.2409 18.763 12.6224 18.7625 12.001C18.7625 8.26684 15.7354 5.23975 12.0013 5.23975C11.6646 5.23975 11.3338 5.26473 11.0104 5.31221C14.2747 5.7917 16.7807 8.6035 16.7807 12.001Z" fill="#F3F0F3"/>
<path d="M13.8799 18.7596C13.8799 18.5425 13.8944 18.3288 13.922 18.1192L13.7906 18.1573C13.2091 18.3257 12.6067 18.411 12.0013 18.4107C8.46703 18.4107 5.59163 15.5353 5.59163 12.001C5.59163 8.46671 8.46699 5.59131 12.0013 5.59131C15.5356 5.59131 18.411 8.46667 18.411 12.001C18.411 12.6089 18.3258 13.2109 18.1576 13.7904L18.1195 13.9217C18.3292 13.8941 18.5429 13.8797 18.7599 13.8797C18.7939 13.8797 18.8277 13.8803 18.8615 13.881C19.0291 13.2684 19.1141 12.6361 19.1142 12.001C19.1142 8.07901 15.9234 4.88818 12.0014 4.88818C8.07933 4.88818 4.88855 8.07896 4.88855 12.001C4.88855 15.923 8.07933 19.1138 12.0014 19.1138C12.6389 19.1138 13.2705 19.0281 13.8813 18.8612C13.8804 18.8273 13.88 18.7934 13.8799 18.7596Z" fill="#60B7FF"/>
<path d="M12.0013 7.2085C11.908 7.2085 11.8186 7.17146 11.7527 7.10553C11.6867 7.0396 11.6497 6.95018 11.6497 6.85694V6.56299C11.6497 6.46975 11.6867 6.38033 11.7527 6.3144C11.8186 6.24847 11.908 6.21143 12.0013 6.21143C12.0945 6.21143 12.1839 6.24847 12.2498 6.3144C12.3158 6.38033 12.3528 6.46975 12.3528 6.56299V6.85694C12.3528 6.95018 12.3158 7.0396 12.2498 7.10553C12.1839 7.17146 12.0945 7.2085 12.0013 7.2085ZM12.0013 17.7913C11.908 17.7913 11.8186 17.7543 11.7527 17.6884C11.6867 17.6224 11.6497 17.533 11.6497 17.4398V17.1458C11.6497 17.0526 11.6867 16.9632 11.7527 16.8972C11.8186 16.8313 11.908 16.7943 12.0013 16.7943C12.0945 16.7943 12.1839 16.8313 12.2498 16.8972C12.3158 16.9632 12.3528 17.0526 12.3528 17.1458V17.4398C12.3528 17.533 12.3158 17.6224 12.2498 17.6884C12.1839 17.7543 12.0945 17.7913 12.0013 17.7913ZM6.85682 12.3529H6.56287C6.46963 12.3529 6.3802 12.3159 6.31427 12.25C6.24834 12.184 6.2113 12.0946 6.2113 12.0014C6.2113 11.9081 6.24834 11.8187 6.31427 11.7528C6.3802 11.6869 6.46963 11.6498 6.56287 11.6498H6.85682C6.95006 11.6498 7.03948 11.6869 7.10541 11.7528C7.17134 11.8187 7.20838 11.9081 7.20838 12.0014C7.20838 12.0946 7.17134 12.184 7.10541 12.25C7.03948 12.3159 6.95006 12.3529 6.85682 12.3529ZM17.4396 12.3529H17.1457C16.9515 12.3529 16.7941 12.1955 16.7941 12.0014C16.7941 11.8072 16.9515 11.6498 17.1457 11.6498H17.4396C17.6339 11.6498 17.7912 11.8072 17.7912 12.0014C17.7912 12.1955 17.6339 12.3529 17.4396 12.3529ZM9.42937 7.8978C9.36759 7.89787 9.30689 7.88165 9.25339 7.85078C9.19988 7.81991 9.15545 7.77548 9.12458 7.72197L8.97758 7.46739C8.93221 7.38672 8.92048 7.2914 8.94494 7.20213C8.9694 7.11286 9.02808 7.03683 9.10824 6.99055C9.1884 6.94426 9.28357 6.93145 9.37312 6.9549C9.46266 6.97835 9.53935 7.03616 9.58654 7.11579L9.73354 7.37036C9.76439 7.42379 9.78064 7.4844 9.78066 7.54609C9.78068 7.60779 9.76446 7.6684 9.73364 7.72185C9.70282 7.77529 9.65847 7.81969 9.60507 7.85057C9.55166 7.88146 9.49106 7.89775 9.42937 7.8978ZM7.29177 15.0722C7.21434 15.0723 7.13905 15.0468 7.07758 14.9997C7.01611 14.9526 6.97191 14.8866 6.95184 14.8118C6.93176 14.737 6.93694 14.6577 6.96656 14.5861C6.99618 14.5146 7.0486 14.4548 7.11566 14.4161L7.37024 14.2691C7.45095 14.2233 7.54652 14.2112 7.63612 14.2355C7.72571 14.2598 7.80204 14.3186 7.84846 14.399C7.89488 14.4794 7.90762 14.5749 7.88389 14.6646C7.86016 14.7544 7.80189 14.8311 7.7218 14.878L7.46723 15.0251C7.41391 15.0559 7.35339 15.0722 7.29177 15.0722ZM16.4568 9.78082C16.3793 9.7809 16.304 9.75542 16.2426 9.70834C16.1811 9.66125 16.1369 9.59518 16.1168 9.5204C16.0968 9.44561 16.1019 9.3663 16.1316 9.29476C16.1612 9.22321 16.2136 9.16346 16.2807 9.12475L16.5353 8.97775C16.5753 8.95466 16.6194 8.93967 16.6652 8.93363C16.711 8.9276 16.7575 8.93065 16.8021 8.9426C16.8467 8.95454 16.8885 8.97516 16.9251 9.00327C16.9617 9.03138 16.9924 9.06644 17.0155 9.10643C17.0621 9.18717 17.0748 9.28313 17.0506 9.37319C17.0265 9.46325 16.9676 9.54004 16.8869 9.58666L16.6322 9.73366C16.5789 9.76456 16.5184 9.78082 16.4568 9.78082ZM7.54574 9.78082C7.48413 9.78082 7.4236 9.76455 7.37029 9.73366L7.11571 9.58666C7.03562 9.53971 6.97736 9.46299 6.95363 9.37323C6.9299 9.28348 6.94263 9.18799 6.98905 9.10759C7.03547 9.02719 7.1118 8.96842 7.2014 8.94409C7.29099 8.91977 7.38657 8.93187 7.46727 8.97775L7.72185 9.12475C7.78892 9.16346 7.84133 9.22321 7.87095 9.29476C7.90058 9.3663 7.90575 9.44561 7.88568 9.5204C7.8656 9.59518 7.8214 9.66125 7.75993 9.70834C7.69847 9.75542 7.62317 9.7809 7.54574 9.78082ZM9.28176 17.0628C9.22007 17.0627 9.15948 17.0465 9.10607 17.0156C9.05267 16.9847 9.00833 16.9403 8.97751 16.8869C8.9467 16.8334 8.93048 16.7728 8.9305 16.7111C8.93053 16.6494 8.94678 16.5888 8.97763 16.5354L9.12463 16.2808C9.17158 16.2007 9.24831 16.1425 9.33806 16.1187C9.42781 16.095 9.52331 16.1078 9.6037 16.1542C9.6841 16.2006 9.74288 16.2769 9.7672 16.3665C9.79152 16.4561 9.77942 16.5517 9.73354 16.6324L9.58654 16.887C9.55567 16.9405 9.51125 16.9849 9.45774 17.0158C9.40423 17.0466 9.34353 17.0629 9.28176 17.0628ZM14.5732 7.8978C14.5116 7.89781 14.4511 7.88154 14.3978 7.85064C14.3578 7.82756 14.3228 7.79683 14.2946 7.76021C14.2665 7.72358 14.2459 7.68178 14.234 7.63719C14.222 7.59259 14.219 7.54608 14.225 7.50031C14.231 7.45453 14.246 7.41039 14.2691 7.37041L14.416 7.11583C14.4626 7.03509 14.5394 6.97617 14.6295 6.95204C14.7195 6.9279 14.8155 6.94051 14.8962 6.98711C14.9362 7.01019 14.9712 7.04092 14.9993 7.07755C15.0275 7.11417 15.0481 7.15598 15.06 7.20057C15.072 7.24517 15.075 7.29168 15.069 7.33745C15.063 7.38322 15.048 7.42736 15.0249 7.46735L14.878 7.72193C14.8471 7.77544 14.8027 7.81987 14.7492 7.85075C14.6957 7.88162 14.635 7.89785 14.5732 7.8978Z" fill="#978ECB"/>
<path d="M12.8022 12.1963C12.9068 11.7539 12.6329 11.3105 12.1905 11.2059C11.7481 11.1013 11.3047 11.3752 11.2001 11.8176C11.0955 12.26 11.3694 12.7034 11.8118 12.808C12.2542 12.9126 12.6976 12.6387 12.8022 12.1963Z" fill="#0593FC"/>
<path d="M12.0012 11.1782C11.8608 11.1782 11.7288 11.2135 11.6132 11.2755C11.872 11.4142 12.0483 11.6871 12.0483 12.0013C12.0483 12.3156 11.872 12.5885 11.6132 12.7272C11.7325 12.7912 11.8658 12.8246 12.0012 12.8245C12.4558 12.8245 12.8243 12.4559 12.8243 12.0013C12.8243 11.5468 12.4558 11.1782 12.0012 11.1782Z" fill="#0182FC"/>
<path d="M1.89567 12.0481C1.89558 12.0239 1.89487 11.9998 1.89492 11.9756C1.90087 9.59672 2.73895 7.40545 4.13142 5.67755C3.43603 5.61019 2.86181 5.1233 2.66536 4.4738C0.99975 6.5348 0 9.15445 0 12.0013C0 12.017 0.000515625 12.0325 0.000609375 12.0481L1.89567 12.0481ZM12.0481 0.000609375C12.0325 0.000515625 12.017 0 12.0013 0C9.32653 0 6.852 0.882234 4.8532 2.37038C5.49113 2.59125 5.95833 3.18061 5.99855 3.88284C7.67325 2.63977 9.7418 1.90055 11.9756 1.89497C11.9998 1.89492 12.0239 1.89558 12.0481 1.89572V0.000609375Z" fill="#05E39C"/>
<path d="M11.7662 22.1046C6.30173 21.9793 1.89525 17.4951 1.89525 12.001H0V12.0011C4.6875e-05 18.5465 5.24002 23.868 11.7539 23.9997C11.8895 24.0025 12.0012 23.8936 12.0012 23.758V22.3457C12.0012 22.2149 11.897 22.1076 11.7662 22.1046Z" fill="#978ECB"/>
<path d="M18.8066 18.8067H23.686C23.6861 18.791 23.6866 18.7755 23.6866 18.7598C23.6866 16.0388 21.4808 13.833 18.7598 13.833C16.0388 13.833 13.833 16.0388 13.833 18.7598C13.833 21.4808 16.0388 23.6866 18.7598 23.6866C18.7755 23.6866 18.791 23.6861 18.8067 23.686L18.8066 18.8067Z" fill="#FFD15B"/>
<path d="M21.9985 18.7598C21.9985 18.7755 21.9976 18.791 21.9975 18.8067H23.686C23.6862 18.791 23.6866 18.7755 23.6866 18.7598C23.6866 16.0388 21.4809 13.833 18.7599 13.833C18.4769 13.833 18.1946 13.8572 17.9158 13.9053C20.2346 14.3056 21.9985 16.3266 21.9985 18.7598ZM18.8067 23.3712C18.5181 23.4802 18.2198 23.5616 17.9158 23.6143C18.1946 23.6624 18.477 23.6866 18.7599 23.6866C18.7756 23.6866 18.7911 23.6861 18.8068 23.686L18.8067 23.3712Z" fill="#FFC344"/>
<path d="M18.7598 18.7598V23.6866C21.4808 23.6866 23.6866 21.4808 23.6866 18.7598H18.7598Z" fill="#FD8087"/>
<path d="M21.9985 18.7598C21.9985 20.8877 20.6493 22.7003 18.7598 23.3894V23.6866C21.4808 23.6866 23.6866 21.4808 23.6866 18.7598H21.9985Z" fill="#FE646F"/>
<path d="M4.29699 5.73411C5.26503 5.73411 6.04978 4.94936 6.04978 3.98131C6.04978 3.01327 5.26503 2.22852 4.29699 2.22852C3.32894 2.22852 2.54419 3.01327 2.54419 3.98131C2.54419 4.94936 3.32894 5.73411 4.29699 5.73411Z" fill="#FD8087"/>
<path d="M4.29707 2.22852C4.03654 2.22818 3.77925 2.28618 3.54407 2.39825C4.13525 2.67997 4.54386 3.28288 4.54386 3.98136C4.54386 4.67985 4.13521 5.28275 3.54407 5.56447C3.77926 5.67652 4.03655 5.73452 4.29707 5.7342C5.26513 5.7342 6.04986 4.94942 6.04986 3.98141C6.04991 3.01325 5.26513 2.22852 4.29707 2.22852Z" fill="#FE646F"/>
<path d="M22.1048 11.7662C22.1078 11.897 22.2151 12.0012 22.3459 12.0012H23.7583C23.8939 12.0012 24.0027 11.8895 24 11.7539C23.8682 5.24002 18.5467 4.6875e-05 12.0013 0H12.0012V1.8952C17.4953 1.89525 21.9795 6.30169 22.1048 11.7662Z" fill="#FD8087"/>
</g>
<defs>
<clipPath id="clip0_396_3261">
<rect width="24" height="24" fill="white"/>
</clipPath>
</defs>
</svg>
