<svg width="20" height="20" viewBox="0 0 20 20" fill="none" xmlns="http://www.w3.org/2000/svg">
<path fill-rule="evenodd" clip-rule="evenodd" d="M9.78246 1.6665C14.2575 1.6665 17.8975 5.3065 17.8975 9.7815C17.8975 11.8928 17.0872 13.8184 15.7613 15.2636L18.3703 17.8671C18.6145 18.1113 18.6153 18.5063 18.3711 18.7504C18.2495 18.8738 18.0886 18.9346 17.9286 18.9346C17.7695 18.9346 17.6095 18.8738 17.487 18.7521L14.8465 16.119C13.4575 17.2314 11.6964 17.8973 9.78246 17.8973C5.30746 17.8973 1.66663 14.2565 1.66663 9.7815C1.66663 5.3065 5.30746 1.6665 9.78246 1.6665ZM9.78246 2.9165C5.99663 2.9165 2.91663 5.99567 2.91663 9.7815C2.91663 13.5673 5.99663 16.6473 9.78246 16.6473C13.5675 16.6473 16.6475 13.5673 16.6475 9.7815C16.6475 5.99567 13.5675 2.9165 9.78246 2.9165Z" fill="#333333"/>
</svg>
