<svg width="410" height="302" viewBox="0 0 410 302" fill="none" xmlns="http://www.w3.org/2000/svg">
<g clip-path="url(#clip0_35_1091)">
<path d="M341.776 281.13H368.918V281.335H341.776V281.13Z" fill="#EBEBEB"/>
<path d="M264.491 283.34H271.584V283.545H264.491V283.34Z" fill="#EBEBEB"/>
<path d="M325.212 273.519H340.956V273.724H325.212V273.519Z" fill="#EBEBEB"/>
<path d="M43.009 274.91H78.433V275.115H43.009V274.91Z" fill="#EBEBEB"/>
<path d="M85.731 274.91H90.938V275.115H85.731V274.91Z" fill="#EBEBEB"/>
<path d="M107.789 278.347H184.623V278.552H107.789V278.347Z" fill="#EBEBEB"/>
<path fill-rule="evenodd" clip-rule="evenodd" d="M195.488 231.451H37.146C34.563 231.451 32.472 229.364 32.472 226.786V4.62403C32.472 2.04598 34.563 -0.0410156 37.146 -0.0410156H195.488C198.071 -0.0410156 200.162 2.04598 200.162 4.62403V226.786C200.162 229.364 198.071 231.451 195.488 231.451ZM37.146 0.163591C34.686 0.163591 32.677 2.16874 32.677 4.62403V226.786C32.677 229.242 34.686 231.247 37.146 231.247H195.488C197.948 231.247 199.957 229.242 199.957 226.786V4.62403C199.957 2.16874 197.948 0.163591 195.488 0.163591H37.146Z" fill="#EBEBEB"/>
<path fill-rule="evenodd" clip-rule="evenodd" d="M372.854 231.451H214.512C211.929 231.451 209.838 229.364 209.838 226.786V4.62403C209.838 2.04598 211.929 -0.0410156 214.512 -0.0410156H372.854C375.437 -0.0410156 377.528 2.04598 377.528 4.62403V226.786C377.528 229.364 375.437 231.451 372.854 231.451ZM214.512 0.163591C212.052 0.163591 210.043 2.16874 210.043 4.62403V226.786C210.043 229.242 212.052 231.247 214.512 231.247H372.854C375.314 231.247 377.323 229.242 377.323 226.786V4.62403C377.323 2.16874 375.314 0.163591 372.854 0.163591H214.512Z" fill="#EBEBEB"/>
<path d="M410 268.158H0V267.953H410V268.158Z" fill="#EBEBEB"/>
<path d="M242.474 263.166H309.263V201.047H242.474V263.166Z" fill="#E6E6E6"/>
<path d="M298.644 268.076H307.172V265.13H298.644V268.076Z" fill="#E0E0E0"/>
<path d="M106.805 262.552H242.474V201.047H106.805V262.552Z" fill="#E6E6E6"/>
<path d="M84.132 268.076H104.96V196.464H84.132V268.076Z" fill="#E6E6E6"/>
<path d="M177.038 259.687H235.832V205.917H177.038V259.687Z" fill="#F5F5F5"/>
<path d="M244.114 259.687H302.908V205.917H244.114V259.687Z" fill="#B9B5B5"/>
<path d="M109.347 259.687H168.141V205.917H109.347V259.687Z" fill="#BAB5B5"/>
<path fill-rule="evenodd" clip-rule="evenodd" d="M311.723 196.464V268.076H307.172V266.398H109.388V268.076H104.878V196.464H311.723ZM307.172 203.175H244.647V228.873H307.172V203.175ZM307.172 259.728V232.761H244.647V259.728H307.172ZM177.038 259.728H240.137V203.175H177.038V259.728ZM109.429 259.728H172.528V232.802H109.429V259.728ZM109.429 228.914H172.528V203.175H109.429V228.914Z" fill="#F0F0F0"/>
<path d="M268.591 213.037H278.431C279.497 213.037 280.358 212.178 280.358 211.114C280.358 210.05 279.497 209.231 278.431 209.231H268.591C267.525 209.231 266.664 210.05 266.664 211.114C266.664 212.178 267.525 213.037 268.591 213.037Z" fill="#263238"/>
<path d="M185.484 236.689V226.868C185.484 225.845 184.623 224.986 183.598 224.986C182.532 224.986 181.671 225.845 181.671 226.868V236.689C181.671 237.753 182.532 238.613 183.598 238.613C184.623 238.613 185.484 237.753 185.484 236.689Z" fill="#E6E6E6"/>
<path d="M268.591 240.577H278.431C279.497 240.577 280.358 239.718 280.358 238.695C280.358 237.631 279.497 236.771 278.431 236.771H268.591C267.525 236.771 266.664 237.631 266.664 238.695C266.664 239.718 267.525 240.577 268.591 240.577Z" fill="#263238"/>
<path d="M133.824 213.037H143.664C144.73 213.037 145.55 212.178 145.55 211.114C145.55 210.05 144.73 209.231 143.664 209.231H133.824C132.758 209.231 131.897 210.05 131.897 211.114C131.897 212.178 132.758 213.037 133.824 213.037Z" fill="#263238"/>
<path d="M133.824 240.577H143.664C144.73 240.577 145.55 239.718 145.55 238.695C145.55 237.631 144.73 236.771 143.664 236.771H133.824C132.758 236.771 131.897 237.631 131.897 238.695C131.897 239.718 132.758 240.577 133.824 240.577Z" fill="#263238"/>
<path d="M58.179 266.685H77.613V85.1984H58.179V266.685Z" fill="#E0E0E0"/>
<path d="M43.009 83.6024V268.281H58.179V83.6024H43.009Z" fill="#E6E6E6"/>
<path d="M76.875 83.6024V268.281H92.045V83.6024H76.875Z" fill="#E6E6E6"/>
<path fill-rule="evenodd" clip-rule="evenodd" d="M94.628 83.6024V268.281H56.334V83.6024H94.628ZM60.024 86.7943V119.9H91.02V86.7943H60.024ZM91.02 192.494V159.389H60.024V192.494H91.02ZM60.024 195.686V228.792H91.02V195.686H60.024ZM91.02 156.197V123.092H60.024V156.197H91.02ZM91.02 265.089V231.983H60.024V265.089H91.02Z" fill="#F5F5F5"/>
<path d="M75.276 120.227H70.766V94.5284H75.276V120.227Z" fill="#EBEBEB"/>
<path d="M70.766 120.227H67.24V94.5284H70.766V120.227Z" fill="#E6E6E6"/>
<path d="M82.246 120.227H75.276V95.1423H82.246V120.227Z" fill="#E0E0E0"/>
<path d="M85.772 120.227H82.246V95.1423H85.772V120.227Z" fill="#EBEBEB"/>
<path d="M64.944 120.227H60.27V95.1423H64.944V120.227Z" fill="#EBEBEB"/>
<path d="M67.24 120.227H64.944V95.1423H67.24V120.227Z" fill="#FAFAFA"/>
<path d="M70.766 156.197H75.276V130.498H70.766V156.197Z" fill="#E6E6E6"/>
<path d="M75.276 156.197H78.761V130.498H75.276V156.197Z" fill="#EBEBEB"/>
<path d="M63.755 156.197H70.766V131.112H63.755V156.197Z" fill="#EBEBEB"/>
<path d="M60.27 156.197H63.755V131.112H60.27V156.197Z" fill="#E0E0E0"/>
<path d="M81.098 156.197H85.772V131.112H81.098V156.197Z" fill="#EBEBEB"/>
<path d="M78.761 156.197H81.098V131.112H78.761V156.197Z" fill="#F0F0F0"/>
<path d="M70.766 192.781H75.276V167.123H70.766V192.781Z" fill="#E6E6E6"/>
<path d="M75.276 192.781H78.761V167.123H75.276V192.781Z" fill="#EBEBEB"/>
<path d="M63.755 192.781H70.766V167.696H63.755V192.781Z" fill="#EBEBEB"/>
<path d="M60.27 192.781H63.755V167.696H60.27V192.781Z" fill="#E0E0E0"/>
<path d="M81.098 192.781H85.772V167.696H81.098V192.781Z" fill="#EBEBEB"/>
<path d="M78.761 192.781H81.098V167.696H78.761V192.781Z" fill="#F0F0F0"/>
<path d="M75.276 203.707H70.766V229.405H75.276V203.707Z" fill="#EBEBEB"/>
<path d="M70.766 203.707H67.24V229.405H70.766V203.707Z" fill="#E6E6E6"/>
<path d="M82.246 203.707H75.276V228.792H82.246V203.707Z" fill="#E0E0E0"/>
<path d="M85.772 203.707H82.246V228.792H85.772V203.707Z" fill="#EBEBEB"/>
<path d="M64.944 203.707H60.27V228.792H64.944V203.707Z" fill="#EBEBEB"/>
<path d="M67.24 203.707H64.944V228.792H67.24V203.707Z" fill="#FAFAFA"/>
<path d="M70.766 240.331H75.276V266.03H70.766V240.331Z" fill="#E6E6E6"/>
<path d="M75.276 240.331H78.761V266.03H75.276V240.331Z" fill="#EBEBEB"/>
<path d="M63.755 240.331H70.766V265.416H63.755V240.331Z" fill="#EBEBEB"/>
<path d="M60.27 240.331H63.755V265.416H60.27V240.331Z" fill="#E0E0E0"/>
<path d="M81.098 240.331H85.772V265.416H81.098V240.331Z" fill="#FAFAFA"/>
<path d="M78.761 240.331H81.098V265.416H78.761V240.331Z" fill="#F0F0F0"/>
<path d="M335.298 229.896C335.216 229.978 335.626 230.592 333.863 230.347C329.476 229.651 321.809 227.891 319.677 223.39C316.643 216.924 326.073 219.298 325.745 215.983C325.417 212.709 314.675 213.282 313.568 208.454C312.42 203.625 319.677 205.917 319.8 203.543C319.882 201.211 311.477 202.684 309.837 197.446C308.156 192.249 314.511 196.095 313.773 193.927C313.035 191.758 305.942 181.937 309.796 180.832C313.691 179.686 320.169 189.712 322.67 191.144C325.212 192.576 327.426 184.392 330.419 187.829C333.412 191.308 328.656 203.42 332.469 205.794C335.339 207.553 334.519 202.725 338.25 203.625C343.375 204.853 341.653 222.776 335.298 229.896Z" fill="#EBEBEB"/>
<path d="M321.727 203.584C323.449 203.748 324.72 204.075 325.499 204.362C323.982 202.111 322.875 200.924 322.834 200.924C322.67 200.76 322.711 200.556 322.834 200.433C322.957 200.31 323.162 200.31 323.285 200.433C323.326 200.474 325.868 203.134 328.697 208.29C330.091 199.983 326.565 192.699 326.565 192.617C326.483 192.535 326.524 192.372 326.647 192.29C326.77 192.249 326.934 192.29 326.975 192.412C327.016 192.494 330.747 200.269 329.066 208.986C329.503 209.831 329.954 210.745 330.419 211.727C331.69 214.551 333.043 218.193 334.109 222.572C334.847 221.262 336.569 217.661 336.733 212.669C336.733 212.546 336.815 212.423 336.979 212.423C337.102 212.423 337.225 212.546 337.184 212.669C337.02 218.479 334.806 222.408 334.273 223.267C335.708 229.364 336.569 236.853 335.954 245.651C335.913 245.856 335.79 245.979 335.585 245.979C335.585 245.951 335.571 245.938 335.544 245.938C335.38 245.938 335.298 245.774 335.298 245.61C336.118 233.948 334.355 224.536 331.936 217.456C331.321 216.72 329.517 214.919 326.729 214.469C326.606 214.469 326.524 214.346 326.524 214.183C326.565 214.06 326.688 213.978 326.811 214.019C328.984 214.346 330.583 215.492 331.567 216.351C329.763 211.4 327.672 207.676 325.991 205.098C325.458 204.853 323.982 204.28 321.686 204.075C321.563 204.075 321.44 203.952 321.44 203.83C321.481 203.666 321.604 203.584 321.727 203.584Z" fill="#F5F5F5"/>
<path d="M340.915 232.393C344.564 232.434 350.796 229.078 353.256 225.763C355.716 222.449 348.746 224.495 349.443 221.876C350.181 219.257 358.791 221.18 360.39 217.456C361.989 213.692 355.757 214.551 356.003 212.628C356.249 210.704 362.686 211.114 364.777 207.103C366.827 203.093 361.169 205.344 362.071 203.707C362.932 202.029 370.025 195.072 367.073 193.599C364.08 192.167 357.438 199.41 355.224 200.228C352.969 201.047 352.477 196.014 349.566 198.428C346.655 200.842 348.828 211.318 345.425 212.669C342.883 213.733 343.949 208.904 341.038 210.131C335.913 212.259 339.439 232.352 340.915 232.393Z" fill="#E0E0E0"/>
<g opacity="0.3">
<path d="M340.915 232.393C344.564 232.434 350.796 229.078 353.256 225.763C355.716 222.449 348.746 224.495 349.443 221.876C350.181 219.257 358.791 221.18 360.39 217.456C361.989 213.692 355.757 214.551 356.003 212.628C356.249 210.704 362.686 211.114 364.777 207.103C366.827 203.093 361.169 205.344 362.071 203.707C362.932 202.029 370.025 195.072 367.073 193.599C364.08 192.167 357.438 199.41 355.224 200.228C352.969 201.047 352.477 196.014 349.566 198.428C346.655 200.842 348.828 211.318 345.425 212.669C342.883 213.733 343.949 208.904 341.038 210.131C335.913 212.259 339.439 232.352 340.915 232.393Z" fill="#EBEBEB"/>
</g>
<path d="M342.104 228.014C342.049 227.987 342.008 227.946 341.981 227.891C341.899 227.728 339.89 223.881 340.341 218.152C340.341 217.988 340.464 217.906 340.628 217.906C340.751 217.906 340.833 218.029 340.833 218.152C340.464 223.022 341.899 226.582 342.309 227.441C343.949 223.022 345.917 219.093 347.885 215.697C347.229 207.881 351.247 201.497 351.288 201.415C351.37 201.292 351.493 201.292 351.616 201.333C351.739 201.415 351.78 201.579 351.698 201.702C351.657 201.743 347.967 207.635 348.336 214.96C353.01 207.144 357.561 202.602 357.643 202.52C357.766 202.397 357.971 202.397 358.094 202.52C358.258 202.643 358.258 202.847 358.094 202.97C358.053 203.052 354.773 206.285 351.001 211.973C353.215 211.154 355.634 210.704 357.889 210.745C358.012 210.745 358.135 210.868 358.135 210.991C358.135 211.114 358.012 211.236 357.889 211.236C355.47 211.195 352.846 211.686 350.509 212.669C349.197 214.674 347.844 216.965 346.532 219.502C347.803 218.643 350.222 217.456 353.338 218.275C353.502 218.316 353.543 218.438 353.543 218.602C353.502 218.725 353.379 218.807 353.215 218.766C349.279 217.702 346.491 220.075 346.04 220.485C342.432 227.687 339.357 236.771 338.947 247.206C338.947 247.37 338.783 247.534 338.619 247.534C338.414 247.534 338.291 247.37 338.291 247.206C338.578 240.127 340.095 233.702 342.104 228.014Z" fill="#F5F5F5"/>
<path d="M330.624 267.994C327.139 261.447 324.884 251.994 324.884 247.861C324.884 244.342 326.524 241.191 329.107 239.022H346.983C349.566 241.191 351.206 244.342 351.206 247.861C351.206 251.994 348.951 261.447 345.466 267.994H330.624Z" fill="#F0F0F0"/>
<path fill-rule="evenodd" clip-rule="evenodd" d="M300.079 141.506L301.309 142.202C301.2 142.802 301.049 143.375 300.858 143.921L299.423 143.88C299.259 144.262 299.054 144.63 298.808 144.985L299.505 146.212C299.15 146.649 298.74 147.058 298.275 147.44L297.045 146.703C296.717 146.949 296.348 147.167 295.938 147.358L295.979 148.749C295.446 148.954 294.872 149.118 294.257 149.24L293.56 147.972C293.369 147.999 293.164 148.013 292.945 148.013C292.726 148.013 292.521 147.999 292.33 147.972L291.633 149.24C291.018 149.118 290.444 148.954 289.911 148.749L289.952 147.358C289.542 147.167 289.173 146.949 288.845 146.703L287.615 147.44C287.15 147.058 286.74 146.649 286.385 146.212L287.082 144.985C286.836 144.63 286.631 144.262 286.467 143.88L285.032 143.921C284.827 143.348 284.663 142.775 284.581 142.202L285.811 141.506C285.811 141.315 285.811 141.111 285.811 140.892C285.811 140.674 285.811 140.456 285.811 140.238L284.581 139.583C284.663 138.969 284.827 138.396 285.032 137.864H286.467C286.631 137.482 286.836 137.128 287.082 136.8L286.385 135.573C286.74 135.109 287.15 134.686 287.615 134.304L288.845 135.041C289.173 134.795 289.542 134.591 289.952 134.427L289.911 132.995C290.458 132.804 291.032 132.654 291.633 132.544L292.33 133.772C292.521 133.772 292.726 133.772 292.945 133.772C293.164 133.772 293.369 133.772 293.56 133.772L294.257 132.544C294.858 132.654 295.432 132.804 295.979 132.995L295.938 134.427C296.348 134.591 296.717 134.795 297.045 135.041L298.275 134.304C298.74 134.686 299.15 135.109 299.505 135.573L298.808 136.8C299.054 137.128 299.259 137.482 299.423 137.864H300.858C301.049 138.41 301.2 138.983 301.309 139.583L300.079 140.238C300.079 140.456 300.079 140.674 300.079 140.892C300.079 141.111 300.079 141.315 300.079 141.506ZM297.783 140.892C297.783 138.192 295.61 136.023 292.945 136.023C290.28 136.023 288.107 138.192 288.107 140.892C288.107 143.552 290.28 145.721 292.945 145.721C295.61 145.721 297.783 143.552 297.783 140.892Z" fill="#F0F0F0"/>
<path fill-rule="evenodd" clip-rule="evenodd" d="M290.731 159.307L292.576 160.33C292.439 161.23 292.221 162.09 291.92 162.908L289.788 162.867C289.515 163.44 289.2 163.986 288.845 164.504L289.952 166.305C289.378 166.987 288.749 167.614 288.066 168.187L286.221 167.123C285.729 167.478 285.196 167.791 284.622 168.064V170.151C283.802 170.479 282.955 170.71 282.08 170.847L281.055 169.005C280.727 169.033 280.413 169.046 280.112 169.046C279.784 169.046 279.47 169.033 279.169 169.005L278.144 170.847C277.242 170.71 276.381 170.479 275.561 170.151L275.602 168.064C275.028 167.791 274.481 167.478 273.962 167.123L272.158 168.187C271.447 167.614 270.819 166.987 270.272 166.305L271.338 164.504C270.983 163.986 270.668 163.44 270.395 162.867L268.304 162.908C267.976 162.09 267.73 161.23 267.607 160.33L269.452 159.307C269.425 159.007 269.411 158.693 269.411 158.366C269.411 158.066 269.425 157.752 269.452 157.425L267.607 156.402C267.73 155.501 267.976 154.642 268.304 153.824L270.395 153.865C270.668 153.292 270.983 152.746 271.338 152.228L270.272 150.427C270.819 149.745 271.447 149.118 272.158 148.545L273.962 149.65C274.481 149.295 275.028 148.981 275.602 148.708L275.561 146.58C276.381 146.28 277.242 146.049 278.144 145.885L279.169 147.767C279.47 147.713 279.784 147.685 280.112 147.685C280.413 147.685 280.727 147.713 281.055 147.767L282.08 145.885C282.955 146.049 283.802 146.28 284.622 146.58V148.708C285.196 148.981 285.729 149.295 286.221 149.65L288.066 148.545C288.749 149.118 289.378 149.745 289.952 150.427L288.845 152.228C289.2 152.746 289.515 153.292 289.788 153.865L291.92 153.824C292.221 154.642 292.439 155.501 292.576 156.402L290.731 157.425C290.758 157.752 290.772 158.066 290.772 158.366C290.772 158.693 290.758 159.007 290.731 159.307ZM284.294 158.366C284.294 156.033 282.408 154.151 280.112 154.151C277.775 154.151 275.889 156.033 275.889 158.366C275.889 160.698 277.775 162.581 280.112 162.581C282.408 162.581 284.294 160.698 284.294 158.366Z" fill="#F0F0F0"/>
<path fill-rule="evenodd" clip-rule="evenodd" d="M131.036 132.217V141.834C131.036 145.312 128.248 148.135 124.763 148.135H115.128C111.643 148.135 108.814 145.312 108.814 141.834V132.217C108.814 128.739 111.643 125.915 115.128 125.915H124.763C128.248 125.915 131.036 128.739 131.036 132.217ZM125.173 135.368C125.173 132.463 122.836 130.13 119.925 130.13C117.055 130.13 114.718 132.463 114.718 135.368C114.718 138.232 119.925 143.921 119.925 143.921C119.925 143.921 125.173 138.232 125.173 135.368Z" fill="#F0F0F0"/>
<path d="M119.925 132.995C118.613 132.995 117.547 134.059 117.547 135.368C117.547 136.677 118.613 137.741 119.925 137.741C121.278 137.741 122.344 136.677 122.344 135.368C122.344 134.059 121.278 132.995 119.925 132.995Z" fill="#F0F0F0"/>
<path fill-rule="evenodd" clip-rule="evenodd" d="M325.622 59.7862V69.9756C325.622 73.1675 322.998 75.7455 319.8 75.7455H309.591C306.393 75.7455 303.81 73.1675 303.81 69.9756V59.7862C303.81 56.5943 306.393 53.9753 309.591 53.9753H319.8C322.998 53.9753 325.622 56.5943 325.622 59.7862ZM321.44 61.0547C321.003 61.2457 320.538 61.3685 320.046 61.423C320.497 61.0957 320.866 60.6455 321.071 60.1136H321.03C320.538 60.3591 320.046 60.5637 319.513 60.6455C319.472 60.6865 319.431 60.6455 319.39 60.6046C318.816 60.0317 317.996 59.7862 317.135 59.9089C316.438 59.9908 315.782 60.4409 315.413 61.0547C315.085 61.5458 314.962 62.1596 315.044 62.7325C315.085 62.8144 315.126 62.8962 315.085 63.019C312.994 62.8962 311.067 61.9141 309.755 60.3182C309.427 60.8911 309.345 61.5458 309.509 62.2005C309.632 62.8144 310.042 63.3873 310.575 63.7556C310.165 63.7283 309.782 63.6192 309.427 63.4282C309.427 63.9192 309.591 64.4103 309.837 64.7786C310.206 65.3924 310.821 65.8426 311.518 65.9653H311.477C311.108 66.0881 310.739 66.0881 310.37 66.0062C310.739 67.0702 311.682 67.7659 312.789 67.8068C312.406 68.0796 311.996 68.3115 311.559 68.5024C310.739 68.8298 309.837 68.9526 308.976 68.8298L309.058 68.8707C310.288 69.6482 311.723 70.0165 313.158 69.9756C313.65 69.9756 314.142 69.9211 314.634 69.8119C315.946 69.5255 317.176 68.8298 318.16 67.8477C318.693 67.2339 319.185 66.5791 319.513 65.8016C319.841 65.106 320.046 64.3285 320.128 63.551C320.183 63.169 320.21 62.7871 320.21 62.4052C320.21 62.3642 320.21 62.3233 320.251 62.3233C320.606 62.0778 320.907 61.7777 321.153 61.423C321.262 61.2866 321.358 61.1639 321.44 61.0547Z" fill="#F0F0F0"/>
<path d="M106.108 70.6304H95.202C91.758 70.6304 88.97 67.8477 88.97 64.4103V53.5252C88.97 50.1287 91.758 47.3461 95.202 47.3461H106.108C109.511 47.3461 112.299 50.1287 112.299 53.5252V64.4103C112.299 67.8477 109.511 70.6304 106.108 70.6304Z" fill="#F0F0F0"/>
<path d="M103.238 55.2848V58.5585C103.238 59.9089 102.172 61.0138 100.778 61.0138H97.662L94.054 64.574V61.0138C92.701 61.0138 91.594 59.9089 91.594 58.5585V55.2848C91.594 53.9344 92.701 52.8295 94.054 52.8295H100.778C102.172 52.8295 103.238 53.9344 103.238 55.2848Z" fill="white"/>
<path d="M109.675 60.2363V62.7325C109.675 63.7965 108.814 64.6558 107.789 64.6558V67.3975L105.042 64.6558H102.623C101.557 64.6558 100.737 63.7965 100.737 62.7325V60.2363C100.737 59.1723 101.557 58.313 102.623 58.313H107.789C108.814 58.313 109.675 59.1723 109.675 60.2363Z" fill="white"/>
<path d="M100.655 55.4894H94.587C94.423 55.4894 94.3 55.3667 94.3 55.203C94.3 55.0393 94.423 54.9165 94.587 54.9165H100.655C100.819 54.9165 100.942 55.0393 100.942 55.203C100.942 55.3667 100.819 55.4894 100.655 55.4894Z" fill="#EBEBEB"/>
<path d="M100.655 56.8808H94.587C94.423 56.8808 94.3 56.758 94.3 56.6352C94.3 56.4715 94.423 56.3488 94.587 56.3488H100.655C100.819 56.3488 100.942 56.4715 100.942 56.6352C100.942 56.758 100.819 56.8808 100.655 56.8808Z" fill="#EBEBEB"/>
<path d="M98.974 58.313H94.587C94.423 58.313 94.3 58.1902 94.3 58.0266C94.3 57.8629 94.423 57.7401 94.587 57.7401H98.974C99.097 57.7401 99.261 57.8629 99.261 58.0266C99.261 58.1902 99.097 58.313 98.974 58.313Z" fill="#EBEBEB"/>
<path d="M363.998 292.506C363.998 297.621 292.822 301.754 205 301.754C117.178 301.754 46.002 297.621 46.002 292.506C46.002 287.391 117.178 283.217 205 283.217C292.822 283.217 363.998 287.391 363.998 292.506Z" fill="#F5F5F5"/>
<path d="M158.506 131.276L153.217 129.762C152.698 129.598 152.165 129.489 151.618 129.434L148.092 129.271L145.181 128.084C144.484 127.634 143.582 128.084 143.5 128.902L143.336 130.826C143.295 131.235 143.459 131.603 143.787 131.849L148.051 134.836L154.037 133.813L159.367 136.391L159.982 131.767L158.506 131.276Z" fill="#B55B52"/>
<path d="M251.494 132.749L256.865 131.44C257.384 131.276 257.917 131.18 258.464 131.153H261.99L264.942 130.089C265.639 129.68 266.541 130.171 266.582 130.989L266.664 132.954C266.705 133.322 266.5 133.69 266.172 133.936L261.785 136.718L255.881 135.45L250.428 137.823L249.977 133.158L251.494 132.749Z" fill="#B55B52"/>
<path d="M191.757 281.089L190.486 292.67L184.131 291.974L184.787 279.37L191.757 281.089Z" fill="#B55B52"/>
<path fill-rule="evenodd" clip-rule="evenodd" d="M181.179 292.097C180.359 292.056 179.539 291.851 179.293 291.483C179.17 291.279 179.211 290.992 179.375 290.828C179.498 290.665 179.662 290.542 179.867 290.501C180.974 290.296 183.106 291.729 183.188 291.811C183.27 291.811 183.27 291.892 183.27 291.974C183.27 292.015 183.188 292.056 183.147 292.056C182.491 292.138 181.835 292.152 181.179 292.097ZM180.236 290.788C180.127 290.788 180.031 290.788 179.949 290.788C179.826 290.828 179.703 290.869 179.621 290.992C179.498 291.156 179.539 291.279 179.58 291.32C179.826 291.77 181.466 291.892 182.655 291.851C181.917 291.32 181.097 290.992 180.236 290.788Z" fill="#69008E"/>
<path fill-rule="evenodd" clip-rule="evenodd" d="M183.106 292.056C183.079 292.056 183.065 292.056 183.065 292.056C182.327 291.647 180.851 290.174 181.056 289.437C181.097 289.273 181.22 289.069 181.671 289.069C181.958 289.069 182.245 289.151 182.491 289.396C183.27 290.133 183.311 291.852 183.311 291.933C183.311 291.988 183.284 292.029 183.229 292.056C183.174 292.083 183.133 292.083 183.106 292.056ZM181.753 289.355H181.671C181.384 289.355 181.343 289.437 181.343 289.478C181.261 289.928 182.204 291.074 182.942 291.606C182.942 290.869 182.696 290.174 182.245 289.601C182.122 289.437 181.917 289.355 181.753 289.355Z" fill="#69008E"/>
<path d="M183.844 291.238L190.855 291.77C191.142 291.77 191.347 291.974 191.388 292.22L192.208 298.031C192.29 298.522 191.962 299.013 191.429 299.095C191.374 299.095 191.306 299.095 191.224 299.095C188.723 298.849 186.468 298.563 183.352 298.317C179.621 298.031 180.523 298.563 176.177 298.276C173.512 298.153 173.266 295.125 174.414 295.043C179.539 294.798 180.195 293.284 182.286 291.606C182.737 291.32 183.311 291.156 183.844 291.238Z" fill="#263238"/>
<path opacity="0.2" d="M184.418 286.368L189.174 286.204L191.101 286.982L190.855 289.437L184.295 289.069L184.418 286.368Z" fill="black"/>
<path d="M207.829 164.422L195.652 237.017L192.7 287.882L183.188 287.718C183.188 287.718 180.031 262.715 181.671 232.843C183.147 205.917 189.42 174.366 190.117 165.404L193.643 159.184L200.654 160.085L207.829 164.422Z" fill="#69008E"/>
<path d="M226.156 293.979L231.568 293.366C231.568 293.366 231.404 291.156 231.158 287.555C231.103 286.764 231.035 285.904 230.953 284.977L224.762 286.082H224.639C224.666 286.218 224.694 286.354 224.721 286.491C224.858 287.227 224.994 287.909 225.131 288.537C225.746 291.892 226.156 293.979 226.156 293.979Z" fill="#B55B52"/>
<path fill-rule="evenodd" clip-rule="evenodd" d="M232.593 291.442C232.552 291.442 232.47 291.401 232.47 291.36C232.429 291.279 232.47 291.238 232.511 291.197C232.593 291.115 234.602 289.478 235.709 289.601C235.914 289.601 236.119 289.724 236.242 289.887C236.406 290.051 236.488 290.296 236.365 290.542C236.16 290.91 235.381 291.197 234.561 291.32C233.905 291.429 233.249 291.47 232.593 291.442ZM233.044 291.156C234.274 291.115 235.873 290.869 236.078 290.378C236.119 290.337 236.16 290.215 235.996 290.051C235.914 289.969 235.791 289.887 235.668 289.887C235.586 289.887 235.49 289.901 235.381 289.928C234.52 290.174 233.741 290.624 233.044 291.156Z" fill="#69008E"/>
<path fill-rule="evenodd" clip-rule="evenodd" d="M232.511 291.442C232.456 291.442 232.429 291.401 232.429 291.32C232.429 291.238 232.306 289.519 233.003 288.701C233.208 288.496 233.495 288.332 233.823 288.332C234.233 288.291 234.397 288.496 234.438 288.66C234.684 289.355 233.372 290.992 232.675 291.442C232.675 291.442 232.661 291.442 232.634 291.442C232.579 291.47 232.538 291.47 232.511 291.442ZM233.741 288.619C233.577 288.66 233.372 288.741 233.249 288.905C232.88 289.519 232.716 290.256 232.757 290.992C233.454 290.378 234.274 289.151 234.151 288.741C234.151 288.701 234.11 288.578 233.823 288.619H233.741Z" fill="#69008E"/>
<path d="M231.404 290.828L225.869 291.647C225.623 291.729 225.418 291.933 225.377 292.179L225.09 298.031C225.049 298.563 225.418 299.013 225.951 299.054C226.033 299.054 226.101 299.04 226.156 299.013C228.657 298.563 229.436 298.358 232.552 297.867C236.242 297.253 235.381 297.826 239.727 297.171C242.31 296.803 242.31 293.775 241.162 293.775C236.037 293.979 231.937 290.706 231.404 290.828Z" fill="#263238"/>
<path opacity="0.2" d="M225.131 288.537L231.158 287.555C231.103 286.764 231.035 285.904 230.953 284.977L224.762 286.082L224.721 286.491C224.858 287.227 224.994 287.909 225.131 288.537Z" fill="black"/>
<path opacity="0.2" d="M204.918 181.282L201.679 200.679C200.695 186.806 202.007 170.192 202.007 170.192L204.918 181.282Z" fill="black"/>
<path d="M218.243 162.622C218.243 162.622 225.992 218.602 228.862 233.047C231.404 245.815 231.896 286.327 231.896 286.327L223.409 287.268C223.409 287.268 218.571 264.966 216.972 249.334C216.398 243.851 216.562 239.267 216.07 236.444C215.414 232.72 193.807 172.729 197.825 163.276L218.243 162.622Z" fill="#69008E"/>
<path d="M189.789 155.092C190.035 152.596 190.199 150.141 189.994 147.808C188.026 124.647 187.329 123.214 187.534 119.163C187.575 118.427 188.067 117.772 188.764 117.567C204.795 112.084 217.3 114.703 220.908 116.708C225.746 119.45 223.819 122.355 223.778 123.173C223.286 130.048 219.514 142.775 219.432 153.905C219.432 155.542 219.596 159.471 219.719 161.64C219.76 162.54 219.145 163.317 218.284 163.481C214.676 164.218 198.891 164.422 195.898 164.34C193.069 164.259 191.224 164.054 190.035 163.931C189.01 163.767 188.313 162.785 188.518 161.762C188.969 159.716 189.625 156.524 189.789 155.092Z" fill="#474747"/>
<path d="M209.1 103.449C208.485 107.01 208.731 112.288 211.314 114.621C211.314 114.621 211.232 118.263 201.228 122.478C197.415 117.322 200.121 114.907 200.121 114.907C204.098 113.843 203.155 112.207 202.376 109.465L209.1 103.449Z" fill="#B55B52"/>
<path opacity="0.2" d="M206.353 105.864L202.417 109.465C202.608 110.092 202.745 110.733 202.827 111.388C204.344 111.143 206.722 109.792 207.009 108.114C206.968 107.337 206.763 106.559 206.353 105.864Z" fill="black"/>
<path d="M213.61 97.1883C212.175 103.081 211.683 105.618 208.075 108.114C202.704 111.879 195.734 108.81 195.406 102.59C195.119 96.9837 197.579 88.2266 203.852 86.958C208.362 86.0168 212.749 88.8813 213.733 93.3827C213.979 94.6512 213.938 95.9198 213.61 97.1883Z" fill="#B55B52"/>
<path d="M203.36 96.4108C203.278 96.9019 202.95 97.2702 202.622 97.1883C202.335 97.1474 202.13 96.6973 202.212 96.2062C202.294 95.7152 202.622 95.3878 202.95 95.4287C203.278 95.4696 203.442 95.9607 203.36 96.4108Z" fill="#263238"/>
<path d="M197.907 95.4696C197.825 95.9607 197.497 96.2881 197.169 96.2471C196.882 96.2062 196.677 95.7561 196.759 95.265C196.841 94.774 197.169 94.4466 197.497 94.4875C197.825 94.5694 197.989 94.9786 197.907 95.4696Z" fill="#263238"/>
<path d="M199.834 97.1884C199.219 98.2114 198.44 99.1526 197.538 99.971C197.948 100.421 198.563 100.667 199.219 100.626L199.834 97.1884Z" fill="#A02724"/>
<path d="M201.515 102.999C201.269 102.999 201.023 102.972 200.777 102.917C200.695 102.917 200.654 102.836 200.654 102.754C200.695 102.672 200.736 102.631 200.818 102.631C202.048 102.876 203.319 102.549 204.262 101.731C204.303 101.649 204.385 101.649 204.467 101.731C204.508 101.772 204.508 101.853 204.467 101.935C203.647 102.672 202.581 103.04 201.515 102.999Z" fill="#263238"/>
<path d="M205.943 95.6743C205.82 95.7152 205.697 95.6333 205.656 95.5106C205.123 94.7331 204.303 94.1602 203.36 94.0374C203.196 93.9965 203.073 93.8328 203.114 93.6691C203.114 93.5464 203.278 93.4236 203.442 93.4645C204.59 93.6282 205.574 94.2829 206.189 95.2651C206.23 95.4287 206.189 95.5924 206.066 95.6743C206.039 95.6743 205.998 95.6743 205.943 95.6743Z" fill="#263238"/>
<path d="M196.964 93.5873C196.841 93.6282 196.759 93.5873 196.677 93.5054C196.554 93.3827 196.554 93.219 196.677 93.0962C197.374 92.4415 198.317 92.155 199.26 92.3187C199.424 92.3596 199.506 92.4824 199.465 92.6461C199.465 92.6461 199.465 92.6597 199.465 92.687C199.424 92.8098 199.26 92.9325 199.137 92.8916C198.399 92.7688 197.661 92.9734 197.128 93.5054C197.073 93.56 197.019 93.5873 196.964 93.5873Z" fill="#263238"/>
<path d="M212.38 114.253L211.355 114.089L205.451 117.281L203.647 117.363L200.162 114.375L198.973 114.662C197.866 118.017 197.661 121.618 198.358 125.056L200.326 134.959L202.417 145.803H202.458L202.909 144.821L204.549 141.056L206.763 136.8L210.863 126.406L212.052 122.109C212.749 119.572 212.872 116.872 212.38 114.253Z" fill="#263238"/>
<path opacity="0.2" d="M206.025 117.363C199.752 117.403 199.055 115.112 199.055 115.112V114.539C199.055 114.539 197.128 118.14 202.622 118.754C208.075 119.368 211.724 116.79 212.503 115.235C211.888 116.053 210.248 117.322 206.025 117.363Z" fill="black"/>
<path d="M213.405 89.0859C213.118 88.1447 212.79 87.1626 212.093 86.5079C211.355 85.8531 210.084 85.7304 209.469 86.467C208.526 85.2393 206.681 84.5846 205.164 84.7073C203.647 84.8301 202.212 85.7713 201.474 87.1217C200.736 88.4721 198.44 88.9222 196.882 89.0859C197.907 90.109 200.367 90.7637 201.597 90.0271C201.31 90.5182 199.916 90.7637 199.342 90.8455C200.285 91.2957 201.269 91.8277 202.335 91.8686C203.401 91.9504 204.549 91.5003 205 90.5182C204.508 91.2957 204.631 92.3187 205.246 92.9735C205.861 93.6282 206.927 93.7919 207.706 93.3827C207.173 93.1781 206.927 92.7279 206.927 92.155C206.927 91.623 207.337 91.0911 207.87 90.9274C207.911 91.5821 208.362 92.4415 208.936 92.8507C209.469 93.2599 209.92 93.4236 210.289 94.0374C210.617 94.6512 210.207 96.0835 209.141 96.0016C209.633 96.4927 211.601 96.329 211.806 95.6333C211.437 97.393 210.412 98.7843 208.854 99.6846C209.305 99.6436 209.551 99.8073 210.002 99.9301C210.412 100.053 210.822 100.298 211.027 100.667C211.314 101.199 211.15 101.853 210.945 102.467C210.453 103.968 209.865 105.441 209.182 106.887C211.191 106.314 212.79 105.004 213.61 103.081C215.496 102.467 216.808 100.462 216.644 98.4978C217.505 97.6385 218.366 96.4518 218.489 95.2241C218.612 93.9965 217.833 92.6052 216.603 92.4415C217.054 91.4184 216.849 90.3954 216.193 89.4951C215.496 88.6358 214.307 88.4312 213.405 89.0859Z" fill="#263238"/>
<path d="M213.364 101.444C212.831 102.385 211.97 103.081 210.904 103.367C209.51 103.736 208.854 102.467 209.264 101.158C209.633 100.012 210.781 98.3751 212.175 98.5797C213.159 98.7434 213.856 99.6846 213.692 100.708C213.637 100.98 213.528 101.226 213.364 101.444Z" fill="#B55B52"/>
<path fill-rule="evenodd" clip-rule="evenodd" d="M212.298 98.1295L212.011 98.3751C211.683 97.9658 211.191 97.7203 210.658 97.5976L206.763 96.9428C206.763 97.0792 206.749 97.2156 206.722 97.352C206.517 98.7024 205.082 99.6027 203.565 99.3162C202.048 99.0707 201.023 97.7612 201.228 96.4108C201.255 96.3017 201.283 96.2062 201.31 96.1244L200.121 95.9198C200.121 96.0289 200.107 96.1244 200.08 96.2062C199.834 97.5566 198.44 98.4569 196.923 98.2114C195.406 97.9249 194.34 96.6154 194.586 95.265C194.873 93.5873 196.882 93.9146 197.62 94.0374C198.276 94.1602 199.793 94.4057 200.08 95.5515L201.474 95.797C202.089 94.8149 203.647 95.0604 204.262 95.1832C204.877 95.265 206.353 95.5106 206.681 96.5336L210.74 97.2293C211.355 97.352 211.929 97.6794 212.298 98.1295ZM199.711 96.1653C199.875 95.2241 199.219 94.6921 197.579 94.4057C195.898 94.1192 195.119 94.4057 194.955 95.3469C194.75 96.4927 195.693 97.5976 196.964 97.8431C198.276 98.0477 199.506 97.3111 199.711 96.1653ZM206.353 97.2702C206.517 96.329 205.861 95.8379 204.221 95.5515C202.54 95.265 201.761 95.5515 201.638 96.4518C201.433 97.6385 202.335 98.7434 203.647 98.948C204.959 99.1935 206.148 98.416 206.353 97.2702Z" fill="#263238"/>
<path d="M157.481 130.498C167.362 133.076 175.972 131.726 175.972 131.726C181.548 122.15 188.764 117.404 188.764 117.404L191.06 125.997C191.06 125.997 184.213 136.841 178.678 139.337C174.291 141.343 161.13 137.782 155.882 136.227C156.005 133.363 157.03 131.276 157.481 130.498Z" fill="#474747"/>
<path d="M252.929 131.48C242.966 133.813 234.397 132.299 234.397 132.299C229.026 122.601 221.933 117.69 221.933 117.69L219.432 126.243C219.432 126.243 226.033 137.25 231.527 139.869C235.832 141.915 249.075 138.683 254.405 137.25C254.323 134.386 253.339 132.258 252.929 131.48Z" fill="#474747"/>
<path d="M199.055 112.779V115.112C199.055 115.112 199.547 117.608 205.82 117.567C212.134 117.485 212.872 114.539 212.872 114.539L212.913 112.82C212.913 111.634 211.806 110.692 210.617 110.938C208.813 111.265 205.82 111.47 201.228 110.897C200.08 110.733 199.055 111.634 199.055 112.779Z" fill="#263238"/>
<path d="M242.228 98.7024V89.9043C242.228 86.1805 239.194 83.1114 235.422 83.1114H219.227C215.496 83.1114 212.421 80.0832 212.421 76.3184V69.5664" stroke="black" stroke-width="0.82" stroke-miterlimit="10"/>
<path d="M248.419 98.8661H237.8C235.627 98.8661 233.905 100.626 233.905 102.754V113.352C233.905 115.521 235.627 117.24 237.8 117.24H248.419C250.592 117.24 252.314 115.521 252.314 113.352V102.754C252.314 100.626 250.592 98.8661 248.419 98.8661Z" fill="#69008E"/>
<g opacity="0.4">
<path d="M248.419 98.8661H237.8C235.627 98.8661 233.905 100.626 233.905 102.754V113.352C233.905 115.521 235.627 117.24 237.8 117.24H248.419C250.592 117.24 252.314 115.521 252.314 113.352V102.754C252.314 100.626 250.592 98.8661 248.419 98.8661Z" fill="white"/>
</g>
<path fill-rule="evenodd" clip-rule="evenodd" d="M250.387 107.91C250.387 111.961 247.107 115.235 243.048 115.235C239.03 115.235 235.709 111.961 235.709 107.91C235.709 103.899 239.03 100.585 243.048 100.585C247.107 100.585 250.387 103.899 250.387 107.91ZM237.841 103.859H240.178C240.629 102.917 241.203 102.058 241.9 101.444C240.301 101.731 238.866 102.549 237.841 103.859ZM236.447 107.664H239.194L239.235 107.501C239.276 106.559 239.481 105.536 239.85 104.554H237.349C236.816 105.495 236.488 106.559 236.447 107.664ZM240.055 111.47C239.604 110.488 239.317 109.424 239.235 108.401H236.447C236.529 109.506 236.898 110.57 237.513 111.47H240.055ZM242.187 114.457C241.49 113.843 240.875 113.107 240.383 112.207H238.046C239.112 113.434 240.588 114.212 242.187 114.457ZM242.679 112.207H241.244C241.654 112.902 242.146 113.475 242.679 113.925V112.207ZM242.679 108.401H239.973C240.055 109.424 240.383 110.529 240.834 111.47H242.679V108.401ZM242.679 104.595H240.629C240.219 105.618 239.973 106.682 239.932 107.705H242.679V104.595ZM242.679 101.69C242.023 102.263 241.449 102.999 240.998 103.859H242.679V101.69ZM248.747 104.595H246.246C246.615 105.536 246.82 106.559 246.861 107.501H246.902V107.705H249.649C249.608 106.6 249.28 105.536 248.747 104.595ZM244.196 101.444C244.893 102.099 245.467 102.917 245.918 103.859H248.255C247.23 102.59 245.795 101.731 244.196 101.444ZM243.417 103.859H245.098C244.647 102.999 244.073 102.263 243.417 101.69V103.859ZM243.417 107.705H246.164C246.123 106.682 245.877 105.577 245.467 104.595H243.417V107.705ZM243.417 111.511H245.262C245.713 110.529 246.041 109.465 246.123 108.442H243.417V111.511ZM244.852 112.207H243.417V113.925C243.95 113.475 244.442 112.902 244.852 112.207ZM248.05 112.207H245.713C245.221 113.107 244.606 113.843 243.909 114.457C245.508 114.253 246.984 113.434 248.05 112.207ZM249.649 108.401H246.861C246.779 109.424 246.492 110.488 246.041 111.511H248.583C249.198 110.57 249.567 109.506 249.649 108.401Z" fill="white"/>
<path d="M229.887 69.5664H268.509C272.281 69.5664 275.315 72.5946 275.315 76.3184V85.1165" stroke="black" stroke-width="0.82" stroke-miterlimit="10"/>
<path d="M278.39 78.7328H267.771C265.598 78.7328 263.835 80.4924 263.835 82.6203V93.2599C263.835 95.3878 265.598 97.1474 267.771 97.1474H278.39C280.522 97.1474 282.285 95.3878 282.285 93.2599V82.6203C282.285 80.4924 280.522 78.7328 278.39 78.7328Z" fill="#69008E"/>
<g opacity="0.4">
<path d="M278.39 78.7328H267.771C265.598 78.7328 263.835 80.4924 263.835 82.6203V93.2599C263.835 95.3878 265.598 97.1474 267.771 97.1474H278.39C280.522 97.1474 282.285 95.3878 282.285 93.2599V82.6203C282.285 80.4924 280.522 78.7328 278.39 78.7328Z" fill="white"/>
</g>
<path opacity="0.9" fill-rule="evenodd" clip-rule="evenodd" d="M274.823 88.5539C275.028 88.5949 275.192 88.6767 275.356 88.8404L278.144 91.623C278.513 91.9913 278.513 92.6461 278.144 93.0144C277.734 93.4236 277.119 93.4236 276.709 93.0144L273.921 90.2726C273.798 90.109 273.675 89.9043 273.675 89.6997C271.912 90.9274 269.493 90.7228 267.935 89.2087C266.213 87.4491 266.213 84.6255 267.935 82.8659C269.698 81.1472 272.527 81.1472 274.29 82.8659C275.848 84.4209 276.012 86.8352 274.823 88.5539ZM273.347 83.8071C272.117 82.5794 270.108 82.5794 268.919 83.8071C267.689 85.0347 267.689 87.0399 268.919 88.2675C270.108 89.4542 272.117 89.4542 273.347 88.2266C274.577 87.0399 274.577 85.0347 273.347 83.8071Z" fill="white"/>
<path d="M228.944 55.6122H278.431" stroke="black" stroke-width="0.82" stroke-miterlimit="10"/>
<path d="M286.221 41.1669H275.602C273.47 41.1669 271.707 42.8856 271.707 45.0545V55.6531C271.707 57.781 273.47 59.5406 275.602 59.5406H286.221C288.394 59.5406 290.157 57.781 290.157 55.6531V45.0545C290.157 42.8856 288.394 41.1669 286.221 41.1669Z" fill="#69008E"/>
<g opacity="0.4">
<path d="M286.221 41.1669H275.602C273.47 41.1669 271.707 42.8856 271.707 45.0545V55.6531C271.707 57.781 273.47 59.5406 275.602 59.5406H286.221C288.394 59.5406 290.157 57.781 290.157 55.6531V45.0545C290.157 42.8856 288.394 41.1669 286.221 41.1669Z" fill="white"/>
</g>
<g opacity="0.5">
<path d="M278.349 55.6122C278.349 56.3897 277.734 57.0035 276.955 57.0035C276.176 57.0035 275.561 56.3897 275.561 55.6122C275.561 54.8347 276.176 54.2209 276.955 54.2209C277.734 54.2209 278.349 54.8347 278.349 55.6122Z" fill="white"/>
<path d="M283.761 55.6122C283.761 56.3897 283.146 57.0035 282.367 57.0035C281.588 57.0035 280.973 56.3897 280.973 55.6122C280.973 54.8347 281.588 54.2209 282.367 54.2209C283.146 54.2209 283.761 54.8347 283.761 55.6122Z" fill="white"/>
</g>
<path d="M283.474 53.1569H275.438L273.757 47.5507H285.196L283.474 53.1569Z" stroke="white" stroke-width="0.738" stroke-linecap="round" stroke-linejoin="round"/>
<path d="M285.196 47.5507L285.811 45.3C285.975 44.8499 286.385 44.5634 286.836 44.5634H288.107" stroke="white" stroke-width="0.738" stroke-linecap="round" stroke-linejoin="round"/>
<path d="M227.468 43.8678H243.581C247.312 43.8678 250.387 40.7987 250.387 37.0748V28.2767" stroke="black" stroke-width="0.82" stroke-miterlimit="10"/>
<path d="M256.004 32.7371H244.729C242.72 32.7371 241.121 31.1003 241.121 29.136V17.8826C241.121 15.8775 242.72 14.2816 244.729 14.2816H256.004C258.013 14.2816 259.612 15.8775 259.612 17.8826V29.136C259.612 31.1003 258.013 32.7371 256.004 32.7371Z" fill="#69008E"/>
<g opacity="0.4">
<path d="M256.004 32.7371H244.729C242.72 32.7371 241.121 31.1003 241.121 29.136V17.8826C241.121 15.8775 242.72 14.2816 244.729 14.2816H256.004C258.013 14.2816 259.612 15.8775 259.612 17.8826V29.136C259.612 31.1003 258.013 32.7371 256.004 32.7371Z" fill="white"/>
</g>
<path d="M257.398 25.4122C257.398 25.6168 257.357 26.3125 257.357 26.5171H251.002V23.4889H251.863L250.1 21.7293L248.296 23.4889H249.157V26.5171H243.212C243.212 26.4352 243.212 25.8214 243.212 25.6986C243.212 24.0618 244.483 22.7114 246.082 22.5477V22.4249C246.082 20.3789 247.763 18.7011 249.813 18.7011C251.453 18.7011 252.888 19.806 253.339 21.32C253.585 21.32 253.804 21.3337 253.995 21.361C255.922 21.7293 257.398 23.407 257.398 25.4122Z" fill="white"/>
<path d="M205.943 40.103V23.2843V40.103Z" fill="#263238"/>
<path d="M205.943 40.103V23.2843" stroke="black" stroke-width="0.82" stroke-miterlimit="10"/>
<path d="M211.273 7.2431H200.654C198.481 7.2431 196.718 9.00272 196.718 11.1306V21.7293C196.718 23.8981 198.481 25.6577 200.654 25.6577H211.273C213.405 25.6577 215.168 23.8981 215.168 21.7293V11.1306C215.168 9.00272 213.405 7.2431 211.273 7.2431Z" fill="#69008E"/>
<g opacity="0.4">
<path d="M211.273 7.2431H200.654C198.481 7.2431 196.718 9.00272 196.718 11.1306V21.7293C196.718 23.8981 198.481 25.6577 200.654 25.6577H211.273C213.405 25.6577 215.168 23.8981 215.168 21.7293V11.1306C215.168 9.00272 213.405 7.2431 211.273 7.2431Z" fill="white"/>
</g>
<path fill-rule="evenodd" clip-rule="evenodd" d="M207.583 18.0054L208.239 18.4965C208.13 18.8239 207.993 19.1376 207.829 19.4377L207.05 19.3149C206.913 19.5059 206.763 19.6968 206.599 19.8878L206.927 20.6244C206.681 20.8426 206.408 21.0473 206.107 21.2382L205.492 20.7062C205.273 20.8154 205.055 20.9108 204.836 20.9927L204.713 21.8111C204.412 21.893 204.084 21.9339 203.729 21.9339L203.442 21.1973C203.305 21.17 203.182 21.1564 203.073 21.1564C202.964 21.1291 202.841 21.1018 202.704 21.0745L202.253 21.7293C201.898 21.6202 201.583 21.4974 201.31 21.361L201.433 20.5426C201.214 20.4062 201.023 20.2561 200.859 20.0924L200.121 20.4198C199.875 20.1743 199.67 19.9151 199.506 19.6423L199.998 18.9875C199.889 18.7693 199.793 18.551 199.711 18.3328L198.932 18.251C198.85 17.9236 198.795 17.5826 198.768 17.2279L199.547 16.9415C199.547 16.8323 199.547 16.7096 199.547 16.5732C199.574 16.4641 199.602 16.3549 199.629 16.2458L198.973 15.7548C199.082 15.4274 199.219 15.1136 199.383 14.8136L200.162 14.9363C200.299 14.7181 200.449 14.5271 200.613 14.3634L200.285 13.6268C200.531 13.3813 200.804 13.1767 201.105 13.013L201.72 13.5041C201.939 13.3949 202.157 13.2995 202.376 13.2176L202.499 12.4401C202.827 12.3583 203.155 12.3174 203.483 12.3174L203.77 13.0539C203.907 13.0539 204.03 13.0676 204.139 13.0949C204.248 13.0949 204.371 13.1085 204.508 13.1358L204.959 12.481C205.314 12.5902 205.629 12.7266 205.902 12.8903L205.779 13.6678C205.998 13.8042 206.189 13.9542 206.353 14.1179L207.091 13.7905C207.337 14.0361 207.542 14.3089 207.706 14.609L207.214 15.2228C207.323 15.441 207.419 15.6729 207.501 15.9184L208.28 16.0003C208.362 16.3276 208.417 16.655 208.444 16.9824L207.665 17.3098C207.665 17.4189 207.665 17.528 207.665 17.6371C207.638 17.7735 207.61 17.8963 207.583 18.0054ZM205.205 17.3098C205.328 16.4504 204.713 15.632 203.811 15.5092C202.95 15.4274 202.13 16.0412 202.007 16.9005C201.884 17.8008 202.499 18.5783 203.401 18.7011C204.262 18.8239 205.082 18.21 205.205 17.3098Z" fill="#69008E"/>
<path fill-rule="evenodd" clip-rule="evenodd" d="M207.583 18.0054L208.239 18.4965C208.13 18.8239 207.993 19.1376 207.829 19.4377L207.05 19.3149C206.913 19.5059 206.763 19.6968 206.599 19.8878L206.927 20.6244C206.681 20.8426 206.408 21.0473 206.107 21.2382L205.492 20.7062C205.273 20.8154 205.055 20.9108 204.836 20.9927L204.713 21.8111C204.412 21.893 204.084 21.9339 203.729 21.9339L203.442 21.1973C203.305 21.17 203.182 21.1564 203.073 21.1564C202.964 21.1291 202.841 21.1018 202.704 21.0745L202.253 21.7293C201.898 21.6202 201.583 21.4974 201.31 21.361L201.433 20.5426C201.214 20.4062 201.023 20.2561 200.859 20.0924L200.121 20.4198C199.875 20.1743 199.67 19.9151 199.506 19.6423L199.998 18.9875C199.889 18.7693 199.793 18.551 199.711 18.3328L198.932 18.251C198.85 17.9236 198.795 17.5826 198.768 17.2279L199.547 16.9415C199.547 16.8323 199.547 16.7096 199.547 16.5732C199.574 16.4641 199.602 16.3549 199.629 16.2458L198.973 15.7548C199.082 15.4274 199.219 15.1136 199.383 14.8136L200.162 14.9363C200.299 14.7181 200.449 14.5271 200.613 14.3634L200.285 13.6268C200.531 13.3813 200.804 13.1767 201.105 13.013L201.72 13.5041C201.939 13.3949 202.157 13.2995 202.376 13.2176L202.499 12.4401C202.827 12.3583 203.155 12.3174 203.483 12.3174L203.77 13.0539C203.907 13.0539 204.03 13.0676 204.139 13.0949C204.248 13.0949 204.371 13.1085 204.508 13.1358L204.959 12.481C205.314 12.5902 205.629 12.7266 205.902 12.8903L205.779 13.6678C205.998 13.8042 206.189 13.9542 206.353 14.1179L207.091 13.7905C207.337 14.0361 207.542 14.3089 207.706 14.609L207.214 15.2228C207.323 15.441 207.419 15.6729 207.501 15.9184L208.28 16.0003C208.362 16.3276 208.417 16.655 208.444 16.9824L207.665 17.3098C207.665 17.4189 207.665 17.528 207.665 17.6371C207.638 17.7735 207.61 17.8963 207.583 18.0054ZM205.205 17.3098C205.328 16.4504 204.713 15.632 203.811 15.5092C202.95 15.4274 202.13 16.0412 202.007 16.9005C201.884 17.8008 202.499 18.5783 203.401 18.7011C204.262 18.8239 205.082 18.21 205.205 17.3098Z" fill="white"/>
<g opacity="0.5">
<path d="M211.027 15.1409C210.672 15.1409 210.344 15.0727 210.043 14.9363C209.387 14.568 208.895 13.8724 208.895 13.0539C208.895 12.2764 209.387 11.5398 210.043 11.2125V12.5219C210.043 12.8084 210.166 13.0539 210.33 13.2176C210.494 13.3813 210.74 13.5041 211.027 13.5041C211.519 13.5041 211.97 13.0539 211.97 12.5219V11.2125C212.626 11.5398 213.118 12.2764 213.118 13.0539C213.118 13.8724 212.626 14.568 211.97 14.9363C211.669 15.0727 211.355 15.1409 211.027 15.1409Z" fill="white"/>
<path d="M210.043 20.3789V14.568C210.043 14.036 210.494 13.6268 211.027 13.6268C211.519 13.6268 211.97 14.036 211.97 14.568V20.3789C211.97 20.9108 211.519 21.3201 211.027 21.3201C210.494 21.3201 210.043 20.9108 210.043 20.3789Z" fill="white"/>
</g>
<path d="M169.986 98.7024V89.9043C169.986 86.1805 173.02 83.1114 176.792 83.1114H192.987C196.718 83.1114 199.793 80.0832 199.793 76.3184V69.5664" stroke="black" stroke-width="0.82" stroke-miterlimit="10"/>
<path d="M174.865 97.6794H164.246C162.114 97.6794 160.351 99.3981 160.351 101.567V112.166C160.351 114.293 162.114 116.053 164.246 116.053H174.865C177.038 116.053 178.801 114.293 178.801 112.166V101.567C178.801 99.3981 177.038 97.6794 174.865 97.6794Z" fill="#69008E"/>
<g opacity="0.4">
<path d="M174.865 97.6794H164.246C162.114 97.6794 160.351 99.3981 160.351 101.567V112.166C160.351 114.293 162.114 116.053 164.246 116.053H174.865C177.038 116.053 178.801 114.293 178.801 112.166V101.567C178.801 99.3981 177.038 97.6794 174.865 97.6794Z" fill="white"/>
</g>
<path d="M176.177 111.265C176.177 111.92 175.644 112.452 174.988 112.452C174.332 112.452 173.799 111.92 173.799 111.265C173.799 110.611 174.332 110.079 174.988 110.079C175.644 110.079 176.177 110.611 176.177 111.265Z" fill="white"/>
<path d="M170.929 111.265C170.929 111.92 170.396 112.452 169.74 112.452C169.084 112.452 168.551 111.92 168.551 111.265C168.551 110.611 169.084 110.079 169.74 110.079C170.396 110.079 170.929 110.611 170.929 111.265Z" fill="white"/>
<path d="M165.64 111.265C165.64 111.92 165.107 112.452 164.451 112.452C163.795 112.452 163.262 111.92 163.262 111.265C163.262 110.611 163.795 110.079 164.451 110.079C165.107 110.079 165.64 110.611 165.64 111.265Z" fill="white"/>
<path d="M175.275 113.27H164.123C163.057 113.27 162.196 112.411 162.196 111.306V111.183C162.196 110.12 163.057 109.26 164.123 109.26H175.275C176.341 109.26 177.202 110.12 177.202 111.183V111.306C177.202 112.411 176.341 113.27 175.275 113.27Z" stroke="white" stroke-width="0.738" stroke-linecap="round" stroke-linejoin="round"/>
<path d="M175.152 109.588C174.742 109.588 174.414 109.26 174.414 108.851V106.518L169.699 101.649L167.034 102.549C166.624 102.672 166.214 102.467 166.091 102.058C165.968 101.69 166.173 101.24 166.583 101.117L169.699 100.094C169.945 100.012 170.232 100.094 170.437 100.298L175.685 105.7C175.808 105.864 175.89 106.027 175.89 106.232V108.851C175.89 109.26 175.562 109.588 175.152 109.588Z" fill="white"/>
<path d="M166.583 101.853V103.654" stroke="white" stroke-width="0.738" stroke-linecap="round" stroke-linejoin="round"/>
<path d="M166.009 105.045C165.886 104.922 165.763 104.718 165.763 104.472C165.763 104.022 166.132 103.654 166.583 103.654C167.034 103.654 167.403 104.022 167.403 104.472C167.403 104.677 167.321 104.882 167.198 105.045" stroke="white" stroke-width="0.738" stroke-linecap="round" stroke-linejoin="round"/>
<path d="M170.191 100.83C170.191 100.994 170.068 101.158 169.904 101.158C169.74 101.158 169.617 100.994 169.617 100.83C169.617 100.708 169.74 100.544 169.904 100.544C170.068 100.544 170.191 100.708 170.191 100.83Z" fill="#69008E"/>
<path d="M175.398 106.273C175.398 106.437 175.275 106.559 175.111 106.559C174.947 106.559 174.783 106.437 174.783 106.273C174.783 106.109 174.947 105.986 175.111 105.986C175.275 105.986 175.398 106.109 175.398 106.273Z" fill="#69008E"/>
<path opacity="0.4" d="M167.731 108.483H165.476V106.232H167.731V108.483Z" fill="white"/>
<path d="M184.91 69.5664H146.288C142.516 69.5664 139.482 72.5946 139.482 76.3184V85.1165" stroke="black" stroke-width="0.82" stroke-miterlimit="10"/>
<path d="M145.099 78.61H134.48C132.307 78.61 130.585 80.3696 130.585 82.5385V93.1371C130.585 95.265 132.307 97.0247 134.48 97.0247H145.099C147.272 97.0247 148.994 95.265 148.994 93.1371V82.5385C148.994 80.3696 147.272 78.61 145.099 78.61Z" fill="#69008E"/>
<path opacity="0.4" d="M145.099 78.61H134.48C132.307 78.61 130.585 80.3696 130.585 82.5385V93.1371C130.585 95.265 132.307 97.0247 134.48 97.0247H145.099C147.272 97.0247 148.994 95.265 148.994 93.1371V82.5385C148.994 80.3696 147.272 78.61 145.099 78.61Z" fill="white"/>
<path opacity="0.6" d="M135.997 93.8737H133.701V89.4951H135.997V93.8737Z" fill="white"/>
<path opacity="0.6" d="M142.475 93.8737H140.179V88.0219H142.475V93.8737Z" fill="white"/>
<path d="M139.113 93.8737H136.817V86.5488H139.113V93.8737Z" fill="white"/>
<path d="M145.755 93.8737H143.459V85.0347H145.755V93.8737Z" fill="white"/>
<path d="M177.12 43.8678H161.007C157.235 43.8678 154.201 40.7987 154.201 37.0748V28.2767" stroke="black" stroke-width="0.82" stroke-miterlimit="10"/>
<path d="M161.048 13.4222H150.429C148.297 13.4222 146.534 15.1818 146.534 17.3097V27.9084C146.534 30.0772 148.297 31.7959 150.429 31.7959H161.048C163.221 31.7959 164.943 30.0772 164.943 27.9084V17.3097C164.943 15.1818 163.221 13.4222 161.048 13.4222Z" fill="#69008E"/>
<path opacity="0.4" d="M161.048 13.4222H150.429C148.297 13.4222 146.534 15.1818 146.534 17.3097V27.9084C146.534 30.0772 148.297 31.7959 150.429 31.7959H161.048C163.221 31.7959 164.943 30.0772 164.943 27.9084V17.3097C164.943 15.1818 163.221 13.4222 161.048 13.4222Z" fill="white"/>
<path d="M155.759 17.187C157.358 17.187 158.219 18.4965 158.219 20.0924C158.219 21.6883 157.358 22.9978 155.759 22.9978C154.16 22.9978 153.299 21.6883 153.299 20.0924C153.299 18.4965 154.16 17.187 155.759 17.187Z" fill="white"/>
<path d="M162.155 28.0312H149.322C149.213 28.0312 149.131 28.0039 149.076 27.9493L149.896 25.6986C150.429 24.2664 151.782 23.2843 153.34 23.2843H158.178C159.695 23.2843 161.089 24.2664 161.622 25.6986L162.442 27.9493C162.36 28.0039 162.264 28.0312 162.155 28.0312Z" fill="white"/>
<path d="M138.539 55.6122H187.985" stroke="black" stroke-width="0.82" stroke-miterlimit="10"/>
<path d="M140.138 40.9623H129.519C127.346 40.9623 125.583 42.681 125.583 44.8499V55.4485C125.583 57.5764 127.346 59.3361 129.519 59.3361H140.138C142.27 59.3361 144.033 57.5764 144.033 55.4485V44.8499C144.033 42.681 142.27 40.9623 140.138 40.9623Z" fill="#69008E"/>
<g opacity="0.4">
<path d="M140.138 40.9623H129.519C127.346 40.9623 125.583 42.681 125.583 44.8499V55.4485C125.583 57.5764 127.346 59.3361 129.519 59.3361H140.138C142.27 59.3361 144.033 57.5764 144.033 55.4485V44.8499C144.033 42.681 142.27 40.9623 140.138 40.9623Z" fill="white"/>
</g>
<path d="M135.218 43.3767V45.0545C136.325 45.1363 137.309 45.5864 138.129 46.2412L139.318 45.0545C138.211 44.0723 136.776 43.4585 135.218 43.3767Z" fill="#69008E"/>
<path opacity="0.6" d="M135.218 43.3767V45.0545C136.325 45.1363 137.309 45.5864 138.129 46.2412L139.318 45.0545C138.211 44.0723 136.776 43.4585 135.218 43.3767Z" fill="white"/>
<path d="M134.398 55.203C131.897 55.0393 129.929 53.0341 129.724 50.5379H128.002C128.207 53.9753 130.954 56.7171 134.398 56.9217V55.203Z" fill="#69008E"/>
<path opacity="0.8" d="M134.398 55.203C131.897 55.0393 129.929 53.0341 129.724 50.5379H128.002C128.207 53.9753 130.954 56.7171 134.398 56.9217V55.203Z" fill="white"/>
<path d="M129.724 49.7195C129.929 47.2642 131.897 45.2591 134.398 45.0545V43.3767C130.954 43.5813 128.207 46.323 128.002 49.7195H129.724Z" fill="#69008E"/>
<path opacity="0.7" d="M129.724 49.7195C129.929 47.2642 131.897 45.2591 134.398 45.0545V43.3767C130.954 43.5813 128.207 46.323 128.002 49.7195H129.724Z" fill="white"/>
<path d="M139.892 45.6274L138.703 46.855C139.441 47.7144 139.892 48.9011 139.892 50.1287C139.892 52.8295 137.842 54.9984 135.218 55.203V56.9217C138.785 56.7171 141.614 53.7707 141.614 50.1287C141.614 48.41 140.958 46.855 139.892 45.6274Z" fill="white"/>
<path d="M178.309 40.2257L180.646 40.103L183.885 75.7864H181.425C180.195 75.7046 179.908 74.3133 179.58 71.7352L177.325 46.8141C176.792 40.9214 177.776 40.2257 178.309 40.2257Z" fill="#69008E"/>
<path opacity="0.3" d="M178.309 40.2257L180.646 40.103L183.885 75.7864H181.425C180.195 75.7046 179.908 74.3133 179.58 71.7352L177.325 46.8141C176.792 40.9214 177.776 40.2257 178.309 40.2257Z" fill="black"/>
<path d="M181.999 75.7864H230.461C230.994 75.7864 231.404 75.2954 231.322 74.6816L228.288 41.2078C228.247 40.594 227.755 40.103 227.222 40.103H178.76C178.227 40.103 177.858 40.594 177.899 41.2078L180.933 74.6816C180.974 75.2954 181.466 75.7864 181.999 75.7864Z" fill="#69008E"/>
<path d="M183.844 71.5715H227.878L225.418 43.704H181.425L183.844 71.5715Z" fill="#69008E"/>
<path d="M184.459 73.7404H227.837C229.067 73.7404 229.969 72.7583 229.887 71.5306L227.468 43.8677C227.345 42.6401 226.238 41.6171 225.008 41.6171H181.671C180.4 41.6171 179.498 42.6401 179.621 43.8677L182.04 71.5306C182.163 72.7583 183.229 73.7404 184.459 73.7404Z" fill="#263238"/>
<path d="M183.844 71.5715H227.878L225.418 43.704H181.425L183.844 71.5715Z" fill="#69008E"/>
<path opacity="0.4" d="M183.844 71.5715H227.878L225.418 43.704H181.425L183.844 71.5715Z" fill="white"/>
<path opacity="0.1" d="M196.513 41.658L187.944 73.7404H190.814L199.342 41.658H196.513Z" fill="white"/>
<path opacity="0.1" d="M200.982 41.658L192.372 73.7404H198.112L206.64 41.658H200.982Z" fill="white"/>
<path d="M181.425 43.704L181.63 46.2002H225.664L225.418 43.704H181.425Z" fill="#69008E"/>
<path d="M183.434 44.8498C183.475 45.0954 183.27 45.3409 182.983 45.3409C182.696 45.3409 182.45 45.0954 182.45 44.8498C182.409 44.5634 182.614 44.3179 182.901 44.3179C183.188 44.3179 183.434 44.5634 183.434 44.8498Z" fill="white"/>
<path d="M184.787 44.8498C184.787 45.0954 184.582 45.3409 184.295 45.3409C184.049 45.3409 183.803 45.0954 183.762 44.8498C183.721 44.5634 183.926 44.3179 184.213 44.3179C184.5 44.3179 184.746 44.5634 184.787 44.8498Z" fill="white"/>
<path d="M186.099 44.8498C186.14 45.0954 185.894 45.3409 185.648 45.3409C185.361 45.3409 185.115 45.0954 185.074 44.8498C185.074 44.5634 185.279 44.3179 185.566 44.3179C185.812 44.3179 186.058 44.5634 186.099 44.8498Z" fill="white"/>
<path d="M231.978 78.61H182.573C181.999 78.61 181.548 78.1599 181.548 77.587V76.9322C181.548 76.3593 181.999 75.9092 182.573 75.9092H231.978C232.593 75.9092 233.044 76.3593 233.044 76.9322V77.587C233.044 78.1599 232.593 78.61 231.978 78.61Z" fill="#69008E"/>
<path d="M250.1 78.61H203.237C202.089 78.61 201.146 77.6688 201.146 76.523V75.9092H252.232V76.523C252.232 77.6688 251.289 78.61 250.1 78.61Z" fill="#69008E"/>
<path opacity="0.3" d="M250.1 78.61H203.237C202.089 78.61 201.146 77.6688 201.146 76.523V75.9092H252.232V76.523C252.232 77.6688 251.289 78.61 250.1 78.61Z" fill="white"/>
<path opacity="0.3" d="M222.507 75.9911C222.507 76.7276 223.122 77.3415 223.901 77.3415H230.133C230.871 77.3415 231.486 76.7276 231.486 75.9911H222.507Z" fill="black"/>
</g>
<defs>
<clipPath id="clip0_35_1091">
<rect width="410" height="302" fill="white"/>
</clipPath>
</defs>
</svg>
