<svg width="22" height="21" viewBox="0 0 22 21" fill="none" xmlns="http://www.w3.org/2000/svg">
<path fill-rule="evenodd" clip-rule="evenodd" d="M12.6897 1.46183C11.8223 -0.229572 9.40468 -0.229571 8.53727 1.46183L0.260193 17.6018C-0.536075 19.1544 0.59143 20.9998 2.33639 20.9998H18.8905C20.6355 20.9998 21.763 19.1544 20.9667 17.6018L12.6897 1.46183ZM9.68301 5.68206C9.68301 5.1678 10.0999 4.75091 10.6142 4.75091C11.1284 4.75091 11.5453 5.1678 11.5453 5.68206V13.2544C11.5453 13.7686 11.1284 14.1855 10.6142 14.1855C10.0999 14.1855 9.68301 13.7686 9.68301 13.2544V5.68206ZM11.5453 18.3788C11.5453 18.9578 11.1284 19.4271 10.6142 19.4271C10.0999 19.4271 9.68301 18.9578 9.68301 18.3788C9.68301 17.7999 10.0999 17.3305 10.6142 17.3305C11.1284 17.3305 11.5453 17.7999 11.5453 18.3788Z" fill="#FF2104"/>
</svg>
