<svg width="30" height="30" viewBox="0 0 30 30" fill="none" xmlns="http://www.w3.org/2000/svg">
<path fill-rule="evenodd" clip-rule="evenodd" d="M24.8001 22.7408C24.8001 26.8608 19.1501 27.337 14.9014 27.337L14.5973 27.3368C11.8904 27.3302 5.00012 27.1593 5.00012 22.7158C5.00012 18.6799 10.4231 18.1405 14.6395 18.1201L15.2054 18.1198C17.9122 18.1264 24.8001 18.2973 24.8001 22.7408ZM14.9014 19.9945C9.57512 19.9945 6.87512 20.9095 6.87512 22.7158C6.87512 24.5383 9.57512 25.462 14.9014 25.462C20.2264 25.462 22.9251 24.547 22.9251 22.7408C22.9251 20.9183 20.2264 19.9945 14.9014 19.9945ZM14.9014 2.49902C18.5614 2.49902 21.5376 5.47652 21.5376 9.13652C21.5376 12.7965 18.5614 15.7728 14.9014 15.7728H14.8614C11.2089 15.7615 8.25012 12.7828 8.26258 9.13277C8.26258 5.47652 11.2401 2.49902 14.9014 2.49902ZM14.9014 4.28402C12.2251 4.28402 10.0476 6.46027 10.0476 9.13652C10.0389 11.804 12.2001 13.979 14.8651 13.989L14.9014 14.8815V13.989C17.5764 13.989 19.7526 11.8115 19.7526 9.13652C19.7526 6.46027 17.5764 4.28402 14.9014 4.28402Z" fill="#666666"/>
</svg>
