<svg width="44" height="44" viewBox="0 0 44 44" fill="none" xmlns="http://www.w3.org/2000/svg">
<path opacity="0.4" d="M43.9998 22.0105C43.9998 34.1301 34.1254 43.9998 21.9999 43.9998C9.87448 43.9998 0 34.1301 0 22.0105C0 9.86972 9.87448 0 21.9999 0C34.1254 0 43.9998 9.86972 43.9998 22.0105Z" fill="white"/>
<path d="M30.7998 22.0106C30.7998 22.5666 30.6248 23.1248 30.2748 23.5717C30.2092 23.6594 29.903 24.0208 29.6623 24.256L29.5311 24.3844C27.6936 26.3325 23.1217 29.2623 20.803 30.2011C20.803 30.2225 19.4249 30.7806 18.7686 30.7999H18.6811C17.6749 30.7999 16.7343 30.246 16.253 29.3478C15.9905 28.8538 15.7499 27.421 15.728 27.4018C15.5311 26.1165 15.3999 24.1491 15.3999 21.9892C15.3999 19.7245 15.5312 17.6694 15.7718 16.4077C15.7718 16.3863 16.0124 15.2315 16.1655 14.8466C16.4061 14.2927 16.8436 13.8201 17.3905 13.5207C17.828 13.309 18.2874 13.2 18.7686 13.2C19.2718 13.2235 20.2124 13.5421 20.5843 13.6918C23.0342 14.6328 27.7155 17.7122 29.5092 19.5941C29.8155 19.8935 30.1436 20.2592 30.2311 20.3426C30.603 20.813 30.7998 21.3904 30.7998 22.0106Z" fill="white"/>
</svg>
