<svg width="300" height="301" viewBox="0 0 300 301" fill="none" xmlns="http://www.w3.org/2000/svg">
<g clip-path="url(#clip0_43_1550)">
<path d="M32.1594 230.756C-3.18939 189.356 9.20263 127.999 30.2325 109.398C51.2956 90.7957 84.6843 80.5861 102.558 58.8784C120.465 37.1377 141.063 21.5756 178.704 32.7763C216.379 44.0102 215.814 73.1189 227.11 91.1261C238.405 109.166 288.771 119.211 285.913 165.467C283.056 211.691 251.063 211.625 236.512 223.024C221.927 234.39 198.904 288.213 152.89 288.775C96.4784 289.436 62.093 265.779 32.1594 230.756Z" fill="#EEEEFF"/>
<g opacity="0.3">
<path fill-rule="evenodd" clip-rule="evenodd" d="M167.641 7.89673L169.635 14.7692C171.462 15.2648 173.189 15.9917 174.817 16.8838L181.196 13.3815L186.877 18.9984L183.355 25.2431C184.252 26.829 184.983 28.5471 185.482 30.3313L192.492 32.2807V40.2435L185.482 42.1929C184.983 43.9771 184.252 45.6952 183.355 47.2481L186.877 53.5258L181.196 59.1427L174.817 55.6404C173.189 56.5325 171.462 57.2594 169.635 57.755L167.641 64.6275H159.568L157.575 57.755C155.747 57.2594 153.987 56.5325 152.392 55.6404L146.013 59.1427L140.299 53.5258L143.854 47.2481C142.924 45.6952 142.226 43.9771 141.728 42.1929L134.684 40.2435V32.2807L141.728 30.3313C142.226 28.5471 142.924 26.829 143.854 25.2431L140.299 18.9984L146.013 13.3815L152.392 16.8838C153.987 15.9917 155.747 15.2648 157.575 14.7692L159.568 7.89673H167.641ZM148.472 36.2456C148.472 44.4397 155.282 51.0808 163.588 51.0808C171.894 51.0808 178.671 44.4397 178.671 36.2456C178.671 28.0845 171.894 21.4434 163.588 21.4434C155.282 21.4434 148.472 28.0845 148.472 36.2456Z" stroke="#7371FC" stroke-width="0.664452" stroke-miterlimit="10"/>
</g>
<g opacity="0.3">
<path fill-rule="evenodd" clip-rule="evenodd" d="M282.957 138.506L284.286 143.066C285.482 143.396 286.645 143.859 287.708 144.487L291.96 142.141L295.748 145.874L293.389 150.038C294.02 151.095 294.485 152.251 294.817 153.441L299.502 154.729V160.016L294.817 161.304C294.485 162.494 294.02 163.65 293.389 164.708L295.748 168.871L291.96 172.604L287.708 170.258C286.645 170.853 285.482 171.349 284.286 171.679L282.957 176.239H277.575L276.246 171.679C275.017 171.349 273.887 170.853 272.791 170.258L268.572 172.604L264.751 168.871L267.11 164.708C266.512 163.65 266.047 162.494 265.714 161.304L261.03 160.016V154.729L265.714 153.441C266.047 152.251 266.512 151.095 267.11 150.038L264.751 145.874L268.572 142.141L272.791 144.487C273.887 143.859 275.017 143.396 276.246 143.066L277.575 138.506H282.957ZM270.199 157.373C270.199 162.791 274.718 167.252 280.266 167.252C285.781 167.252 290.299 162.791 290.299 157.373C290.299 151.954 285.781 147.493 280.266 147.493C274.718 147.493 270.199 151.954 270.199 157.373Z" stroke="#7371FC" stroke-width="0.664452" stroke-miterlimit="10"/>
</g>
<g opacity="0.3">
<path fill-rule="evenodd" clip-rule="evenodd" d="M48.0398 150.566L50.9302 160.544C53.5548 161.238 56.0797 162.262 58.4053 163.551L67.6412 158.529L75.8804 166.624L70.7309 175.677C72.0598 177.957 73.0897 180.435 73.8206 183.012L83.9867 185.853V197.319L73.8206 200.16C73.0897 202.737 72.0598 205.215 70.7309 207.495L75.8804 216.548L67.6412 224.643L58.4053 219.621C56.0797 220.91 53.5548 221.934 50.9302 222.661L48.0398 232.606H36.3455L33.4551 222.661C30.8305 221.934 28.3056 220.91 25.98 219.621L16.7774 224.643L8.50496 216.548L13.6545 207.495C12.3256 205.215 11.2957 202.737 10.5648 200.16L0.398651 197.319V185.853L10.5648 183.012C11.2957 180.435 12.3256 177.957 13.6545 175.677L8.50496 166.624L16.7774 158.529L25.98 163.551C28.3056 162.262 30.8305 161.238 33.4551 160.544L36.3455 150.566H48.0398ZM20.3654 191.603C20.3654 203.398 30.1661 213.013 42.1927 213.013C54.2192 213.013 64.0199 203.398 64.0199 191.603C64.0199 179.774 54.2192 170.159 42.1927 170.159C30.1661 170.159 20.3654 179.774 20.3654 191.603Z" stroke="#7371FC" stroke-width="0.664452" stroke-miterlimit="10"/>
</g>
<path d="M140.332 278.5C141.827 275.063 144.651 272.321 148.206 270.834L148.339 270.801L147.841 270.57C144.518 269.083 141.86 266.473 140.399 263.235L140.332 263.103L139.967 263.829C138.538 266.605 136.246 268.885 133.356 270.272L132.359 270.801H132.392C135.814 272.222 138.571 274.799 140.133 278.037L140.332 278.5Z" fill="#69008E"/>
<path d="M150.399 283.191C151.13 281.473 152.558 280.118 154.352 279.392L154.385 279.358L154.153 279.259C152.492 278.499 151.163 277.211 150.432 275.592L150.399 275.493L150.199 275.856C149.502 277.277 148.339 278.4 146.91 279.094L146.412 279.358H146.445C148.139 280.052 149.502 281.341 150.299 282.993L150.399 283.191Z" fill="#7371FC"/>
<path d="M279.435 84.6171C278.306 82.0399 276.179 79.9914 273.522 78.9011L273.455 78.868L273.821 78.7028C276.312 77.6125 278.272 75.6631 279.369 73.2181L279.435 73.119L279.701 73.6476C280.764 75.7292 282.492 77.4473 284.651 78.5046L285.415 78.868L285.349 78.9011C282.791 79.9253 280.731 81.8417 279.601 84.2867L279.435 84.6171Z" fill="#7371FC"/>
<path d="M271.894 88.1524C271.329 86.8638 270.299 85.8396 268.97 85.2779H268.904L269.103 85.1788C270.332 84.6501 271.329 83.6589 271.894 82.4364V82.4034L272.027 82.6677C272.558 83.6919 273.455 84.551 274.518 85.0796L274.884 85.2779C273.588 85.8065 272.558 86.7647 271.993 87.9872L271.894 88.1524Z" fill="#69008E"/>
<path d="M14.0864 142.471C12.9568 139.927 10.8638 137.879 8.17274 136.755L8.10629 136.722L8.47174 136.557C10.9634 135.467 12.9236 133.517 14.0199 131.072L14.0864 130.973L14.3521 131.502C15.4153 133.616 17.1428 135.301 19.3023 136.359L20.0664 136.722L20 136.755C17.4751 137.779 15.4153 139.729 14.2525 142.141L14.0864 142.471Z" fill="#69008E"/>
<path d="M6.57811 146.007C6.01332 144.718 4.9502 143.694 3.6213 143.165L3.58807 143.132L3.75419 143.066C4.98342 142.504 5.9801 141.513 6.54488 140.324L6.57811 140.258L6.711 140.522C7.24256 141.579 8.10635 142.405 9.16947 142.934L9.53492 143.132C8.23924 143.661 7.20934 144.619 6.64455 145.841L6.57811 146.007Z" fill="#69008E"/>
<path d="M216.146 60.5965C221.03 61.2243 225.747 62.8103 230.133 65.057C242.857 71.6321 254.286 80.6522 263.654 91.4565C267.409 95.8178 270.997 100.774 271.595 106.523C272.259 113.065 268.937 119.31 265.747 125.059C263.056 129.883 259.834 135.136 254.485 136.524C250.133 137.647 245.548 135.83 241.595 133.649C226.146 125.092 214.551 110.488 207.907 94.1989C204.684 86.2691 203.455 78.7689 204.02 70.2774C204.186 67.8985 197.907 67.7003 199.601 65.817C201.993 63.1407 209.435 59.7375 216.146 60.5965Z" fill="#69008E"/>
<path d="M255.249 74.8701C254.74 75.5529 254.186 76.1917 253.588 76.7864C251.462 78.8019 248.87 80.2557 246.146 81.346C244.12 82.1721 241.993 82.7998 239.834 82.7668C239.59 82.7668 239.347 82.7558 239.103 82.7337C239.203 83.1302 239.369 83.5267 239.601 83.8902C240.399 84.9805 241.894 85.2448 243.256 85.3109C246.877 85.5422 250.565 84.9144 253.92 83.4937C254.286 83.3285 254.651 83.1633 254.884 82.7998C255.083 82.4694 255.05 82.0399 255.05 81.6434C254.917 79.3306 255.05 77.0838 255.249 74.8701Z" fill="#F8AB73"/>
<path d="M246.146 81.346C248.87 80.2557 251.462 78.8019 253.588 76.7864C254.186 76.1917 254.74 75.5529 255.249 74.8701C255.648 71.2026 256.279 67.6011 256.445 63.8675C252.691 62.9754 246.578 66.8742 243.954 69.3523C240.565 72.5242 238.405 77.1829 238.937 81.7756C238.959 82.106 239.014 82.4254 239.103 82.7337C239.347 82.7558 239.59 82.7668 239.834 82.7668C241.993 82.7998 244.12 82.172 246.146 81.346Z" fill="#F4AF7E"/>
<path d="M271.595 47.2148C273.887 44.0098 276.213 40.7388 277.641 37.0383C279.07 33.3708 279.502 29.1416 277.973 25.5071C276.445 21.8396 272.691 18.9981 268.738 19.3285C269.967 16.8174 268.439 14.0089 266.379 12.0926C264.286 10.1762 261.429 9.31718 258.638 8.88765C250.731 7.66515 242.625 9.31718 234.618 8.98677C231.661 8.85461 228.638 8.42508 226.08 6.9713C223.522 5.48447 221.462 2.84122 221.462 -0.0993958C220.432 2.11433 219.269 4.82366 219.435 7.3017C219.635 9.74671 220.963 12.2578 223.256 13.216C220.963 13.8768 218.538 12.456 217.076 10.6058C215.581 8.72245 214.983 6.31048 214.817 3.93156C212.292 5.51751 210.532 8.16076 209.601 10.9692C208.738 13.5464 208.272 16.2888 208.738 18.965C209.203 21.6413 210.631 24.2185 212.924 25.6723C211.827 25.8705 210.631 25.9697 209.635 25.5401C209.568 27.06 210.432 28.4807 211.595 29.4389C212.757 30.3971 214.219 30.9257 215.681 31.3553C220.664 32.8421 225.914 33.2386 230.997 34.2298C243.056 36.5757 254.219 42.1265 265.681 46.5209C267.276 47.1487 269.934 47.6443 271.595 47.2148Z" fill="#263238"/>
<path d="M259.003 45.4309C257.276 39.3514 258.206 32.7764 260.1 26.763C254.086 32.3799 245.216 33.8006 237.01 32.6772C239.734 31.3556 242.226 29.5053 244.252 27.2586C236.113 26.7299 227.708 28.7124 219.568 27.9524C218.638 30.7609 218.04 33.6685 217.708 36.3778C216.977 42.1929 217.442 48.0742 218.405 53.8563C219.468 60.167 221.229 66.5769 225.249 71.566C229.269 76.5552 235.947 79.8262 242.193 78.2402C244.518 77.6455 246.611 76.4561 248.571 75.0683C255.781 69.9801 260.997 62.546 264.518 54.484C261.927 52.0721 260 48.8341 259.003 45.4309Z" fill="#F8AB74"/>
<path d="M244.252 27.2586C242.226 29.5053 239.734 31.3556 237.01 32.6772C245.216 33.8006 254.086 32.3799 260.1 26.763C258.206 32.7764 257.276 39.3514 259.003 45.4309C260 48.8341 261.927 52.0721 264.518 54.484C264.983 53.4267 265.415 52.3694 265.814 51.3121C267.508 46.6865 268.771 41.8625 268.804 36.9725C268.837 32.0495 267.641 27.0603 264.784 23.0624C260.764 17.4125 253.953 14.3067 247.143 13.0181C243.787 12.3903 240.332 12.159 237.01 12.8198C232.591 13.6789 226.545 16.1569 223.688 19.8575C221.894 22.1703 220.532 25.0118 219.568 27.9524C227.708 28.7124 236.113 26.7299 244.252 27.2586Z" fill="#263238"/>
<path d="M261.13 45.464C260.166 47.975 260.166 50.7835 260.664 53.4267C261.03 55.4753 261.86 57.689 263.754 58.5811C265.149 59.2419 266.877 58.9776 268.206 58.2176C269.568 57.4577 270.598 56.2352 271.462 54.9797C272.791 53.0633 273.854 50.9157 274.12 48.6028C274.385 46.323 273.787 43.845 272.193 42.1599C270.631 40.5079 267.907 39.2854 265.747 40.2766C263.588 41.2678 261.96 43.2833 261.13 45.464Z" fill="#F8AB73"/>
<path d="M271.13 44.6049C270.432 43.7458 269.302 43.4154 268.273 43.5146C267.243 43.6137 266.312 44.2084 265.648 45.0014C264.983 45.7944 264.552 46.7856 264.286 47.7768C264.02 48.8011 263.887 49.8584 263.754 50.9487L263.123 50.6844C263.754 49.8914 264.718 49.2636 265.847 49.3297C266.412 49.3628 266.944 49.6271 267.309 50.0236C267.708 50.4201 267.94 50.9157 268.04 51.4113C268.14 51.9069 268.14 52.4355 267.974 52.9311C267.807 53.4267 267.542 53.8563 267.209 54.1867C266.512 54.9136 265.615 55.3431 264.684 55.5414C265.548 55.2109 266.379 54.7153 266.944 53.9884C267.209 53.625 267.442 53.2285 267.542 52.799C267.641 52.4025 267.608 51.9399 267.508 51.5434C267.276 50.6844 266.611 50.0236 265.814 49.9905C265.017 49.9905 264.219 50.4861 263.688 51.1469L262.89 52.1051L263.023 50.8496C263.156 49.7923 263.289 48.6689 263.588 47.6116C263.92 46.5213 264.419 45.464 265.216 44.6049C265.98 43.7789 267.077 43.1842 268.239 43.1511C269.369 43.1181 270.598 43.6467 271.13 44.6049Z" fill="#263238"/>
<path d="M236.678 38.5915C237.276 41.5982 237.242 44.737 236.711 47.7768C236.146 50.8165 235.083 53.7902 233.488 56.4334L233.422 56.1691C233.854 56.4334 234.319 56.6977 234.817 56.896C235.327 57.0942 235.847 57.2484 236.379 57.3586C235.825 57.3365 235.282 57.2484 234.751 57.0942C234.219 56.9621 233.721 56.7638 233.223 56.5325L233.023 56.4334L233.123 56.2352C234.452 53.4928 235.415 50.6183 235.98 47.6446C236.578 44.671 236.777 41.6643 236.678 38.5915Z" fill="#263238"/>
<path d="M234.618 65.817C235.316 66.2795 236.047 66.5769 236.811 66.643C238.904 66.8412 240.864 64.9579 242.226 63.1737C239.469 62.9755 236.645 63.9667 234.618 65.817Z" fill="#878C8F"/>
<path d="M236.046 62.3807C233.389 62.1164 229.468 59.7375 229.468 59.7375C229.468 59.7375 231.694 63.9667 234.618 65.817C236.644 63.9667 239.468 62.9755 242.226 63.1737C243.422 61.5878 244.186 60.1009 244.186 60.1009C244.186 60.1009 238.704 62.6451 236.046 62.3807Z" fill="#263238"/>
<path d="M229.003 44.7371C229.07 46.1578 228.405 47.3142 227.475 47.3803C226.578 47.4133 225.781 46.323 225.714 44.9023C225.648 43.5146 226.312 42.3251 227.243 42.292C228.14 42.226 228.937 43.3493 229.003 44.7371Z" fill="#474747"/>
<path d="M247.475 45.1005C247.542 46.4882 246.877 47.6776 245.947 47.7107C245.05 47.7768 244.253 46.6534 244.186 45.2657C244.12 43.8449 244.784 42.6555 245.714 42.6224C246.611 42.5894 247.409 43.6797 247.475 45.1005Z" fill="#474747"/>
<path d="M221.96 39.2854C222.193 38.4263 222.591 37.6003 223.123 36.8403C223.389 36.4659 223.688 36.1024 224.02 35.75C224.374 35.4196 224.751 35.1112 225.149 34.8249C225.548 34.5605 225.98 34.2632 226.412 33.9989C226.877 33.7676 227.375 33.6354 227.907 33.6684C228.937 33.7345 230.033 34.131 230.664 35.1553L230.565 35.4526C229.568 36.0143 228.937 36.3447 228.272 36.6091C227.973 36.7412 227.641 36.7743 227.309 36.8073C226.943 36.8073 226.578 36.8403 226.246 36.9395C225.891 37.0496 225.537 37.1818 225.183 37.336C224.85 37.4901 224.507 37.6774 224.153 37.8976C223.488 38.2941 222.857 38.8558 222.226 39.4506L221.96 39.2854Z" fill="#263238"/>
<path d="M250.532 39.4506C249.934 38.8558 249.269 38.2941 248.605 37.8976C248.272 37.6774 247.929 37.4901 247.575 37.336C247.22 37.1818 246.877 37.0496 246.545 36.9395C246.179 36.8403 245.814 36.8073 245.482 36.8073C245.116 36.7743 244.784 36.7412 244.485 36.6091C243.821 36.3447 243.189 36.0143 242.193 35.4526L242.093 35.1553C242.724 34.131 243.821 33.7345 244.851 33.6684C245.382 33.6354 245.88 33.7676 246.346 33.9989C246.811 34.2632 247.209 34.5605 247.608 34.8249C248.029 35.1112 248.405 35.4196 248.738 35.75C249.07 36.1024 249.369 36.4659 249.635 36.8403C250.166 37.6003 250.565 38.4263 250.797 39.2854L250.532 39.4506Z" fill="#263238"/>
<g style="mix-blend-mode:multiply" opacity="0.4">
<path d="M228.073 56.5986C228.073 57.722 226.545 58.6472 224.651 58.6472C222.758 58.6472 221.229 57.722 221.229 56.5986C221.229 55.4753 222.758 54.5832 224.651 54.5832C226.545 54.5832 228.073 55.4753 228.073 56.5986Z" fill="#474747"/>
</g>
<g style="mix-blend-mode:multiply" opacity="0.4">
<path d="M251.761 56.5986C251.761 57.722 250.233 58.6472 248.339 58.6472C246.478 58.6472 244.95 57.722 244.95 56.5986C244.95 55.4753 246.478 54.5832 248.339 54.5832C250.233 54.5832 251.761 55.4753 251.761 56.5986Z" fill="#474747"/>
</g>
<path d="M221.595 6.10352e-05C221.096 2.3129 221.462 4.75791 222.492 6.83947C223.455 8.92103 225.083 10.7383 227.143 11.8286C229.169 12.8859 231.528 13.2163 233.887 13.2824C236.213 13.3154 238.605 13.1502 240.93 12.9189C245.648 12.5555 250.399 11.9277 255.183 12.2912C257.575 12.5225 260 13.0841 261.993 14.4719C262.99 15.1987 263.821 16.0578 264.419 17.1151C265.017 18.1394 265.382 19.3288 265.316 20.5183C265.282 19.3288 264.884 18.2054 264.252 17.2142C263.621 16.223 262.757 15.397 261.794 14.7692C259.834 13.4806 257.475 13.0181 255.149 12.8529C250.432 12.6216 245.748 13.2494 240.997 13.6789C238.638 13.8441 236.246 14.0093 233.854 13.9432C231.495 13.8771 229.003 13.5467 226.844 12.3242C224.718 11.1017 223.09 9.18536 222.159 6.97163C221.229 4.79095 220.93 2.27986 221.595 6.10352e-05Z" fill="#F8AB74"/>
<path d="M262.625 24.5492C262.226 21.8399 260.133 19.6592 257.708 18.6349C255.216 17.5776 252.425 17.5446 249.801 18.0072C247.143 18.4697 244.552 19.3288 241.927 20.0887C239.302 20.8156 236.645 21.4764 233.92 21.8729C231.196 22.2364 228.439 22.3025 225.681 21.939C222.99 21.5425 220.199 20.7826 217.973 19.0645C215.747 17.3794 214.153 14.9674 213.488 12.2911C212.89 9.61486 213.189 6.74032 214.419 4.29532C213.355 6.77337 213.123 9.61486 213.854 12.192C214.551 14.7692 216.146 17.082 218.306 18.6349C220.465 20.1548 223.123 20.9148 225.781 21.2782C228.439 21.6086 231.163 21.5095 233.821 21.146C236.512 20.7826 239.136 20.1548 241.761 19.4279C244.352 18.7341 246.977 17.842 249.701 17.4455C252.425 17.049 255.316 17.1481 257.841 18.3045C259.103 18.8993 260.233 19.7583 261.063 20.8487C261.927 21.906 262.525 23.1946 262.625 24.5492Z" fill="#F8AB74"/>
<path d="M259.834 23.2937C258.97 21.8729 257.442 21.0139 255.88 20.7495C254.319 20.5183 252.691 20.7826 251.229 21.4104C249.734 22.0051 248.405 22.9633 247.176 24.0206C245.947 25.1109 244.784 26.2673 243.522 27.3907C244.551 26.1021 245.581 24.7805 246.777 23.6241C247.973 22.4346 249.336 21.3773 250.93 20.7165C251.728 20.4191 252.558 20.1879 253.422 20.0557C254.286 19.9896 255.183 19.9896 256.013 20.1879C256.844 20.3861 257.641 20.7826 258.339 21.2782C259.003 21.8399 259.535 22.5007 259.834 23.2937Z" fill="#F8AB74"/>
<path d="M269.169 23.1615C270.1 22.8311 271.196 22.8972 272.126 23.2607C273.09 23.6241 273.92 24.2849 274.585 25.1109C275.847 26.7299 276.379 28.8115 276.445 30.7939C276.478 32.8424 276.046 34.8579 275.282 36.6751C274.884 37.6003 274.441 38.4924 273.953 39.3514C273.422 40.2105 272.857 41.0365 272.259 41.7964C272.724 40.9374 273.223 40.0783 273.621 39.1862C274.064 38.3052 274.441 37.402 274.751 36.4769C275.382 34.6597 275.747 32.7433 275.681 30.827C275.648 28.9436 275.183 26.9942 274.12 25.4413C273.588 24.6484 272.857 23.9876 271.993 23.5911C271.13 23.1615 270.133 22.9963 269.169 23.1615Z" fill="#F8AB74"/>
<path d="M263.953 26.3004C264.651 26.1352 265.415 26.3004 266.046 26.6308C266.711 26.9612 267.242 27.4898 267.641 28.1176C268.472 29.3071 268.904 30.6948 269.203 32.0825C269.468 33.4702 269.502 34.924 269.335 36.3117C269.247 37.0165 269.092 37.7104 268.87 38.3932C268.76 38.7236 268.649 39.0541 268.538 39.3845C268.472 39.5497 268.405 39.7149 268.272 39.8801C268.173 40.0122 267.973 40.1444 267.807 40.0453C268.007 40.1114 268.106 39.9461 268.206 39.814C268.272 39.6818 268.306 39.5166 268.339 39.3184C268.405 38.988 268.472 38.6576 268.538 38.3272C268.638 37.6333 268.704 36.9395 268.737 36.2786C268.804 34.924 268.737 33.5363 268.472 32.2146C268.206 30.893 267.84 29.5714 267.176 28.415C266.844 27.8533 266.412 27.3246 265.847 26.9281C265.316 26.5317 264.651 26.3004 263.953 26.3004Z" fill="#F8AB74"/>
<path d="M119.369 136.524L36.0465 147.196L24.3522 57.1603L107.674 46.4552L119.369 136.524Z" fill="#EEEEFF"/>
<path d="M107.674 46.4551L24.3522 57.1603L21.8273 37.5342L105.116 26.829L107.674 46.4551Z" fill="#69008E"/>
<path d="M36.0464 147.196L24.7175 148.65L13.0232 58.6141L24.3521 57.1603L36.0464 147.196Z" fill="#802D9D"/>
<path d="M24.3522 57.1603L13.0233 58.6141L10.4652 38.988L21.8273 37.5342L24.3522 57.1603Z" fill="#69008E"/>
<path d="M45.7475 78.3393L33.0232 79.9583L30.7973 62.7772L43.5216 61.1252L45.7475 78.3393Z" fill="#FEFFFD"/>
<path d="M60.8638 76.39L48.1395 78.0089L45.9136 60.8278L58.6379 59.2088L60.8638 76.39Z" fill="#FEFFFD"/>
<path d="M75.98 74.4405L63.2558 76.0926L61.0299 58.8784L73.7541 57.2594L75.98 74.4405Z" fill="#FEFFFD"/>
<path d="M91.0963 72.5242L78.3721 74.1432L76.1461 56.9621L88.8704 55.3101L91.0963 72.5242Z" fill="#FEFFFD"/>
<path d="M106.213 70.5748L93.4883 72.1938L91.2292 55.0127L103.987 53.3937L106.213 70.5748Z" fill="#FEFFFD"/>
<path d="M48.2724 97.7672L35.5481 99.3862L33.3222 82.2051L46.0465 80.5861L48.2724 97.7672Z" fill="#FEFFFD"/>
<path d="M63.3887 95.8178L50.6645 97.4699L48.4385 80.2557L61.1628 78.6367L63.3887 95.8178Z" fill="#FEFFFD"/>
<path d="M78.505 93.8684L65.7807 95.5205L63.5548 78.3393L76.2791 76.6873L78.505 93.8684Z" fill="#FEFFFD"/>
<path d="M93.6213 91.9521L80.897 93.5711L78.6379 76.39L91.3954 74.771L93.6213 91.9521Z" fill="#FEFFFD"/>
<path d="M108.738 90.0027L95.9801 91.6547L93.7542 74.4406L106.478 72.8216L108.738 90.0027Z" fill="#FEFFFD"/>
<path d="M50.7974 117.195L38.0731 118.847L35.8472 101.633L48.5715 100.014L50.7974 117.195Z" fill="#FEFFFD"/>
<path d="M65.9136 115.246L53.1894 116.898L50.9635 99.7166L63.6877 98.0646L65.9136 115.246Z" fill="#FEFFFD"/>
<path d="M81.0299 113.329L68.3056 114.948L66.0797 97.7672L78.804 96.1152L81.0299 113.329Z" fill="#FEFFFD"/>
<path d="M96.1462 111.38L83.3887 113.032L81.1628 95.8178L93.9203 94.1989L96.1462 111.38Z" fill="#FEFFFD"/>
<path d="M111.262 109.431L98.505 111.083L96.2791 93.9015L109.003 92.2495L111.262 109.431Z" fill="#FEFFFD"/>
<path d="M53.3223 136.623L40.598 138.275L38.3721 121.094L51.0964 119.442L53.3223 136.623Z" fill="#FEFFFD"/>
<path d="M68.4386 134.707L55.7143 136.326L53.4884 119.144L66.2127 117.492L68.4386 134.707Z" fill="#FEFFFD"/>
<path d="M83.5548 132.757L70.8306 134.376L68.5714 117.195L81.3289 115.576L83.5548 132.757Z" fill="#FEFFFD"/>
<path d="M98.6711 130.808L85.9136 132.46L83.6877 115.246L96.412 113.627L98.6711 130.808Z" fill="#FEFFFD"/>
<path d="M113.754 128.892L101.03 130.51L98.804 113.329L111.528 111.677L113.754 128.892Z" fill="#FEFFFD"/>
<path d="M17.1761 38.1289L16.4452 32.5451C15.9801 29.0428 18.4718 25.8378 21.9934 25.4083L25.8804 24.9127C29.402 24.4501 32.6246 26.9282 33.0897 30.3974L34.3189 40.0122C34.7841 43.5145 32.2924 46.7195 28.7708 47.1821" stroke="#69008E" stroke-width="2.69103" stroke-linecap="round" stroke-linejoin="round"/>
<path d="M28.2724 36.7082L27.5748 31.1243C27.1097 27.622 29.6013 24.4171 33.1229 23.9545L37.01 23.4589C40.5316 23.0294 43.721 25.4744 44.1861 28.9767L45.4485 38.5915C45.8804 42.0938 43.422 45.2987 39.9004 45.7283" stroke="#69008E" stroke-width="2.69103" stroke-linecap="round" stroke-linejoin="round"/>
<path d="M39.4019 35.2544L38.671 29.7035C38.2392 26.2012 40.6976 22.9963 44.2192 22.5337L48.1063 22.0381C51.6279 21.6086 54.8505 24.0536 55.3156 27.5559L56.5448 37.1707C57.0099 40.673 54.5182 43.878 50.9966 44.3075" stroke="#69008E" stroke-width="2.69103" stroke-linecap="round" stroke-linejoin="round"/>
<path d="M50.5316 33.8336L49.8007 28.2498C49.3356 24.7805 51.8273 21.5755 55.3489 21.113L59.2359 20.6174C62.7575 20.1548 65.9801 22.6328 66.412 26.1352L67.6745 35.75C68.1063 39.2523 65.6479 42.4242 62.1263 42.8867" stroke="#69008E" stroke-width="2.69103" stroke-linecap="round" stroke-linejoin="round"/>
<path d="M61.6279 32.4129L60.897 26.829C60.4651 23.3267 62.9236 20.1548 66.4452 19.6923L70.3655 19.1967C73.8538 18.7341 77.0764 21.2121 77.5415 24.7144L78.7708 34.3293C79.2359 37.7985 76.7442 41.0035 73.2558 41.466" stroke="#69008E" stroke-width="2.69103" stroke-linecap="round" stroke-linejoin="round"/>
<path d="M72.7575 30.9922L72.0266 25.4083C71.5615 21.906 74.0532 18.701 77.5748 18.2715L81.4618 17.7759C84.9834 17.3133 88.206 19.7914 88.6379 23.2937L89.9003 32.8755C90.3654 36.3778 87.8738 39.5827 84.3522 40.0453" stroke="#69008E" stroke-width="2.69103" stroke-linecap="round" stroke-linejoin="round"/>
<path d="M83.8538 29.5714L83.1229 23.9875C82.691 20.4852 85.1827 17.2803 88.6711 16.8508L92.5914 16.3552C96.113 15.8926 99.3023 18.3706 99.7675 21.8399L101.03 31.4547C101.462 34.957 98.9701 38.162 95.4817 38.6245" stroke="#69008E" stroke-width="2.69103" stroke-linecap="round" stroke-linejoin="round"/>
<path d="M245.183 153.209C245.183 209.147 199.601 254.479 143.355 254.479C87.1429 254.479 41.5615 209.147 41.5615 153.209C41.5615 97.3047 87.1429 51.9729 143.355 51.9729C199.601 51.9729 245.183 97.3047 245.183 153.209Z" fill="#69008E"/>
<path d="M249.967 153.209C249.967 209.147 204.385 254.479 148.173 254.479C91.927 254.479 46.3456 209.147 46.3456 153.209C46.3456 97.3047 91.927 51.9729 148.173 51.9729C204.385 51.9729 249.967 97.3047 249.967 153.209Z" fill="#7E1E9F"/>
<path d="M164.02 203.233C182.425 195.865 199.07 183.574 209.9 167.086C222.458 147.89 226.246 124.662 225.149 101.534C208.472 76.9847 180.199 60.8278 148.173 60.8278C96.8438 60.8278 55.2491 102.195 55.2491 153.209C55.2491 170.126 59.8339 185.986 67.8073 199.631C97.6412 213.641 133.355 215.524 164.02 203.233Z" fill="white"/>
<path d="M225.149 101.534C226.246 124.662 222.458 147.89 209.9 167.086C199.07 183.574 182.425 195.865 164.02 203.233C133.355 215.524 97.6411 213.641 67.8073 199.631C83.887 227.121 113.854 245.624 148.173 245.624C199.468 245.624 241.063 204.257 241.063 153.209C241.063 134.079 235.183 116.27 225.149 101.534Z" fill="#EEEEFF"/>
<path d="M147.143 154.432L103.422 115.675L149.169 152.02L147.143 154.432Z" fill="#69008E"/>
<path d="M149.9 152.119L170.066 225.767L146.412 154.333L149.9 152.119Z" fill="#69008E"/>
<path d="M155.05 153.209C155.05 157.009 151.96 160.082 148.173 160.082C144.352 160.082 141.262 157.009 141.262 153.209C141.262 149.443 144.352 146.37 148.173 146.37C151.96 146.37 155.05 149.443 155.05 153.209Z" fill="#FE814B"/>
<path d="M148.173 60.8278V80.487" stroke="#69008E" stroke-width="2.59136" stroke-linecap="round" stroke-linejoin="round"/>
<path d="M148.173 225.965V245.624" stroke="#69008E" stroke-width="2.59136" stroke-linecap="round" stroke-linejoin="round"/>
<path d="M241.063 153.209H221.296" stroke="#69008E" stroke-width="2.59136" stroke-linecap="round" stroke-linejoin="round"/>
<path d="M75.0166 153.209H55.2491" stroke="#69008E" stroke-width="2.59136" stroke-linecap="round" stroke-linejoin="round"/>
<path d="M69.7342 103.681L86.412 114.221" stroke="#69008E" stroke-width="2.59136" stroke-linecap="round" stroke-linejoin="round"/>
<path d="M209.9 192.23L226.578 202.77" stroke="#69008E" stroke-width="2.59136" stroke-linecap="round" stroke-linejoin="round"/>
<path d="M197.973 75.2335L187.375 91.8199" stroke="#69008E" stroke-width="2.59136" stroke-linecap="round" stroke-linejoin="round"/>
<path d="M108.937 214.632L98.3389 231.218" stroke="#69008E" stroke-width="2.59136" stroke-linecap="round" stroke-linejoin="round"/>
<path d="M226.578 103.681L209.9 114.221" stroke="#69008E" stroke-width="2.59136" stroke-linecap="round" stroke-linejoin="round"/>
<path d="M86.412 192.23L69.7342 202.77" stroke="#69008E" stroke-width="2.59136" stroke-linecap="round" stroke-linejoin="round"/>
<path d="M98.3389 75.2335L108.937 91.8199" stroke="#69008E" stroke-width="2.59136" stroke-linecap="round" stroke-linejoin="round"/>
<path d="M187.375 214.632L197.973 231.218" stroke="#69008E" stroke-width="2.59136" stroke-linecap="round" stroke-linejoin="round"/>
<path d="M115.482 253.223L25.8471 286.991L7.14282 237.992L96.8106 204.191L115.482 253.223Z" fill="#F8AB74"/>
<path d="M61.3289 245.591L7.14282 237.992L63.5216 251.373L96.8106 204.191L61.3289 245.591Z" fill="#FE814B"/>
<path d="M252.857 300.504L169.269 280.911L194.718 173.662L278.306 193.288L252.857 300.504Z" fill="#69008E"/>
<path d="M254.385 300.868L170.797 281.275L196.246 174.025L279.834 193.651L254.385 300.868Z" fill="#69008E"/>
<path d="M249.037 293.037L179.136 276.616L200.631 186.019L270.532 202.407L249.037 293.037Z" fill="white"/>
<path d="M253.256 175.38L228.239 169.532C224.219 168.573 220.199 171.051 219.236 175.049L218.272 179.212L257.84 188.497L258.837 184.334C259.767 180.336 257.276 176.338 253.256 175.38Z" fill="#69008E"/>
<path d="M217.243 203.993C216.379 207.693 212.658 209.973 208.937 209.081C205.249 208.222 202.924 204.521 203.821 200.821C204.684 197.153 208.405 194.841 212.126 195.733C215.847 196.592 218.14 200.292 217.243 203.993Z" fill="#EEEEFE"/>
<path d="M207.309 199.499L210.199 204.158L218.505 199.037" stroke="#FE814B" stroke-width="2.12625" stroke-linecap="round" stroke-linejoin="round"/>
<path d="M223.987 201.151L262.027 210.105" stroke="#69008E" stroke-width="2.12625" stroke-linecap="round" stroke-linejoin="round"/>
<path d="M222.99 205.348L261.03 214.268" stroke="#69008E" stroke-width="2.12625" stroke-linecap="round" stroke-linejoin="round"/>
<path d="M221.993 209.511L260.033 218.432" stroke="#69008E" stroke-width="2.12625" stroke-linecap="round" stroke-linejoin="round"/>
<path d="M212.193 225.271C211.329 228.971 207.608 231.251 203.887 230.359C200.199 229.5 197.874 225.8 198.771 222.099C199.634 218.432 203.355 216.119 207.076 217.011C210.797 217.87 213.09 221.57 212.193 225.271Z" fill="#EEEEFE"/>
<path d="M202.259 220.777L205.149 225.436L213.455 220.315" stroke="#FE814B" stroke-width="2.12625" stroke-linecap="round" stroke-linejoin="round"/>
<path d="M218.937 222.43L256.977 231.35" stroke="#69008E" stroke-width="2.12625" stroke-linecap="round" stroke-linejoin="round"/>
<path d="M217.94 226.626L255.98 235.547" stroke="#69008E" stroke-width="2.12625" stroke-linecap="round" stroke-linejoin="round"/>
<path d="M216.944 230.789L254.983 239.71" stroke="#69008E" stroke-width="2.12625" stroke-linecap="round" stroke-linejoin="round"/>
<path d="M207.143 246.549C206.279 250.25 202.558 252.53 198.837 251.637C195.149 250.778 192.824 247.078 193.721 243.377C194.585 239.71 198.306 237.397 202.027 238.289C205.747 239.148 208.04 242.849 207.143 246.549Z" fill="#EEEEFE"/>
<path d="M197.209 242.056L200.1 246.714L208.405 241.593" stroke="#FE814B" stroke-width="2.12625" stroke-linecap="round" stroke-linejoin="round"/>
<path d="M213.887 243.708L251.927 252.629" stroke="#69008E" stroke-width="2.12625" stroke-linecap="round" stroke-linejoin="round"/>
<path d="M212.89 247.904L250.93 256.825" stroke="#69008E" stroke-width="2.12625" stroke-linecap="round" stroke-linejoin="round"/>
<path d="M211.894 252.067L249.934 260.988" stroke="#69008E" stroke-width="2.12625" stroke-linecap="round" stroke-linejoin="round"/>
<g style="mix-blend-mode:multiply">
<path d="M262.326 196.129L210.797 184.036C209.169 183.673 208.173 182.054 208.538 180.435L209.336 177.098L266.777 190.578L265.98 193.915C265.581 195.534 263.953 196.526 262.326 196.129Z" fill="#69008E"/>
</g>
<path d="M202.259 267.86C201.395 271.561 197.674 273.841 193.953 272.949C190.233 272.089 187.94 268.389 188.804 264.688C189.701 261.021 193.422 258.741 197.143 259.6C200.831 260.459 203.123 264.16 202.259 267.86Z" fill="#EEEEFE"/>
<path d="M192.326 263.367L195.216 268.026L203.488 262.904" stroke="#FE814B" stroke-width="2.12625" stroke-linecap="round" stroke-linejoin="round"/>
<path d="M209.003 265.019L247.043 273.973" stroke="#69008E" stroke-width="2.12625" stroke-linecap="round" stroke-linejoin="round"/>
<path d="M208.007 269.215L246.047 278.136" stroke="#69008E" stroke-width="2.12625" stroke-linecap="round" stroke-linejoin="round"/>
<path d="M207.01 273.378L245.05 282.299" stroke="#69008E" stroke-width="2.12625" stroke-linecap="round" stroke-linejoin="round"/>
<path d="M255.249 95.983C254.352 98.1637 253.256 100.245 252.093 102.294C250.93 104.309 249.701 106.325 248.272 108.208C249.169 106.027 250.299 103.979 251.462 101.93C252.624 99.8818 253.854 97.8994 255.249 95.983Z" fill="white"/>
<path d="M265.05 126.281C265.05 126.281 258.339 136.755 251.728 144.52C245.083 152.317 235.714 161.073 235.714 161.073L185.648 140.224L193.023 123.175L229.668 134.442L250.764 104.706L265.05 126.281Z" fill="#69008E"/>
<path d="M185.116 119.871L193.023 123.175L187.841 135.169L182.691 133.451L171.362 133.914L168.04 132.262C166.844 131.634 166.379 130.147 167.043 128.958L167.94 127.339L167.143 126.711C165.98 125.819 165.914 124.134 166.944 123.142L167.841 122.283L166.611 120.631C165.748 119.442 166.146 117.79 167.442 117.096L168.671 116.435L168.272 114.255C168.04 113.032 168.837 111.81 170.066 111.512C171.661 111.149 173.355 111.479 174.684 112.404L185.116 119.871Z" fill="#F8AB72"/>
<path d="M185.249 120.664C182.857 115.543 180.399 110.29 179.967 104.673C179.967 104.408 179.934 104.078 179.701 103.946C179.568 103.847 179.402 103.814 179.236 103.814C177.907 103.814 176.678 104.772 176.213 106.027C175.748 107.25 175.914 108.671 176.478 109.86C176.611 110.124 176.744 110.389 176.744 110.686C176.744 110.95 176.611 111.182 176.478 111.38C176.058 112.107 175.637 112.845 175.216 113.594C177.841 116.733 181.362 119.31 185.249 120.664Z" fill="#F8AB72"/>
<path d="M180.664 117.261C180.199 116.964 179.734 116.633 179.302 116.303C178.837 116.006 178.405 115.642 177.973 115.279C177.575 114.948 177.143 114.585 176.744 114.188C176.312 113.825 175.914 113.428 175.548 113.032C176.013 113.329 176.478 113.66 176.91 113.99C177.375 114.321 177.807 114.651 178.239 115.014C178.638 115.378 179.07 115.708 179.468 116.105C179.9 116.468 180.299 116.865 180.664 117.261Z" fill="#69008E"/>
<path d="M178.073 50.0896L190.166 54.7484C191.761 55.3431 192.724 56.929 192.558 58.5811L191.96 64.7266L187.774 71.566C187.774 71.566 186.046 71.0704 186.644 69.1541C187.276 67.2708 189.336 62.1164 189.336 62.1164V58.515C189.336 58.515 187.342 66.8743 185.448 68.4272C183.555 69.9801 176.711 66.9403 174.85 65.4205C173.953 64.6936 175.548 62.3477 175.781 58.8124C176.013 55.1118 174.95 50.2548 178.073 50.0896Z" fill="#F8AB74"/>
<path d="M185.814 52.8981C186.013 54.2858 186.046 55.7065 185.947 57.0942C185.88 58.515 185.615 59.9027 185.249 61.2573C184.85 62.612 184.385 63.9336 183.754 65.1892C183.123 66.4447 182.359 67.6672 181.495 68.7576C182.226 67.5681 182.924 66.3456 183.488 65.0901C184.053 63.8015 184.551 62.5129 184.884 61.1582C185.282 59.8366 185.515 58.4489 185.681 57.0612C185.847 55.7065 185.88 54.2858 185.814 52.8981Z" fill="#69008E"/>
<path d="M181.196 51.3121C181.329 52.6668 181.329 54.0545 181.229 55.4092C181.096 56.7969 180.864 58.1515 180.565 59.4732C180.233 60.8278 179.801 62.1495 179.269 63.405C179.003 64.0438 178.715 64.6605 178.405 65.2553C178.239 65.5526 178.073 65.8831 177.907 66.1804C177.708 66.4447 177.475 66.7421 177.143 66.8412C177.442 66.7091 177.641 66.4117 177.807 66.1143C177.973 65.817 178.106 65.4866 178.239 65.1892C178.505 64.5724 178.76 63.9447 179.003 63.3059C179.468 62.0173 179.9 60.7287 180.199 59.4071C180.532 58.0855 180.764 56.7308 180.93 55.4092C181.096 54.0545 181.196 52.6668 181.196 51.3121Z" fill="#69008E"/>
</g>
<defs>
<clipPath id="clip0_43_1550">
<rect width="300" height="301" fill="white"/>
</clipPath>
</defs>
</svg>
