<svg width="30" height="30" viewBox="0 0 30 30" fill="none" xmlns="http://www.w3.org/2000/svg">
<path d="M18.7503 23.75C18.7503 25.8211 17.0714 27.5 15.0003 27.5C12.9292 27.5 11.2503 25.8211 11.2503 23.75M17.2459 7.7982C17.7903 7.2358 18.1253 6.46952 18.1253 5.625C18.1253 3.89911 16.7262 2.5 15.0003 2.5C13.2744 2.5 11.8753 3.89911 11.8753 5.625C11.8753 6.46952 12.2103 7.2358 12.7547 7.7982M3.18384 10.4037C3.1659 8.58951 4.14401 6.89539 5.7241 6.00383M26.8168 10.4037C26.8347 8.58951 25.8566 6.89539 24.2765 6.00383M22.5003 14C22.5003 12.2761 21.7101 10.6228 20.3036 9.40381C18.8971 8.18482 16.9894 7.5 15.0003 7.5C13.0112 7.5 11.1035 8.18482 9.69701 9.40381C8.29049 10.6228 7.50031 12.2761 7.50031 14C7.50031 16.8523 6.79297 18.9382 5.91039 20.4308C4.90448 22.132 4.40153 22.9826 4.42139 23.1858C4.44412 23.4183 4.48596 23.4916 4.67449 23.6295C4.83927 23.75 5.6672 23.75 7.32305 23.75H22.6776C24.3334 23.75 25.1613 23.75 25.3261 23.6295C25.5147 23.4916 25.5565 23.4183 25.5792 23.1858C25.5991 22.9826 25.0961 22.132 24.0902 20.4308C23.2076 18.9382 22.5003 16.8523 22.5003 14Z" stroke="white" stroke-width="1.875" stroke-linecap="round" stroke-linejoin="round"/>
</svg>
