<svg width="30" height="30" viewBox="0 0 30 30" fill="none" xmlns="http://www.w3.org/2000/svg">
<path fill-rule="evenodd" clip-rule="evenodd" d="M20.4176 2.5C24.6539 2.5 27.5001 5.4725 27.5001 9.895V20.105C27.5001 24.5275 24.6539 27.5 20.4151 27.5H9.58012C5.34512 27.5 2.50012 24.5275 2.50012 20.105V9.895C2.50012 5.4725 5.34512 2.5 9.58012 2.5H20.4176ZM20.4176 4.375H9.58012C6.41887 4.375 4.37512 6.54125 4.37512 9.895V20.105C4.37512 23.4587 6.41887 25.625 9.58012 25.625H20.4151C23.5801 25.625 25.6251 23.4587 25.6251 20.105V9.895C25.6251 6.54125 23.5801 4.375 20.4176 4.375ZM11.0461 11.748C12.5152 11.749 13.7569 12.725 14.1605 14.0612L21.2622 14.0619C21.7797 14.0619 22.1997 14.4819 22.1997 14.9994V17.3156C22.1997 17.8331 21.7797 18.2531 21.2622 18.2531C20.7447 18.2531 20.3247 17.8331 20.3247 17.3156V15.9369L18.6639 15.9362L18.6645 17.3156C18.6645 17.8331 18.2445 18.2531 17.727 18.2531C17.2095 18.2531 16.7895 17.8331 16.7895 17.3156L16.7889 15.9362L14.161 15.9375C13.7577 17.2751 12.5141 18.253 11.0461 18.253C9.25237 18.253 7.79362 16.793 7.79362 15.0005C7.79362 13.2067 9.25237 11.748 11.0461 11.748ZM11.0486 13.623C10.2861 13.623 9.66862 14.2405 9.66862 15.0005C9.66862 15.7605 10.2861 16.378 11.0461 16.378C11.8049 16.378 12.4236 15.7605 12.4236 15.0005C12.4236 14.2417 11.8061 13.6243 11.0486 13.623Z" fill="#666666"/>
</svg>
