<svg width="32" height="32" viewBox="0 0 32 32" fill="none" xmlns="http://www.w3.org/2000/svg">
<path d="M27.8874 14.919H17.0804V4.11195C17.0804 3.82533 16.9665 3.55045 16.7638 3.34778C16.5612 3.14511 16.2863 3.03125 15.9997 3.03125V3.03125C15.7131 3.03125 15.4382 3.14511 15.2355 3.34778C15.0328 3.55045 14.919 3.82533 14.919 4.11195V14.919H4.11195C3.82533 14.919 3.55045 15.0328 3.34778 15.2355C3.14511 15.4382 3.03125 15.7131 3.03125 15.9997V15.9997C3.03125 16.2863 3.14511 16.5612 3.34778 16.7638C3.55045 16.9665 3.82533 17.0804 4.11195 17.0804H14.919V27.8874C14.919 28.174 15.0328 28.4489 15.2355 28.6516C15.4382 28.8542 15.7131 28.9681 15.9997 28.9681C16.2863 28.9681 16.5612 28.8542 16.7638 28.6516C16.9665 28.4489 17.0804 28.174 17.0804 27.8874V17.0804H27.8874C28.174 17.0804 28.4489 16.9665 28.6516 16.7638C28.8542 16.5612 28.9681 16.2863 28.9681 15.9997C28.9681 15.7131 28.8542 15.4382 28.6516 15.2355C28.4489 15.0328 28.174 14.919 27.8874 14.919Z" fill="white"/>
</svg>
