<svg width="32" height="32" viewBox="0 0 32 32" fill="none" xmlns="http://www.w3.org/2000/svg">
<path d="M23.8503 14.5288C25.7103 14.2675 27.1423 12.6728 27.1463 10.7408C27.1463 8.83681 25.7583 7.25814 23.9383 6.95947" stroke="#A7A5A6" stroke-width="2" stroke-linecap="round" stroke-linejoin="round"/>
<path d="M26.3049 19.0005C28.1063 19.2698 29.3636 19.9005 29.3636 21.2005C29.3636 22.0952 28.7716 22.6765 27.8143 23.0418" stroke="#A7A5A6" stroke-width="2" stroke-linecap="round" stroke-linejoin="round"/>
<path fill-rule="evenodd" clip-rule="evenodd" d="M15.8493 19.5518C11.5639 19.5518 7.90393 20.2011 7.90393 22.7944C7.90393 25.3864 11.5413 26.0544 15.8493 26.0544C20.1346 26.0544 23.7933 25.4118 23.7933 22.8171C23.7933 20.2224 20.1573 19.5518 15.8493 19.5518Z" stroke="#A7A5A6" stroke-width="2" stroke-linecap="round" stroke-linejoin="round"/>
<path fill-rule="evenodd" clip-rule="evenodd" d="M15.8493 15.8505C18.6613 15.8505 20.9413 13.5718 20.9413 10.7585C20.9413 7.9465 18.6613 5.6665 15.8493 5.6665C13.0373 5.6665 10.7572 7.9465 10.7572 10.7585C10.7466 13.5612 13.0093 15.8412 15.8119 15.8505H15.8493Z" stroke="#A7A5A6" stroke-width="2" stroke-linecap="round" stroke-linejoin="round"/>
<path d="M7.84666 14.5288C5.98533 14.2675 4.55466 12.6728 4.55066 10.7408C4.55066 8.83681 5.93866 7.25814 7.75866 6.95947" stroke="#A7A5A6" stroke-width="2" stroke-linecap="round" stroke-linejoin="round"/>
<path d="M5.39192 19.0005C3.59059 19.2698 2.33325 19.9005 2.33325 21.2005C2.33325 22.0952 2.92525 22.6765 3.88259 23.0418" stroke="#A7A5A6" stroke-width="2" stroke-linecap="round" stroke-linejoin="round"/>
</svg>
