<svg width="32" height="32" viewBox="0 0 32 32" fill="none" xmlns="http://www.w3.org/2000/svg">
<path fill-rule="evenodd" clip-rule="evenodd" d="M25.4284 25.4263C21.3536 29.5016 15.3197 30.3821 10.3818 28.0985C9.6529 27.805 9.05527 27.5678 8.48712 27.5678C6.90461 27.5772 4.93485 29.1117 3.91111 28.0891C2.88736 27.0653 4.42298 25.094 4.42298 23.5019C4.42298 22.9337 4.19518 22.3467 3.90173 21.6163C1.61707 16.6793 2.49877 10.6434 6.57364 6.56945C11.7754 1.36575 20.2266 1.36575 25.4284 6.56811C30.6396 11.7798 30.6302 20.224 25.4284 25.4263Z" stroke="white" stroke-width="2" stroke-linecap="round" stroke-linejoin="round"/>
<path d="M21.2524 16.5503H21.2644" stroke="white" stroke-width="2.66667" stroke-linecap="round" stroke-linejoin="round"/>
<path d="M15.9071 16.5503H15.9191" stroke="white" stroke-width="2.66667" stroke-linecap="round" stroke-linejoin="round"/>
<path d="M10.5618 16.5503H10.5738" stroke="white" stroke-width="2.66667" stroke-linecap="round" stroke-linejoin="round"/>
</svg>
