<svg width="30" height="30" viewBox="0 0 30 30" fill="none" xmlns="http://www.w3.org/2000/svg">
<path fill-rule="evenodd" clip-rule="evenodd" d="M24.2307 10.8996C24.747 10.9421 25.132 11.3934 25.0907 11.9096C25.0833 11.9946 24.4058 20.3834 24.0158 23.9021C23.7733 26.0859 22.3307 27.4146 20.1532 27.4546C18.487 27.4834 16.8795 27.4996 15.3083 27.4996C13.6145 27.4996 11.9633 27.4809 10.3295 27.4471C8.2395 27.4059 6.79325 26.0509 6.557 23.9109C6.16325 20.3609 5.4895 11.9934 5.48325 11.9096C5.44075 11.3934 5.82575 10.9409 6.342 10.8996C6.85075 10.8859 7.31075 11.2434 7.352 11.7584C7.35599 11.8126 7.63143 15.2297 7.93158 18.6105L7.99186 19.2852C8.14304 20.9657 8.29628 22.5804 8.42075 23.7046C8.5545 24.9209 9.21075 25.5484 10.3682 25.5721C13.4932 25.6384 16.682 25.6421 20.1195 25.5796C21.3495 25.5559 22.0145 24.9409 22.152 23.6959C22.5395 20.2034 23.2145 11.8434 23.222 11.7584C23.2633 11.2434 23.7195 10.8834 24.2307 10.8996ZM17.9317 2.5C19.0792 2.5 20.088 3.27375 20.3843 4.3825L20.7017 5.95875C20.8044 6.47547 21.2578 6.85282 21.7828 6.86111L25.885 6.86125C26.4025 6.86125 26.8225 7.28125 26.8225 7.79875C26.8225 8.31625 26.4025 8.73625 25.885 8.73625L21.8195 8.73606C21.8132 8.73619 21.8068 8.73625 21.8005 8.73625L21.77 8.735L8.80202 8.7361C8.79194 8.7362 8.78185 8.73625 8.77175 8.73625L8.7525 8.735L4.6875 8.73625C4.17 8.73625 3.75 8.31625 3.75 7.79875C3.75 7.28125 4.17 6.86125 4.6875 6.86125L8.78875 6.86L8.91503 6.85201C9.38539 6.79098 9.7763 6.43375 9.87175 5.95875L10.1755 4.43875C10.4843 3.27375 11.493 2.5 12.6405 2.5H17.9317ZM17.9317 4.375H12.6405C12.3405 4.375 12.0767 4.57625 12.0005 4.865L11.7093 6.3275C11.6722 6.51274 11.6183 6.69127 11.5494 6.86159H19.0233C18.9542 6.69127 18.9002 6.51274 18.863 6.3275L18.5592 4.8075C18.4955 4.57625 18.2317 4.375 17.9317 4.375Z" fill="#FF2104"/>
</svg>
