<svg width="21" height="21" viewBox="0 0 21 21" fill="none" xmlns="http://www.w3.org/2000/svg">
<path d="M10.4929 6.88797C10.4329 6.88786 10.3735 6.89958 10.318 6.92245C10.2626 6.94533 10.2122 6.97891 10.1697 7.02129L3.27661 13.9144C3.10144 14.0957 3.10649 14.3847 3.28782 14.5599C3.46474 14.7307 3.7452 14.7307 3.92208 14.5599L10.4929 7.99L17.0628 14.5608C17.2379 14.7421 17.5269 14.7471 17.7083 14.572C17.8896 14.3968 17.8946 14.1079 17.7195 13.9265C17.7158 13.9227 17.7121 13.919 17.7083 13.9153L10.8152 7.02219C10.7298 6.93653 10.6139 6.88826 10.4929 6.88797Z" fill="#313131"/>
</svg>
