<svg width="30" height="30" viewBox="0 0 30 30" fill="none" xmlns="http://www.w3.org/2000/svg">
<path fill-rule="evenodd" clip-rule="evenodd" d="M15 2.5C21.8925 2.5 27.5 8.1075 27.5 15C27.5 21.8925 21.8925 27.5 15 27.5C8.1075 27.5 2.5 21.8925 2.5 15C2.5 8.1075 8.1075 2.5 15 2.5ZM15 4.375C9.14125 4.375 4.375 9.14125 4.375 15C4.375 20.8587 9.14125 25.625 15 25.625C20.8587 25.625 25.625 20.8587 25.625 15C25.625 9.14125 20.8587 4.375 15 4.375ZM13.8595 9.99713L18.217 14.3359C18.3932 14.5121 18.492 14.7509 18.492 14.9996C18.492 15.2496 18.3932 15.4884 18.217 15.6646L13.8595 20.0021C13.677 20.1846 13.437 20.2759 13.1983 20.2759C12.9583 20.2759 12.717 20.1846 12.5345 19.9996C12.1695 19.6321 12.1708 19.0396 12.537 18.6746L16.227 14.9996L12.537 11.3259C12.1708 10.9609 12.1695 10.3671 12.5345 9.99963C12.8995 9.63088 13.492 9.63338 13.8595 9.99713Z" fill="#A7A5A6"/>
</svg>
