<svg width="30" height="30" viewBox="0 0 30 30" fill="none" xmlns="http://www.w3.org/2000/svg">
<path fill-rule="evenodd" clip-rule="evenodd" d="M21.3162 2.5C24.365 2.5 26.8475 4.98125 26.8475 8.03125V21.955C26.8475 25.0125 24.3587 27.5 21.3025 27.5H15.1962C12.1475 27.5 9.66625 25.0187 9.66625 21.9688V20.7913C9.66625 20.2738 10.0862 19.8538 10.6037 19.8538C11.1212 19.8538 11.5412 20.2738 11.5412 20.7913V21.9688C11.5412 23.9837 13.1812 25.625 15.1962 25.625H21.3025C23.3263 25.625 24.9725 23.98 24.9725 21.955V8.03125C24.9725 6.01625 23.3313 4.375 21.3162 4.375H15.21C13.1875 4.375 11.5412 6.02 11.5412 8.0425V9.20875C11.5412 9.72625 11.1212 10.1463 10.6037 10.1463C10.0862 10.1463 9.66625 9.72625 9.66625 9.20875V8.0425C9.66625 4.98625 12.1538 2.5 15.21 2.5H21.3162ZM16.7404 10.6912L20.4016 14.3372C20.4313 14.3669 20.459 14.3986 20.4845 14.432L20.4016 14.3372C20.4515 14.3864 20.4952 14.4398 20.5322 14.498C20.5398 14.5126 20.5483 14.5269 20.5565 14.5414C20.5708 14.5638 20.5828 14.5876 20.5939 14.6118C20.6001 14.629 20.6073 14.6461 20.614 14.6635C20.6246 14.6872 20.6329 14.7116 20.6401 14.7364C20.6443 14.7559 20.6493 14.7753 20.6537 14.795C20.6606 14.8188 20.665 14.8428 20.6684 14.867C20.6684 14.878 20.6699 14.8895 20.6711 14.9011C20.6761 14.9341 20.6779 14.967 20.6779 15L20.6688 15.0988L20.6677 15.1272C20.6674 15.1293 20.6671 15.1314 20.6668 15.1335L20.6779 15C20.6779 15.0694 20.6702 15.1381 20.6553 15.2049C20.6493 15.2247 20.6443 15.2441 20.6387 15.2633C20.6329 15.2884 20.6246 15.3128 20.6154 15.3368C20.6073 15.3539 20.6001 15.371 20.5924 15.3878C20.5828 15.4124 20.5708 15.4362 20.5577 15.4595C20.5483 15.4731 20.5398 15.4874 20.5309 15.5014C20.5175 15.5252 20.5016 15.5479 20.4847 15.5698C20.4732 15.5828 20.4624 15.596 20.4514 15.609C20.4363 15.6281 20.4194 15.6462 20.4016 15.6637L16.7404 19.3075C16.5579 19.49 16.3179 19.5812 16.0791 19.5812C15.8391 19.5812 15.5979 19.49 15.4154 19.305C15.0491 18.9375 15.0516 18.345 15.4179 17.98L17.4688 15.9375H4.6875C4.17 15.9375 3.75 15.5175 3.75 15C3.75 14.4825 4.17 14.0625 4.6875 14.0625H17.4688L15.4179 12.0187C15.0516 11.6537 15.0491 11.0612 15.4154 10.6937C15.7816 10.3262 16.3741 10.3263 16.7404 10.6912Z" fill="#FF2104"/>
</svg>
