<svg width="30" height="30" viewBox="0 0 30 30" fill="none" xmlns="http://www.w3.org/2000/svg">
<path d="M14.6208 27.6927L14.6213 27.6929L14.9515 27.8394L15.2945 27.7257L14.6208 27.6927ZM14.6208 27.6927C14.4138 27.6018 11.8327 26.4376 9.3058 24.2855C6.77655 22.1313 4.32639 19.0091 4.32639 15.002V7.94068C4.32676 7.29274 4.53156 6.66145 4.91162 6.13668C5.29168 5.61188 5.82764 5.22039 6.44317 5.01794L6.4435 5.01783M14.6208 27.6927L6.4435 5.01783M6.4435 5.01783L15 2.18146L23.5564 5.01783L23.5567 5.01794M6.4435 5.01783L23.5567 5.01794M23.5567 5.01794C24.1723 5.22039 24.7082 5.61188 25.0883 6.13668M23.5567 5.01794L25.0883 6.13668M15 4.13511L15.0472 4.15076L22.9651 6.77635C22.9652 6.7764 22.9654 6.77645 22.9655 6.7765C23.2109 6.85675 23.4246 7.01253 23.576 7.22158C23.7276 7.43075 23.8091 7.68252 23.8088 7.94084M15 4.13511L6.54535 7.30959C6.41237 7.49312 6.34087 7.71403 6.34111 7.94068H6.19111M15 4.13511L14.9527 4.15076L7.03486 6.77635C7.03473 6.77639 7.0346 6.77644 7.03447 6.77648M15 4.13511L7.03447 6.77648M23.8088 7.94084L23.6588 7.94068M23.8088 7.94084V7.94068H23.6588M23.8088 7.94084V15.002C23.8088 18.4478 22.0607 20.9791 20.106 22.7305C18.1525 24.4807 15.9825 25.4621 15.1068 25.8143L15.0442 25.8395L14.9838 25.8093C14.1084 25.3718 11.9167 24.1827 9.94176 22.3526C7.96896 20.5244 6.19111 18.0363 6.19111 15.002L6.19111 7.94084L6.19111 7.94068M23.6588 7.94068C23.659 7.71403 23.5876 7.49312 23.4546 7.30959C23.3216 7.12605 23.1339 6.98931 22.9185 6.91894L23.6588 15.002V7.94068ZM6.19111 7.94068C6.19087 7.68242 6.27235 7.43071 6.42388 7.22158C6.57537 7.01251 6.78909 6.85672 7.03447 6.77648M6.19111 7.94068L7.03447 6.77648M25.0883 6.13668C25.4684 6.66147 25.6732 7.2928 25.6735 7.94077M25.0883 6.13668L25.6735 7.94077M25.6735 7.94077V15.002C25.6735 19.5821 23.1957 22.7239 20.6502 24.7452C18.1042 26.7669 15.5037 27.6559 15.2948 27.7256L25.6735 7.94077Z" fill="#666666" stroke="white" stroke-width="0.3"/>
<path d="M14.0386 17.6034H14.0377H14.0031C13.7499 17.5994 13.5 17.5441 13.2687 17.4409C13.037 17.3375 12.8286 17.1883 12.6563 17.0021L12.6563 17.0021L12.6544 17.0001L10.2625 14.5107L11.6055 13.2226L13.9305 15.6471L14.0365 15.7576L14.1448 15.6493L19.6465 10.1477L20.9648 11.466L15.3766 17.0542C15.3766 17.0542 15.3766 17.0542 15.3766 17.0542C15.201 17.2297 14.9923 17.3686 14.7626 17.4628C14.5329 17.5571 14.2869 17.6049 14.0386 17.6034Z" fill="#666666" stroke="white" stroke-width="0.3"/>
</svg>
