<svg width="262" height="295" viewBox="0 0 262 295" fill="none" xmlns="http://www.w3.org/2000/svg">
<path d="M8.45278 88.1742C6.73993 83.5766 6.42957 78.5744 7.56095 73.8005C8.69233 69.0266 11.2146 64.6952 14.8088 61.3544C18.403 58.0135 22.9077 55.8131 27.753 55.0316C32.5984 54.25 37.5668 54.9224 42.0298 56.9637C46.4928 59.005 50.25 62.3234 52.8261 66.4993C55.4022 70.6753 56.6816 75.5211 56.5023 80.4239C56.3231 85.3267 54.6933 90.0662 51.8191 94.043C48.945 98.0199 44.9555 101.055 40.3553 102.766C34.189 105.058 27.3643 104.809 21.3818 102.072C15.3993 99.3362 10.7488 94.3371 8.45278 88.1742Z" fill="#EBEBEB"/>
<path d="M44.6112 81.1498C41.7754 89.0798 33.4382 94.5648 33.4382 94.5648C33.4382 94.5648 24.0731 91.1491 19.4791 84.0837C15.6508 78.1947 16.8276 71.2073 21.5421 69.1592C28.2984 66.2183 31.5241 78.2089 31.5241 78.2089C31.5241 78.2089 31.8998 65.8002 39.1594 67.097C44.2213 68.0041 46.972 74.5167 44.6112 81.1498Z" fill="white"/>
<path d="M241.496 183.177C236.82 185.545 231.513 186.371 226.337 185.537C221.162 184.704 216.383 182.253 212.688 178.536C208.992 174.82 206.568 170.029 205.765 164.851C204.962 159.672 205.82 154.373 208.216 149.712C210.613 145.051 214.424 141.269 219.104 138.908C223.784 136.546 229.092 135.727 234.266 136.568C239.44 137.409 244.216 139.866 247.906 143.588C251.597 147.309 254.014 152.103 254.81 157.283C255.637 162.453 254.792 167.753 252.398 172.41C250.003 177.068 246.184 180.84 241.496 183.177Z" fill="#EBEBEB"/>
<path d="M238.052 158.891C237.925 160.377 237.359 161.792 236.427 162.957C235.496 164.121 234.239 164.984 232.817 165.434C231.395 165.885 229.871 165.904 228.438 165.489C227.005 165.074 225.727 164.244 224.766 163.103C223.805 161.962 223.204 160.562 223.04 159.08C222.875 157.598 223.153 156.1 223.84 154.776C224.527 153.452 225.591 152.361 226.898 151.642C228.205 150.923 229.696 150.607 231.183 150.735C233.176 150.906 235.019 151.861 236.307 153.391C237.595 154.921 238.223 156.899 238.052 158.891Z" fill="white"/>
<path d="M241.762 180.109L241.499 183.206C237.391 185.285 232.784 186.177 228.196 185.781C223.608 185.386 219.222 183.718 215.531 180.966L215.793 177.884C216.088 174.441 217.739 171.257 220.383 169.032C223.027 166.806 226.447 165.722 229.89 166.017C233.334 166.312 236.519 167.962 238.746 170.605C240.972 173.248 242.057 176.666 241.762 180.109Z" fill="white"/>
<path d="M194.34 60.6164C207.715 53.7513 212.99 37.3478 206.122 23.9782C199.254 10.6087 182.844 5.33579 169.469 12.2009C156.094 19.066 150.819 35.4695 157.687 48.8391C164.555 62.2086 180.965 67.4815 194.34 60.6164Z" fill="#EBEBEB"/>
<path fill-rule="evenodd" clip-rule="evenodd" d="M178.193 47.2195C177.484 46.7659 176.846 46.1069 175.882 46.199C175.513 46.199 175.591 45.9297 175.591 45.7313C175.591 42.1029 175.591 38.4816 175.591 34.8533C175.591 34.5911 175.591 34.3785 175.896 34.2297C178.668 32.8123 179.866 30.0911 181.567 27.7383C182.437 26.5732 183.064 25.245 183.41 23.8327C183.756 22.4204 183.814 20.953 183.581 19.5178C183.46 18.7028 183.843 18.3343 184.58 18.1713C184.949 18.043 185.349 18.0364 185.722 18.1525C186.094 18.2686 186.42 18.5012 186.65 18.8162C187.445 20.2996 187.979 21.9078 188.231 23.5714C188.387 24.9462 187.898 26.2855 187.728 27.6391C187.6 28.6383 187.366 29.6233 187.175 30.6297C187.423 30.8068 187.7 30.7147 187.962 30.7147H197.178C198.469 30.7147 199.099 31.0832 199.305 31.9407C199.405 32.4684 199.328 33.0143 199.088 33.4944C198.847 33.9744 198.455 34.3622 197.972 34.5982C197.745 34.7116 197.327 34.5982 197.299 34.9667C197.27 35.3352 197.703 35.2927 197.908 35.4415C199.022 36.1998 198.816 37.773 197.533 38.673C197.221 38.8927 196.625 38.7935 196.611 39.247C196.597 39.7006 197.164 39.6013 197.412 39.8565C198.313 40.7423 197.866 42.3935 196.526 43.0596C196.342 43.1164 196.162 43.1851 195.987 43.2651C195.838 43.3714 195.689 43.4848 195.987 43.6903C197.313 44.6399 197.285 45.9581 195.945 46.9218L195.548 47.2053C195.062 47.4966 194.494 47.621 193.931 47.5596C189.129 47.5596 184.327 47.5596 179.526 47.5596C179.292 47.5966 179.053 47.5856 178.824 47.5271C178.595 47.4686 178.38 47.3639 178.193 47.2195Z" fill="white"/>
<path fill-rule="evenodd" clip-rule="evenodd" d="M164.53 40.8271C164.53 38.5239 164.53 36.2137 164.53 33.9176C164.53 33.4499 164.58 33.209 165.154 33.209C167.962 33.2468 170.771 33.2468 173.583 33.209C174.129 33.209 174.214 33.3932 174.214 33.9176C174.214 38.5523 174.214 43.187 174.214 47.8216C174.214 48.4169 174.058 48.5799 173.47 48.5728C170.741 48.5728 168.018 48.5728 165.289 48.5728C164.58 48.5728 164.523 48.346 164.53 47.7507C164.551 45.4618 164.53 43.1303 164.53 40.8271Z" fill="white"/>
<path d="M74.8572 162.506L23.1112 184.538L4.46597 140.785L23.3381 113.353L56.2119 118.753L74.8572 162.506Z" fill="#69008E"/>
<path opacity="0.2" d="M74.8572 162.506L23.1112 184.538L4.46597 140.785L23.3381 113.353L56.2119 118.753L74.8572 162.506Z" fill="black"/>
<path d="M71.7586 163.322L25.8473 182.867L1.35326 125.387L35.4394 110.867L52.0429 117.061L71.7586 163.322Z" fill="#EBEBEB"/>
<path d="M35.4405 110.867L52.044 117.06L40.2188 122.092L35.4405 110.867Z" fill="#DBDBDB"/>
<path d="M10.693 134.86L36.2155 123.994L35.571 122.482L10.0485 133.348L10.693 134.86Z" fill="#DBDBDB"/>
<path d="M12.3209 138.684L37.8434 127.818L37.1989 126.305L11.6764 137.172L12.3209 138.684Z" fill="#DBDBDB"/>
<path d="M13.955 142.499L39.4775 131.633L38.833 130.121L13.3105 140.987L13.955 142.499Z" fill="#DBDBDB"/>
<path d="M15.5662 146.32L52.9662 130.397L52.3217 128.885L14.9217 144.808L15.5662 146.32Z" fill="#DBDBDB"/>
<path d="M17.1919 150.138L54.5918 134.215L53.9473 132.702L16.5474 148.625L17.1919 150.138Z" fill="#DBDBDB"/>
<path d="M18.826 153.957L56.226 138.034L55.5815 136.522L18.1815 152.445L18.826 153.957Z" fill="#DBDBDB"/>
<path d="M20.4496 157.773L57.8495 141.85L57.205 140.337L19.8051 156.26L20.4496 157.773Z" fill="#DBDBDB"/>
<path d="M22.0817 161.59L59.4817 145.667L58.8372 144.155L21.4372 160.078L22.0817 161.59Z" fill="#DBDBDB"/>
<path d="M23.7031 165.411L61.103 149.488L60.4585 147.975L23.0586 163.898L23.7031 165.411Z" fill="#DBDBDB"/>
<path d="M25.333 169.23L62.7329 153.307L62.0884 151.794L24.6884 167.717L25.333 169.23Z" fill="#DBDBDB"/>
<path d="M26.9566 173.043L64.3565 157.12L63.712 155.608L26.312 171.531L26.9566 173.043Z" fill="#DBDBDB"/>
<path d="M28.5907 176.855L65.9906 160.932L65.3461 159.419L27.9462 175.342L28.5907 176.855Z" fill="#DBDBDB"/>
<path d="M60.8783 129.711L74.8587 162.508L23.1057 184.541L9.13947 151.765C11.8973 152.077 14.6409 152.474 17.3916 152.821C20.1423 153.168 22.893 153.579 25.6366 153.99C28.6945 154.43 31.7666 154.902 34.8529 155.408L34.9096 155.323C34.9096 155.323 34.9096 155.379 34.8671 155.408L41.7439 156.485C43.0696 154.586 44.3882 152.672 45.7211 150.78C45.7211 150.78 45.6714 150.78 45.636 150.78H45.7352C47.5076 148.243 49.2918 145.715 51.0878 143.197C52.6994 140.944 54.3206 138.697 55.9511 136.458C57.5746 134.162 59.191 131.923 60.8783 129.711Z" fill="#69008E"/>
<g opacity="0.2">
<path d="M60.8792 129.711C59.4188 132.064 57.8875 134.381 56.3987 136.72C54.9099 139.059 53.3502 141.355 51.8118 143.665C50.2734 145.975 48.579 148.477 46.9555 150.865L46.8137 151.092L42.4679 157.434L42.2481 157.739L41.8866 157.682C39.3556 157.264 36.8389 156.839 34.315 156.407L34.0456 156.364C31.2099 155.882 28.3741 155.393 25.4816 154.876C22.7592 154.394 20.0298 153.884 17.3003 153.374C14.5709 152.863 11.8556 152.325 9.14038 151.751C11.8982 152.063 14.6418 152.459 17.3925 152.807C20.1432 153.154 22.8939 153.565 25.6375 153.976C28.6955 154.415 31.7676 154.888 34.8538 155.393L41.7306 156.47C43.0563 154.571 44.375 152.658 45.7078 150.766C47.4802 148.229 49.2643 145.701 51.0603 143.183C52.672 140.929 54.2931 138.683 55.9237 136.444C57.5755 134.162 59.1919 131.922 60.8792 129.711Z" fill="black"/>
<path d="M34.8738 155.309C34.8738 155.309 34.8738 155.365 34.8312 155.394C34.6611 155.741 34.491 156.102 34.3137 156.428C33.4843 158.08 32.5981 159.695 31.6835 161.283C30.5705 163.246 29.3936 165.166 28.2097 167.087C27.0258 169.007 25.7993 170.878 24.5232 172.756C23.2471 174.634 21.9568 176.462 20.5602 178.241C21.5385 176.2 22.6303 174.223 23.7433 172.267C24.8564 170.311 26.0332 168.384 27.2101 166.47C28.3869 164.557 29.6276 162.672 30.9037 160.801C31.9104 159.313 32.9525 157.832 34.0443 156.393C34.2995 156.06 34.5548 155.727 34.8171 155.401L34.8738 155.309Z" fill="black"/>
<path d="M72.0518 156.272C69.7974 156.045 67.5642 155.705 65.3452 155.329C63.1262 154.954 60.9143 154.514 58.7024 154.075C56.4905 153.636 54.2998 153.111 52.1163 152.558C50.3368 152.112 48.5715 151.637 46.8134 151.092L45.6861 150.737C45.6861 150.737 45.6365 150.737 45.6011 150.737H45.7003C46.1257 150.787 46.5369 150.829 46.9551 150.886C48.7488 151.092 50.4999 151.368 52.3077 151.666C54.5338 152.041 56.7386 152.481 58.9434 152.934C61.1482 153.388 63.346 153.898 65.5295 154.451C67.7131 155.003 69.8966 155.563 72.0518 156.272Z" fill="black"/>
</g>
<path d="M187.474 109.793L195.251 106.732L186.375 84.2032L176.528 88.0796L187.474 109.793Z" fill="#69008E"/>
<path d="M176.528 88.0796L180.704 96.3639L187.474 109.793L195.258 106.732L186.375 84.2032L176.528 88.0796Z" fill="#69008E"/>
<path opacity="0.1" d="M176.528 88.0796L180.704 96.3639L189.764 92.7922L186.375 84.2032L176.528 88.0796Z" fill="black"/>
<path d="M176.922 91.7926L189.17 86.9673L185.502 77.6645L173.254 82.4898L176.922 91.7926Z" fill="#69008E"/>
<path d="M163.71 82.2962L173.607 79.497L167.673 64.4449L158.528 69.1434L163.71 82.2962Z" fill="#69008E"/>
<path d="M171.395 59.535L180.15 81.7516L196.874 77.3721L239.382 76.4083L218.348 23.053L186.609 51.3358L171.395 59.535Z" fill="#69008E"/>
<path d="M240.303 76.173C245.064 74.2974 244.192 60.7748 238.354 45.9695C232.517 31.1641 223.925 20.6825 219.164 22.5581C214.403 24.4338 215.276 37.9564 221.113 52.7617C226.95 67.5671 235.542 78.0487 240.303 76.173Z" fill="#69008E"/>
<path opacity="0.2" d="M239.381 72.5334C243.279 70.9979 242.237 59.097 237.054 45.9521C231.872 32.8072 224.511 23.3959 220.613 24.9314C216.715 26.4669 217.757 38.3678 222.94 51.5127C228.122 64.6576 235.483 74.0689 239.381 72.5334Z" fill="black"/>
<path d="M224.092 51.082C224.801 52.8324 225.51 54.519 226.269 56.1135C227.3 56.4428 228.404 56.4723 229.452 56.1987C230.499 55.925 231.448 55.3594 232.186 54.5677C232.925 53.7761 233.423 52.791 233.623 51.7272C233.823 50.6635 233.716 49.5648 233.316 48.5592L232.323 46.0434C231.93 45.0401 231.262 44.1682 230.395 43.5285C229.528 42.8887 228.497 42.5072 227.422 42.4279C226.347 42.3486 225.272 42.5748 224.32 43.0804C223.368 43.586 222.579 44.3503 222.043 45.2852C222.625 47.1702 223.312 49.1119 224.092 51.082Z" fill="#69008E"/>
<path d="M172.02 86.3806L191.147 80.9664L179.677 51.8545L161.995 60.9396L172.02 86.3806Z" fill="#69008E"/>
<path opacity="0.2" d="M172.02 86.3806L191.147 80.9664L179.677 51.8545L161.995 60.9396L172.02 86.3806Z" fill="black"/>
<path opacity="0.2" d="M217.293 27.6948C216.674 29.7607 216.434 31.9215 216.584 34.0728C216.669 36.2322 216.925 38.3815 217.35 40.5004C217.534 41.5705 217.817 42.6264 218.058 43.6681C218.3 44.7099 218.633 45.7516 218.959 46.7792C219.285 47.8067 219.611 48.8414 219.987 49.8548C220.363 50.8681 220.696 51.8886 221.121 52.8949C222.694 56.9246 224.63 60.8029 226.906 64.4816C228.062 66.3126 229.376 68.0389 230.834 69.6406C232.263 71.2759 234.025 72.5877 236.002 73.4887C234.09 72.4911 232.401 71.1142 231.039 69.4422C229.641 67.8148 228.386 66.0697 227.289 64.2265C225.089 60.5396 223.21 56.6702 221.674 52.6611C220.04 48.6914 218.738 44.593 217.782 40.4083C217.298 38.3105 216.98 36.1779 216.832 34.0303C216.618 31.9077 216.773 29.7641 217.293 27.6948Z" fill="black"/>
<path d="M236.859 23.0247C236.051 23.9885 235.285 24.9877 234.534 25.9869C233.782 26.9861 233.052 28.0137 232.329 29.0412C231.606 30.0688 230.911 31.1105 230.202 32.1664L229.188 33.7609C228.869 34.2995 228.536 34.831 228.231 35.3838C228.642 34.9019 229.018 34.4058 229.415 33.9168L230.557 32.4145C231.322 31.4153 232.045 30.3948 232.761 29.3672C233.477 28.3397 234.179 27.2979 234.888 26.2349C235.597 25.1719 236.242 24.1231 236.859 23.0247Z" fill="#263238"/>
<path d="M237.34 60.4079C238.758 60.486 240.176 60.5002 241.594 60.5073C243.012 60.5144 244.43 60.5073 245.848 60.4505C247.266 60.3937 248.684 60.3512 250.102 60.2589L252.228 60.117C252.937 60.0531 253.646 60.0034 254.355 59.9183C253.646 59.8757 252.937 59.8686 252.228 59.8402H250.102C248.684 59.8402 247.266 59.8402 245.848 59.897C244.43 59.9538 243.012 59.9963 241.594 60.0886C240.176 60.1808 238.758 60.2518 237.34 60.4079Z" fill="#263238"/>
<path d="M261.899 50.3717C259.829 50.6269 257.773 50.9458 255.717 51.2647C253.661 51.5836 251.605 51.9733 249.556 52.3135C247.507 52.6536 245.465 53.0647 243.424 53.4828L240.368 54.1135C239.354 54.3473 238.333 54.5599 237.32 54.8221C238.355 54.7017 239.383 54.5458 240.418 54.404L243.502 53.9292C245.558 53.6103 247.613 53.2206 249.662 52.8875C251.711 52.5544 253.753 52.1292 255.795 51.7111C257.836 51.293 259.871 50.8607 261.899 50.3717Z" fill="#263238"/>
<path d="M248.328 21.11C246.818 22.5841 245.344 24.1006 243.883 25.6242C242.423 27.1479 240.984 28.6857 239.552 30.2376C238.119 31.7896 236.716 33.3487 235.298 34.9361L233.214 37.3243C232.505 38.1321 231.838 38.9258 231.172 39.7479C231.937 39.0392 232.668 38.2526 233.419 37.5085L235.617 35.2337C237.084 33.7172 238.524 32.1723 239.956 30.6203C241.388 29.0683 242.791 27.5022 244.209 25.9148C245.627 24.3274 246.988 22.74 248.328 21.11Z" fill="#263238"/>
<path d="M234.904 47.112C237.208 46.3042 239.484 45.4396 241.76 44.5679C244.035 43.6963 246.29 42.775 248.558 41.875C250.827 40.975 253.067 40.0254 255.308 39.0403L258.668 37.623C259.781 37.127 260.894 36.638 262 36.1207C260.852 36.5175 259.71 36.9498 258.562 37.3679L255.144 38.6718C252.869 39.5435 250.614 40.4648 248.346 41.3577C246.077 42.2506 243.837 43.2073 241.597 44.1923C239.356 45.1774 237.116 46.0916 234.904 47.112Z" fill="#263238"/>
<path d="M261.998 188.614H0V260.543H261.998V188.614Z" fill="#69008E"/>
<path d="M261.998 260.544H0.000244182L2.83603 264.031H259.162L261.998 260.544Z" fill="#69008E"/>
<path opacity="0.1" d="M261.998 260.544H0.000244182L2.83603 264.031H259.162L261.998 260.544Z" fill="black"/>
<path d="M27.2478 230.724C27.5242 230.392 27.9208 230.182 28.3511 230.141C28.7813 230.1 29.2105 230.231 29.5448 230.504C30.9627 231.631 33.3164 232.956 35.5496 232.921C36.9499 232.95 38.3247 232.544 39.4842 231.759C39.8749 231.519 40.2014 231.188 40.436 230.794C40.6706 230.4 40.8062 229.956 40.8312 229.498C40.8406 229.142 40.7417 228.791 40.5477 228.492C40.3128 228.107 39.9895 227.784 39.6048 227.549C38.2733 226.796 36.8146 226.294 35.3015 226.068H35.2377C33.8398 225.831 32.4773 225.42 31.1825 224.842C29.9919 224.322 28.9758 223.471 28.2545 222.39C27.7805 221.614 27.5348 220.72 27.5456 219.811C27.5769 218.903 27.8209 218.015 28.2581 217.219C28.6952 216.422 29.3132 215.74 30.0624 215.226C31.6559 214.115 33.5577 213.533 35.5 213.56C38.5201 213.56 40.7533 215.034 42.3555 216.076C42.7084 216.315 42.9526 216.684 43.0349 217.102C43.1173 217.52 43.031 217.953 42.795 218.308C42.6815 218.488 42.5329 218.644 42.3581 218.765C42.1833 218.886 41.9859 218.971 41.7776 219.015C41.5692 219.059 41.3543 219.06 41.1454 219.019C40.9366 218.978 40.7381 218.895 40.5618 218.776C38.9596 217.706 37.4212 216.763 35.5 216.763C34.2348 216.735 32.9935 217.11 31.9552 217.833C31.6112 218.042 31.3226 218.331 31.114 218.675C30.9054 219.02 30.783 219.409 30.7571 219.811C30.7399 220.121 30.8165 220.43 30.9769 220.696C31.2046 221.021 31.4936 221.298 31.8276 221.511C33.0343 222.223 34.3685 222.693 35.7552 222.893H35.819C37.3132 223.156 38.77 223.599 40.1577 224.211C41.4326 224.769 42.5238 225.676 43.3055 226.826C43.7977 227.631 44.0578 228.555 44.0569 229.498C44.0276 230.466 43.7672 231.413 43.2973 232.26C42.8275 233.107 42.1618 233.829 41.3559 234.367C39.6549 235.566 37.6166 236.194 35.5354 236.16C32.1396 236.16 29.2825 234.43 27.4889 233.013C27.1617 232.736 26.954 232.343 26.9091 231.917C26.8642 231.491 26.9856 231.063 27.2478 230.724Z" fill="white"/>
<path d="M54.7891 236.187C53.0584 236.178 51.4012 235.486 50.1774 234.263C48.9536 233.04 48.2619 231.383 48.2526 229.653V222.141C48.2599 221.702 48.4378 221.282 48.7487 220.972C49.0595 220.661 49.4791 220.483 49.9187 220.476C50.3594 220.479 50.781 220.656 51.0926 220.968C51.4043 221.279 51.581 221.701 51.5847 222.141V229.653C51.5809 230.075 51.6612 230.493 51.8209 230.883C51.9806 231.274 52.2165 231.628 52.5148 231.926C52.8131 232.225 53.1679 232.46 53.5584 232.62C53.9489 232.78 54.3672 232.86 54.7891 232.856C55.2165 232.863 55.6409 232.785 56.0382 232.628C56.4355 232.47 56.7979 232.236 57.1047 231.939C57.4115 231.641 57.6567 231.286 57.8262 230.894C57.9957 230.502 58.0863 230.08 58.0928 229.653V222.141C58.0909 221.924 58.1318 221.709 58.2131 221.508C58.2944 221.307 58.4145 221.124 58.5666 220.969C58.7186 220.815 58.8997 220.692 59.0994 220.607C59.2991 220.522 59.5135 220.478 59.7305 220.476C60.1712 220.488 60.5909 220.666 60.9053 220.975C61.2197 221.284 61.4053 221.701 61.4248 222.141V229.653C61.3988 231.395 60.6882 233.057 59.4465 234.279C58.2049 235.502 56.532 236.187 54.7891 236.187Z" fill="white"/>
<path d="M67.8387 228.363V215.883C67.8667 215.448 68.0593 215.041 68.3773 214.743C68.6953 214.444 69.1149 214.279 69.5508 214.279C69.9867 214.279 70.4063 214.444 70.7243 214.743C71.0423 215.041 71.2349 215.448 71.2629 215.883V221.794C72.5035 220.938 73.9741 220.479 75.4811 220.475C76.7172 220.451 77.9417 220.718 79.055 221.256C80.1683 221.793 81.1392 222.585 81.8888 223.568C82.6384 224.551 83.1455 225.697 83.369 226.912C83.5926 228.128 83.5262 229.379 83.1753 230.564C82.8244 231.749 82.1988 232.834 81.3494 233.732C80.5 234.63 79.4508 235.315 78.2868 235.732C77.1228 236.149 75.877 236.285 74.6504 236.13C73.4238 235.975 72.2511 235.533 71.2275 234.84C71.1353 235.245 70.8979 235.603 70.5599 235.845C70.222 236.088 69.807 236.198 69.3933 236.155C68.9796 236.112 68.596 235.92 68.3148 235.613C68.0335 235.307 67.8743 234.908 67.8671 234.493L67.8387 228.363ZM71.2629 228.363C71.2573 229.526 71.7108 230.643 72.5248 231.474C72.9012 231.882 73.3584 232.207 73.8674 232.429C74.3763 232.651 74.9258 232.765 75.4811 232.764C76.0356 232.76 76.5836 232.644 77.0918 232.422C77.6 232.201 78.0578 231.878 78.4374 231.474C79.2463 230.641 79.6967 229.524 79.6923 228.363C79.7081 227.181 79.2573 226.04 78.4374 225.188C78.0578 224.784 77.6 224.461 77.0918 224.24C76.5836 224.018 76.0356 223.902 75.4811 223.898C74.9258 223.897 74.3763 224.011 73.8674 224.233C73.3584 224.455 72.9012 224.78 72.5248 225.188C71.7004 226.038 71.2466 227.179 71.2629 228.363Z" fill="white"/>
<path d="M87.8324 231.692C87.9677 231.517 88.1374 231.37 88.3312 231.262C88.525 231.153 88.7387 231.085 88.9596 231.062C89.1804 231.039 89.4036 231.061 89.6157 231.127C89.8277 231.192 90.0242 231.3 90.1932 231.444C91.1635 232.272 92.3792 232.758 93.6528 232.826C94.4019 232.819 95.1355 232.613 95.7797 232.231C95.9374 232.124 96.0695 231.983 96.1663 231.819C96.2632 231.655 96.3224 231.471 96.3397 231.281C96.3486 231.17 96.3158 231.059 96.2476 230.97C96.2476 230.877 96.0916 230.75 95.8364 230.594C95.0604 230.151 94.2099 229.853 93.3267 229.715C92.3852 229.551 91.4665 229.275 90.5902 228.893C89.7123 228.499 88.9612 227.868 88.4208 227.072C88.0652 226.474 87.8812 225.79 87.8891 225.095C87.9107 224.415 88.0889 223.749 88.4098 223.149C88.7307 222.55 89.1857 222.032 89.7395 221.637C90.8809 220.863 92.2316 220.458 93.6103 220.474C95.3259 220.534 96.9776 221.14 98.3248 222.203C98.6902 222.453 98.9461 222.833 99.0397 223.265C99.1333 223.698 99.0576 224.15 98.8281 224.528C98.705 224.71 98.5469 224.866 98.3631 224.987C98.1792 225.108 97.9733 225.191 97.7571 225.232C97.5409 225.273 97.3187 225.27 97.1034 225.225C96.8882 225.18 96.684 225.092 96.5028 224.967C95.674 224.304 94.6679 223.899 93.6103 223.805C92.9374 223.789 92.2769 223.988 91.7245 224.372C91.3133 224.655 91.2212 224.932 91.2212 225.081C91.2149 225.124 91.2173 225.168 91.2283 225.211C91.2392 225.254 91.2585 225.294 91.285 225.329C91.3681 225.466 91.4886 225.576 91.6323 225.648C92.3429 226.037 93.1192 226.291 93.9222 226.399H93.9577C94.9703 226.571 95.9551 226.878 96.8856 227.313C97.8005 227.692 98.579 228.34 99.1188 229.17C99.5003 229.793 99.7061 230.508 99.7143 231.239C99.6984 231.961 99.5107 232.668 99.1668 233.303C98.8228 233.937 98.3324 234.481 97.7364 234.889C96.5324 235.713 95.1052 236.151 93.6457 236.143C91.5876 236.072 89.6139 235.308 88.0451 233.974C87.7271 233.692 87.5284 233.299 87.4889 232.875C87.4494 232.452 87.5722 232.029 87.8324 231.692Z" fill="white"/>
<path d="M102.951 228.364C102.986 226.269 103.843 224.271 105.338 222.801C106.832 221.331 108.844 220.507 110.941 220.505C112.739 220.525 114.482 221.132 115.903 222.234C116.245 222.506 116.471 222.897 116.536 223.328C116.6 223.76 116.498 224.2 116.251 224.559C116.117 224.734 115.95 224.882 115.759 224.993C115.569 225.103 115.358 225.175 115.139 225.204C114.92 225.233 114.698 225.219 114.485 225.162C114.272 225.104 114.072 225.005 113.897 224.871C113.033 224.225 111.985 223.872 110.905 223.864C110.298 223.84 109.692 223.939 109.123 224.155C108.555 224.371 108.036 224.699 107.597 225.12C107.159 225.542 106.81 226.047 106.572 226.606C106.333 227.166 106.211 227.767 106.211 228.375C106.211 228.983 106.333 229.584 106.572 230.144C106.81 230.703 107.159 231.208 107.597 231.63C108.036 232.051 108.555 232.379 109.123 232.595C109.692 232.811 110.298 232.91 110.905 232.886C111.984 232.877 113.032 232.524 113.897 231.879C114.258 231.622 114.705 231.514 115.144 231.579C115.583 231.644 115.98 231.876 116.251 232.227C116.495 232.587 116.595 233.026 116.53 233.457C116.466 233.887 116.242 234.278 115.903 234.551C114.462 235.607 112.728 236.189 110.941 236.216C108.843 236.222 106.828 235.401 105.332 233.931C103.836 232.461 102.981 230.461 102.951 228.364Z" fill="white"/>
<path d="M131.708 222.14C131.704 222.58 131.527 223.002 131.216 223.313C130.904 223.625 130.482 223.801 130.042 223.805C129.364 223.784 128.699 223.993 128.156 224.4C127.578 224.793 127.094 225.309 126.738 225.91C126.177 226.721 125.742 227.612 125.448 228.553V234.52C125.437 234.969 125.249 235.396 124.925 235.708C124.601 236.02 124.168 236.191 123.718 236.185C123.277 236.182 122.856 236.005 122.544 235.694C122.232 235.382 122.056 234.961 122.052 234.52V222.14C122.054 221.923 122.098 221.709 122.183 221.509C122.268 221.309 122.391 221.128 122.546 220.976C122.7 220.824 122.884 220.704 123.085 220.623C123.286 220.542 123.501 220.501 123.718 220.503C124.164 220.491 124.597 220.657 124.921 220.964C125.245 221.271 125.435 221.694 125.448 222.14V222.359C125.644 222.126 125.865 221.915 126.107 221.729C127.271 220.924 128.655 220.496 130.07 220.503C130.285 220.502 130.499 220.543 130.698 220.625C130.897 220.707 131.078 220.828 131.23 220.98C131.382 221.132 131.503 221.313 131.585 221.512C131.667 221.711 131.709 221.924 131.708 222.14Z" fill="white"/>
<path d="M139.235 216.544C139.24 216.77 139.2 216.994 139.117 217.203C139.034 217.413 138.91 217.604 138.752 217.765C138.594 217.926 138.406 218.054 138.198 218.141C137.99 218.229 137.767 218.273 137.541 218.273C137.087 218.268 136.653 218.083 136.334 217.759C136.015 217.435 135.838 216.999 135.84 216.544V215.885C135.839 215.662 135.882 215.44 135.967 215.233C136.052 215.026 136.178 214.839 136.336 214.681C136.494 214.522 136.682 214.397 136.889 214.312C137.096 214.227 137.317 214.183 137.541 214.184C137.765 214.181 137.988 214.222 138.196 214.306C138.403 214.39 138.592 214.516 138.75 214.674C138.909 214.833 139.033 215.022 139.116 215.23C139.2 215.438 139.24 215.661 139.235 215.885V216.544ZM139.235 222.214V234.473C139.239 234.697 139.198 234.919 139.114 235.126C139.03 235.333 138.906 235.522 138.748 235.68C138.59 235.838 138.401 235.962 138.194 236.046C137.987 236.13 137.765 236.171 137.541 236.167C137.318 236.168 137.097 236.125 136.89 236.04C136.684 235.956 136.496 235.831 136.338 235.674C136.18 235.516 136.055 235.329 135.969 235.123C135.884 234.917 135.84 234.696 135.84 234.473V222.214C135.833 221.987 135.872 221.762 135.955 221.551C136.038 221.34 136.162 221.148 136.321 220.986C136.48 220.825 136.67 220.697 136.88 220.611C137.089 220.524 137.314 220.481 137.541 220.484C137.77 220.479 137.997 220.521 138.209 220.608C138.421 220.695 138.612 220.825 138.771 220.989C138.93 221.154 139.054 221.349 139.134 221.564C139.214 221.778 139.248 222.006 139.235 222.235V222.214Z" fill="white"/>
<path d="M144.648 228.364V215.885C144.648 215.43 144.829 214.993 145.15 214.672C145.472 214.35 145.909 214.17 146.364 214.17C146.819 214.17 147.255 214.35 147.577 214.672C147.898 214.993 148.079 215.43 148.079 215.885V221.795C149.315 220.955 150.775 220.506 152.269 220.505C154.312 220.566 156.252 221.421 157.675 222.887C159.099 224.354 159.895 226.317 159.895 228.361C159.895 230.404 159.099 232.367 157.675 233.834C156.252 235.3 154.312 236.155 152.269 236.216C150.749 236.199 149.268 235.73 148.015 234.87C147.93 235.282 147.694 235.648 147.354 235.897C147.014 236.146 146.594 236.259 146.175 236.216C145.756 236.173 145.367 235.976 145.085 235.663C144.803 235.35 144.647 234.944 144.648 234.522V228.364ZM148.079 228.364C148.071 229.526 148.522 230.644 149.334 231.475C149.709 231.879 150.163 232.202 150.668 232.424C151.173 232.646 151.718 232.762 152.269 232.765C152.824 232.762 153.372 232.646 153.88 232.425C154.389 232.203 154.846 231.88 155.225 231.475C156.037 230.644 156.488 229.526 156.48 228.364C156.499 227.181 156.048 226.04 155.225 225.189C154.846 224.785 154.389 224.461 153.88 224.24C153.372 224.018 152.824 223.902 152.269 223.899C151.714 223.9 151.165 224.014 150.656 224.236C150.148 224.458 149.69 224.783 149.313 225.189C148.498 226.043 148.055 227.184 148.079 228.364Z" fill="white"/>
<path d="M164.319 228.333C164.309 226.285 165.106 224.316 166.537 222.85C167.969 221.385 169.92 220.542 171.968 220.502C173.935 220.485 175.83 221.239 177.247 222.602C178.664 223.965 179.489 225.83 179.547 227.795V227.951C179.561 228.044 179.561 228.14 179.547 228.234C179.484 228.612 179.28 228.951 178.976 229.184C178.672 229.417 178.29 229.526 177.909 229.488H167.863C168.011 230.269 168.383 230.991 168.934 231.565C169.742 232.374 170.808 232.876 171.947 232.982C173.096 233.092 174.249 232.815 175.222 232.195C175.534 231.893 175.946 231.717 176.38 231.698C176.814 231.68 177.239 231.822 177.576 232.096C177.714 232.228 177.824 232.387 177.899 232.563C177.975 232.739 178.013 232.929 178.013 233.12C178.013 233.312 177.975 233.501 177.899 233.677C177.824 233.853 177.714 234.012 177.576 234.144C176.041 235.542 174.021 236.284 171.947 236.214C169.893 236.169 167.94 235.316 166.512 233.841C165.084 232.365 164.296 230.386 164.319 228.333ZM167.743 226.788H176.647C176.335 225.534 174.726 223.677 171.989 223.458C171.008 223.458 170.056 223.786 169.283 224.39C168.509 224.993 167.96 225.837 167.721 226.788H167.743Z" fill="white"/>
<path d="M184.547 228.613V215.913C184.551 215.456 184.734 215.018 185.058 214.695C185.381 214.371 185.819 214.188 186.277 214.184C186.731 214.19 187.165 214.375 187.484 214.699C187.802 215.022 187.98 215.459 187.978 215.913V228.613C187.982 228.838 187.941 229.063 187.857 229.272C187.773 229.482 187.648 229.673 187.49 229.834C187.332 229.995 187.143 230.122 186.934 230.21C186.726 230.297 186.503 230.342 186.277 230.342C186.049 230.343 185.824 230.299 185.614 230.212C185.403 230.125 185.212 229.998 185.051 229.837C184.891 229.677 184.763 229.486 184.677 229.275C184.59 229.065 184.546 228.84 184.547 228.613ZM186.298 236.188C186.071 236.189 185.846 236.145 185.637 236.059C185.427 235.973 185.236 235.846 185.075 235.686C184.915 235.526 184.787 235.336 184.7 235.127C184.613 234.917 184.568 234.693 184.568 234.466V233.835C184.572 233.378 184.755 232.94 185.079 232.617C185.403 232.293 185.84 232.11 186.298 232.106C186.752 232.112 187.186 232.297 187.505 232.621C187.824 232.945 188.001 233.381 187.999 233.835V234.466C188.003 234.692 187.962 234.915 187.878 235.125C187.794 235.334 187.669 235.524 187.511 235.685C187.352 235.845 187.163 235.972 186.955 236.059C186.747 236.145 186.524 236.189 186.298 236.188Z" fill="white"/>
<path d="M226.358 237.994C226.358 238.639 226.167 239.269 225.808 239.805C225.45 240.341 224.941 240.759 224.345 241.006C223.749 241.253 223.093 241.317 222.46 241.191C221.828 241.066 221.247 240.755 220.791 240.299C220.335 239.843 220.024 239.262 219.898 238.63C219.772 237.998 219.837 237.342 220.084 236.747C220.331 236.151 220.749 235.642 221.285 235.284C221.821 234.925 222.452 234.734 223.097 234.734C223.525 234.734 223.949 234.819 224.345 234.982C224.74 235.146 225.1 235.386 225.403 235.689C225.706 235.992 225.946 236.351 226.11 236.747C226.274 237.142 226.358 237.566 226.358 237.994Z" fill="white"/>
<path d="M237.343 236.91H208.871L209.24 234.905C209.487 233.664 210.135 232.539 211.083 231.702L212.586 230.355L216.351 215.856C216.918 213.021 219.655 210.987 222.852 210.987H223.348C226.545 210.987 229.296 213.035 229.849 215.856L233.621 230.355L235.117 231.702C236.075 232.531 236.725 233.66 236.96 234.905L237.343 236.91Z" fill="white"/>
<path d="M222.851 214.077C222.24 214.077 221.642 213.896 221.134 213.556C220.625 213.217 220.229 212.734 219.995 212.17C219.761 211.605 219.7 210.984 219.819 210.385C219.939 209.785 220.233 209.235 220.665 208.803C221.098 208.37 221.648 208.076 222.248 207.957C222.848 207.838 223.469 207.899 224.034 208.133C224.599 208.367 225.081 208.763 225.421 209.271C225.761 209.779 225.942 210.376 225.942 210.987C225.942 211.393 225.862 211.795 225.707 212.17C225.551 212.545 225.324 212.885 225.037 213.172C224.75 213.459 224.409 213.687 224.034 213.842C223.659 213.997 223.257 214.077 222.851 214.077ZM222.851 209.761C222.608 209.761 222.371 209.833 222.17 209.968C221.968 210.103 221.811 210.294 221.718 210.518C221.625 210.742 221.601 210.989 221.648 211.227C221.695 211.464 221.812 211.683 221.984 211.854C222.155 212.026 222.374 212.142 222.612 212.19C222.85 212.237 223.096 212.213 223.32 212.12C223.544 212.027 223.736 211.87 223.871 211.668C224.006 211.467 224.077 211.23 224.077 210.987C224.077 210.662 223.948 210.35 223.718 210.12C223.488 209.891 223.176 209.761 222.851 209.761Z" fill="white"/>
<path d="M179.285 80.766C179.288 80.9338 179.231 81.0971 179.124 81.2269C179.018 81.3567 178.869 81.4445 178.704 81.4746C177.902 81.5172 176.938 81.5455 175.868 81.5809C173.507 74.8911 170.905 69.5336 171.572 71.6242C172.571 74.8801 173.078 78.2673 173.075 81.6731L167.453 81.8006C165.574 70.0722 162.979 61.3486 163.078 64.0202C163.49 74.8061 162.759 78.2502 161.909 81.9211C148.354 82.1762 130.58 82.318 117.734 82.1479C116.43 75.6565 115.324 68.6478 115.09 69.1297C113.232 72.7226 112.616 77.9951 112.46 82.0628C108.369 81.9778 105.101 81.8361 103.116 81.6518C103.116 81.6518 102.308 76.2022 102.223 74.4163C101.994 69.8276 102.617 65.2362 104.059 60.8738C105.548 56.395 108.008 52.469 110.347 48.4367C110.365 48.4038 110.386 48.3729 110.411 48.3446C111.952 45.7252 113.178 42.9325 114.062 40.0249C114.067 40.0039 114.067 39.9821 114.062 39.9611C114.666 37.8597 115.081 35.7087 115.303 33.5335C116.118 25.5823 120.797 18.8217 128.34 16.9225C142.852 3.99643 156.861 9.98464 160.852 20.3099C161.235 21.3162 161.604 22.4359 161.958 23.7185V23.7611C163.284 28.4028 164.411 34.391 165.503 39.054C165.503 39.054 165.503 39.054 165.503 39.1036C165.902 40.9263 166.414 42.7227 167.034 44.4824C170.381 52.9013 178.413 57.8407 179.285 80.766Z" fill="#263238"/>
<path d="M125.019 18.9987C120.056 21.4223 116.922 25.0861 116.001 30.8759C115.462 34.2492 115.143 37.5515 113.753 40.7122C112.364 43.8728 110.117 46.6224 107.855 49.2657C104.268 53.4681 101.723 57.6847 101.028 63.3682C100.333 69.0516 100.411 75.9895 102.212 81.4462H102.261C100.844 75.9257 101 68.3359 102.134 62.6241C103.382 56.3453 107.061 52.476 110.847 47.7846C113.876 44.1293 115.856 39.7206 116.575 35.0287C117.022 32.194 117.064 29.1822 118.291 26.5247C119.765 23.3357 122.544 21.3515 125.38 19.6011C125.42 19.5774 125.454 19.5461 125.482 19.509C125.509 19.4719 125.529 19.4298 125.54 19.3851C125.551 19.3403 125.554 19.2938 125.547 19.2482C125.54 19.2026 125.524 19.1587 125.501 19.1192C125.477 19.0796 125.446 19.0451 125.409 19.0177C125.372 18.9902 125.329 18.9703 125.285 18.9591C125.24 18.948 125.193 18.9457 125.148 18.9525C125.102 18.9593 125.058 18.975 125.019 18.9987Z" fill="#263238"/>
<path d="M175.033 53.6247C171.694 49.0184 168.185 45.0711 166.313 39.4514C164.605 34.2995 163.697 28.8782 161.953 23.7262C161.953 23.7093 161.946 23.6931 161.934 23.6811C161.922 23.6691 161.906 23.6624 161.889 23.6624C161.872 23.6624 161.856 23.6691 161.844 23.6811C161.832 23.6931 161.825 23.7093 161.825 23.7262C164.477 32.8609 164.789 42.0097 170.425 49.7767C173.488 54.0287 176.557 57.9192 178.514 62.9366C180.498 68.1913 181.46 73.7763 181.35 79.3917C181.35 79.4293 181.365 79.4654 181.391 79.492C181.418 79.5185 181.454 79.5335 181.492 79.5335C181.529 79.5335 181.565 79.5185 181.592 79.492C181.618 79.4654 181.633 79.4293 181.633 79.3917C182.743 70.2793 180.387 61.0828 175.033 53.6247Z" fill="#263238"/>
<path d="M130.049 15.4423C129.822 17.3556 120.443 21.3809 114.218 16.08C107.994 10.7792 111.333 1.24772 120.187 2.76426C125.788 3.72095 130.538 11.4029 130.049 15.4423Z" fill="#263238"/>
<path d="M111.469 7.22869C112.597 4.94114 114.469 3.10458 116.779 2.02001C117.846 1.48941 119.035 1.24935 120.224 1.32399C121.414 1.39864 122.563 1.78536 123.556 2.44521C125.6 3.87514 127.216 5.83523 128.228 8.11452C128.779 9.25353 129.228 10.4393 129.568 11.6578C129.962 12.8833 130.126 14.1712 130.05 15.4563C130.406 14.1737 130.476 12.8287 130.256 11.5161C130.075 10.1917 129.74 8.89303 129.256 7.6468C128.317 5.06064 126.594 2.83133 124.329 1.26883C123.127 0.48854 121.735 0.0500334 120.302 0.000320276C118.888 -0.0123228 117.497 0.349558 116.268 1.04914C115.091 1.70023 114.058 2.58376 113.233 3.64606C112.408 4.70837 111.808 5.92727 111.469 7.22869Z" fill="#263238"/>
<path d="M156.657 80.9731C188.68 103.275 232.11 149.38 227.955 162.2C223.326 176.473 178.393 149.862 179.201 147.736C179.91 145.929 159.67 113.791 144.945 90.2778C130.22 66.7644 148.724 75.4597 156.657 80.9731Z" fill="#F7A9A0"/>
<path d="M195.742 107.569L159.224 122.09C159.224 122.09 144.336 97.1591 139.374 82.6315C136.623 74.489 141.465 73.1496 148.548 76.3386C173.361 87.4859 195.742 107.569 195.742 107.569Z" fill="#455A64"/>
<path d="M161.349 82.9057C157.413 82.3387 153.419 82.303 149.474 82.7994C146.284 83.1396 143.094 83.6427 139.939 84.1459C139.854 83.9262 139.776 83.7065 139.698 83.4868C142.916 82.9837 146.149 82.4876 149.41 82.1403C152.875 81.7223 156.375 81.6937 159.846 82.0553L161.349 82.9057ZM170.501 88.5254C167.914 89.2341 165.319 89.9427 162.703 90.5168C158.641 91.3742 154.486 92.1396 150.367 91.7569C148.308 91.5367 146.283 91.0606 144.341 90.3396C143.562 90.049 142.789 89.716 142.037 89.3545L142.293 89.9356C142.909 90.2333 143.54 90.5097 144.185 90.7577C146.154 91.526 148.212 92.0404 150.311 92.2884C152.415 92.4706 154.533 92.4254 156.627 92.1538C158.712 91.9021 160.78 91.5354 162.824 91.0553C165.589 90.4175 168.325 89.638 171.04 88.8656L170.501 88.5254ZM187.424 100.679C184.326 103.308 181.207 105.909 177.938 108.311C174.67 110.714 171.083 113.116 167.162 114.441C165.189 115.069 163.146 115.453 161.08 115.582C159.155 115.685 157.226 115.607 155.316 115.348L155.557 115.759C157.395 116.016 159.253 116.106 161.108 116.029C163.219 115.937 165.309 115.573 167.325 114.944C169.325 114.266 171.243 113.37 173.047 112.273C174.854 111.191 176.598 110.008 178.272 108.729C181.554 106.263 184.688 103.606 187.786 100.934L187.424 100.679ZM186.297 99.8002C184.269 99.8002 182.235 99.942 180.207 100.126C178.116 100.339 176.042 100.687 173.997 101.168C169.909 102.203 165.998 103.839 162.391 106.022C159.279 107.815 156.266 109.757 153.267 111.692C153.388 111.897 153.494 112.088 153.6 112.287C156.62 110.338 159.619 108.368 162.724 106.618C166.278 104.466 170.122 102.836 174.138 101.777C176.154 101.28 178.2 100.913 180.264 100.679C182.334 100.466 184.411 100.318 186.495 100.282H186.878L186.297 99.8002Z" fill="#37474F"/>
<path d="M190.849 109.518L159.216 122.083C159.216 122.083 144.328 97.1593 139.401 82.6387C137.642 77.423 138.996 74.9993 142.052 74.7655L190.849 109.518Z" fill="#37474F"/>
<path d="M158.209 115.831C163.646 113.131 178.591 106.235 188.892 103.025C188.956 103.025 189.055 103.238 188.998 103.266C180.831 107.228 164.008 113.953 158.358 116.164C158.251 116.206 158.109 115.88 158.209 115.831Z" fill="#263238"/>
<path d="M181.96 188.681H88.776C88.776 188.681 92.5547 116.142 124.131 80.1846C132.638 70.4901 146.045 72.8499 152.872 79.9224C164.151 91.6154 177.465 117 178.479 122.541C180.152 131.697 174.885 141.59 174.885 141.59L181.96 188.681Z" fill="#455A64"/>
<path d="M177.08 156.402C174.663 157.111 172.224 157.819 169.764 158.386C165.693 159.401 161.542 160.065 157.357 160.371C155.261 160.502 153.158 160.502 151.062 160.371C148.963 160.19 146.89 159.781 144.88 159.152C140.883 157.858 137.07 156.052 133.537 153.78C129.992 151.59 126.568 149.152 123.066 146.878C121.137 145.609 119.181 144.376 117.167 143.249L116.366 142.81C114.998 142.066 113.601 141.393 112.169 140.769C110.262 139.949 108.28 139.317 106.25 138.884C104.221 138.472 102.149 138.312 100.082 138.409C98.9409 138.488 97.8065 138.642 96.6859 138.87C96.7355 138.671 96.7852 138.473 96.8419 138.274C97.9 138.071 98.9705 137.939 100.046 137.878C102.16 137.796 104.276 137.987 106.342 138.445C108.393 138.912 110.395 139.576 112.318 140.429C113.844 141.101 115.335 141.85 116.785 142.675C117.054 142.817 117.309 142.966 117.571 143.122C119.493 144.234 121.364 145.439 123.2 146.665C126.667 149.004 130.091 151.406 133.664 153.553C137.201 155.801 141.013 157.58 145.008 158.847C146.997 159.446 149.047 159.826 151.119 159.981C153.196 160.081 155.277 160.05 157.35 159.889C161.499 159.527 165.613 158.832 169.651 157.812C172.125 157.217 174.613 156.515 177.009 155.764L177.08 156.402ZM176.69 153.801C175.464 153.093 174.259 152.292 173.068 151.505C169.565 149.23 166.163 146.793 162.597 144.603C159.061 142.335 155.249 140.53 151.253 139.231C149.245 138.603 147.175 138.194 145.079 138.012C142.982 137.881 140.88 137.881 138.783 138.012C134.596 138.318 130.443 138.982 126.369 139.996C123.144 140.769 119.954 141.697 116.792 142.675L116.373 142.81L114.303 143.455C110.312 144.716 106.363 146.063 102.336 147.126C99.7384 147.843 97.0882 148.354 94.4102 148.656C94.3606 148.883 94.318 149.103 94.2684 149.323C97.052 149.03 99.8072 148.511 102.506 147.771C107.469 146.445 112.304 144.787 117.174 143.249L117.579 143.122C120.535 142.193 123.505 141.315 126.518 140.592C130.555 139.565 134.669 138.869 138.819 138.508C140.89 138.35 142.968 138.319 145.043 138.416C147.115 138.57 149.165 138.95 151.154 139.55C155.132 140.805 158.93 142.571 162.455 144.801C166.035 146.927 169.459 149.351 172.926 151.689C174.181 152.533 175.45 153.362 176.74 154.156L176.69 153.801ZM154.6 81.8152C152.863 81.8152 151.126 81.964 149.41 82.1412C144.306 82.6869 139.265 83.5585 134.217 84.3522L133.792 84.416C130.729 84.8837 127.66 85.2948 124.576 85.5499C122.924 85.6845 121.265 85.7908 119.613 85.8404L119.181 86.4357C121.003 86.4357 122.818 86.301 124.633 86.1593C127.943 85.89 131.233 85.4507 134.508 84.9829L134.948 84.9192L137.075 84.5932C141.208 83.9625 145.32 83.2396 149.46 82.8003C151.343 82.5885 153.236 82.475 155.131 82.4601C154.975 82.2404 154.791 82.0278 154.6 81.8152ZM161.484 90.7656C157.804 91.5168 154.061 92.105 150.346 91.7578C148.286 91.5375 146.262 91.0614 144.32 90.3404C142.377 89.601 140.513 88.6705 138.755 87.5625C137.436 86.7404 136.16 85.8475 134.926 84.9121L134.217 84.3451C132.403 82.9278 130.673 81.3971 128.95 79.8522C128.177 79.1435 127.419 78.4349 126.653 77.7617L126.49 77.8963L128.78 80.0223C130.41 81.5247 132.062 83.0058 133.792 84.3947C134.026 84.5932 134.26 84.7774 134.501 84.9617C135.81 85.9977 137.171 86.9674 138.577 87.8672C140.347 89.0046 142.223 89.9681 144.178 90.7444C146.147 91.5127 148.205 92.027 150.303 92.2751C152.408 92.4573 154.526 92.4121 156.62 92.1404C158.388 91.9278 160.132 91.6326 161.852 91.2546L161.484 90.7656ZM173.67 111.218C171.631 112.546 169.442 113.628 167.148 114.442C165.175 115.07 163.132 115.453 161.065 115.583C158.991 115.692 156.91 115.594 154.855 115.292C153.309 115.08 151.785 114.775 150.275 114.414L149.431 114.201C147.191 113.627 144.986 112.94 142.796 112.217C138.819 110.934 134.905 109.46 130.893 108.27C126.893 106.991 122.744 106.236 118.55 106.023C116.447 105.936 114.341 106.076 112.269 106.441C110.559 106.78 108.873 107.227 107.221 107.781L106.966 108.376C108.724 107.754 110.521 107.25 112.347 106.866C114.387 106.473 116.466 106.309 118.543 106.377C122.71 106.554 126.837 107.269 130.822 108.503C134.834 109.652 138.762 111.076 142.718 112.437C144.809 113.145 146.929 113.854 149.098 114.414L149.97 114.641C151.588 115.058 153.225 115.394 154.876 115.647C156.955 115.975 159.061 116.099 161.164 116.015C163.275 115.924 165.365 115.56 167.382 114.931C169.381 114.253 171.3 113.357 173.103 112.259L173.996 111.714L173.67 111.218ZM169.041 102.714C166.749 103.656 164.525 104.755 162.384 106.002C157.939 108.589 153.685 111.452 149.431 114.201L149.07 114.428C146.461 116.086 143.824 117.709 141.101 119.19C137.467 121.225 133.673 122.962 129.758 124.385C127.798 125.076 125.797 125.646 123.768 126.093C121.726 126.479 119.648 126.642 117.571 126.581C113.407 126.402 109.282 125.687 105.3 124.456C103.957 124.073 102.629 123.664 101.315 123.23C101.315 123.293 101.266 123.364 101.244 123.435C102.563 123.874 103.889 124.3 105.222 124.696C109.211 125.972 113.347 126.732 117.529 126.957C119.632 127.046 121.738 126.903 123.81 126.532C125.868 126.108 127.898 125.554 129.886 124.874C133.85 123.497 137.688 121.78 141.357 119.743C144.277 118.163 147.106 116.441 149.906 114.676C150.034 114.598 150.162 114.52 150.282 114.435C150.899 114.052 151.509 113.663 152.118 113.273C155.663 111.026 159.109 108.695 162.753 106.626C164.891 105.37 167.116 104.266 169.41 103.323C169.282 103.118 169.168 102.926 169.055 102.735L169.041 102.714ZM179.072 169.562C176.06 168.762 172.97 168.286 169.856 168.145C167.753 168.057 165.647 168.197 163.575 168.563C161.517 168.989 159.488 169.543 157.499 170.221C153.536 171.6 149.698 173.316 146.029 175.352C143.108 176.932 140.272 178.654 137.472 180.419C137.351 180.504 137.223 180.582 137.096 180.66L135.253 181.879C131.708 184.125 128.255 186.449 124.618 188.526L124.342 188.682H125.668C129.857 186.23 133.87 183.53 137.947 180.936L138.308 180.702C140.917 179.044 143.554 177.421 146.277 175.94C149.91 173.903 153.704 172.166 157.62 170.745C159.575 170.047 161.574 169.477 163.603 169.038C165.644 168.645 167.722 168.481 169.799 168.549C172.937 168.658 176.053 169.107 179.094 169.888L179.072 169.562ZM181.596 186.329C181.412 186.407 181.228 186.471 181.043 186.534C179.084 187.229 177.083 187.799 175.053 188.242C173.997 188.449 172.929 188.589 171.855 188.66C170.856 188.731 169.863 188.753 168.864 188.731C168.382 188.731 167.899 188.696 167.446 188.66C163.771 188.364 160.139 187.67 156.613 186.591C152.6 185.443 148.673 184.012 144.717 182.651C142.59 181.942 140.506 181.234 138.336 180.681L137.457 180.447C135.842 180.03 134.207 179.694 132.559 179.441C130.479 179.12 128.373 178.996 126.27 179.072C124.158 179.171 122.067 179.535 120.046 180.156C118.047 180.839 116.129 181.737 114.324 182.835C112.52 183.918 110.778 185.101 109.107 186.379C108.1 187.13 107.107 187.9 106.129 188.689H106.973C107.781 188.056 108.601 187.434 109.433 186.825C112.8 184.394 116.288 182.02 120.216 180.695C122.186 180.064 124.227 179.68 126.291 179.554C128.366 179.443 130.446 179.538 132.502 179.838C134.04 180.057 135.564 180.355 137.082 180.716L137.975 180.943C140.208 181.503 142.42 182.19 144.611 182.913C148.581 184.203 152.501 185.677 156.514 186.868C159.092 187.656 161.721 188.264 164.383 188.689C165.862 188.92 167.354 189.062 168.849 189.114C170.952 189.203 173.059 189.06 175.131 188.689C177.189 188.266 179.219 187.712 181.206 187.03L181.667 186.868L181.596 186.329Z" fill="#37474F"/>
<path d="M146.44 135.106C150.699 135.523 154.922 136.255 159.073 137.295C161.129 137.841 163.142 138.479 165.156 139.166C166.163 139.506 167.169 139.811 168.183 140.109C169.239 140.458 170.335 140.674 171.444 140.754C171.46 140.759 171.474 140.769 171.484 140.782C171.494 140.795 171.499 140.811 171.499 140.828C171.499 140.845 171.494 140.861 171.484 140.874C171.474 140.888 171.46 140.898 171.444 140.903C170.397 140.945 169.347 140.917 168.304 140.817C167.296 140.689 166.299 140.493 165.319 140.229C163.228 139.698 161.164 139.067 159.08 138.507C154.869 137.388 150.665 136.268 146.39 135.46C146.352 135.445 146.32 135.417 146.299 135.381C146.278 135.346 146.27 135.304 146.276 135.263C146.282 135.223 146.301 135.185 146.331 135.156C146.36 135.128 146.399 135.11 146.44 135.106Z" fill="#263238"/>
<path d="M135.872 138.79C139.387 138.453 142.919 138.313 146.45 138.372C148.215 138.372 149.994 138.549 151.724 138.734C152.561 138.819 153.397 138.925 154.234 139.038C155.07 139.152 156.056 139.414 156.978 139.527C157.077 139.527 157.07 139.683 156.978 139.676C156.106 139.598 155.212 139.676 154.34 139.634L151.703 139.542C149.945 139.485 148.158 139.442 146.421 139.372C142.877 139.216 139.389 139.102 135.865 139.074C135.674 139.074 135.695 138.805 135.872 138.79Z" fill="#263238"/>
<path d="M227.926 161.908C224.289 172.035 208.529 178.066 170.274 196.987C164.978 199.602 136.45 167.223 141.959 164.141C148.9 160.25 176.697 146.672 178.824 145.935C197.016 139.713 230.386 155.034 227.926 161.908Z" fill="#F7A9A0"/>
<path d="M103.398 207.073C107.22 210.411 114.649 200.298 114.649 200.298C114.367 202.466 114.851 204.664 116.018 206.513C118.229 209.674 124.156 207.597 124.156 207.597C124.332 209.907 125.197 212.111 126.638 213.926C129.062 216.76 135.336 215.492 135.336 215.492C136.695 217.492 138.696 218.969 141.008 219.68C151.458 222.43 169.876 201.318 173.853 194.168L150.572 159.94C150.572 159.94 123.759 167.735 115.968 176.033C111.665 180.654 97.5566 201.97 103.398 207.073Z" fill="#F7A9A0"/>
<path d="M114.617 200.119C117.496 193.848 121.877 188.278 126.159 182.941C126.251 182.828 126.436 182.977 126.343 183.097C122.019 188.349 118.999 194.882 114.894 200.297C114.781 200.445 114.54 200.29 114.617 200.119Z" fill="#263238"/>
<path d="M123.911 207.122C124.704 205.76 125.672 204.506 126.79 203.395C127.896 202.147 129.03 200.921 130.178 199.717C132.475 197.293 134.839 194.931 137.268 192.63C137.374 192.531 137.559 192.63 137.452 192.779C135.162 195.195 132.915 197.647 130.731 200.163C129.632 201.418 128.555 202.686 127.477 203.962C126.544 205.228 125.471 206.385 124.28 207.413C124.241 207.462 124.185 207.493 124.123 207.501C124.061 207.508 123.999 207.49 123.95 207.452C123.901 207.413 123.87 207.357 123.863 207.295C123.855 207.233 123.873 207.171 123.911 207.122Z" fill="#263238"/>
<path d="M135.436 215.385C135.989 214.145 137.258 213.124 138.201 212.167C139.279 211.09 140.328 209.999 141.399 208.908C143.526 206.725 145.652 204.535 147.673 202.275C147.772 202.161 147.956 202.31 147.857 202.423C145.794 204.734 143.767 207.065 141.682 209.354C140.661 210.474 139.633 211.591 138.598 212.706C137.719 213.649 136.727 214.931 135.543 215.498C135.527 215.504 135.51 215.504 135.495 215.5C135.479 215.497 135.464 215.488 135.453 215.476C135.442 215.464 135.434 215.449 135.431 215.433C135.428 215.417 135.43 215.4 135.436 215.385Z" fill="#263238"/>
<path d="M197.946 145.29C194.77 144.369 186.015 142.583 178.868 145.857C178.854 145.864 178.842 145.876 178.835 145.891C178.828 145.906 178.826 145.923 178.83 145.939C178.835 145.955 178.844 145.969 178.858 145.979C178.871 145.988 178.887 145.993 178.904 145.992C185.057 144.17 194.763 144.78 197.918 145.418C197.935 145.421 197.952 145.418 197.967 145.409C197.982 145.4 197.992 145.385 197.996 145.368C198 145.351 197.996 145.333 197.987 145.319C197.978 145.304 197.963 145.294 197.946 145.29Z" fill="#263238"/>
<path d="M129.58 87.7615C128.262 102.806 108 170.874 76.2536 181.248C65.4776 184.792 49.5263 142.414 53.4326 92.786C53.5461 91.319 86.9587 83.7859 89.7235 91.4608C90.0213 92.2828 92.5593 114.372 91.6164 114.138C90.4183 113.855 100.57 102.693 117.224 84.3174C125.114 75.6363 130.389 78.7686 129.58 87.7615Z" fill="#F7A9A0"/>
<path d="M91.064 112.402C92.3755 123.705 93.4602 135.079 94.233 146.418C94.4457 149.586 94.6938 152.746 94.9419 155.914C94.9419 156.028 95.1333 156.006 95.1333 155.914C95.3413 150.22 95.2514 144.52 94.8639 138.835C94.4882 133.209 93.9919 127.497 93.0632 121.955C92.5315 118.752 91.9502 115.577 91.2979 112.388C91.2483 112.218 91.0498 112.268 91.064 112.402Z" fill="#263238"/>
<path d="M53.3769 102.595C50.6829 99.0514 39.7581 81.7104 37.7801 76.2041C35.8022 70.6977 31.3287 54.4481 35.3981 52.5205C39.4674 50.593 41.1547 55.2418 41.1547 55.2418C41.1547 55.2418 40.3465 48.0843 44.6144 46.5111C48.8822 44.9378 51.2856 52.2725 51.2856 52.2725C51.2856 52.2725 50.9878 44.8528 55.3549 43.5984C59.722 42.3441 60.9059 50.104 60.9059 50.104C60.9059 50.104 60.3175 43.3362 64.3585 43.811C69.2148 44.3851 68.8816 56.9851 71.5047 62.9024C72.0931 64.2418 85.4993 89.2647 85.4993 89.2647L53.3769 102.595Z" fill="#F7A9A0"/>
<path d="M60.8129 49.4363C60.5931 58.7056 62.0961 62.7946 66.7822 70.6254C66.8744 70.7742 66.6688 70.9514 66.5553 70.7954C61.2737 63.5458 58.6435 58.6915 60.3662 49.408C60.4442 48.9473 60.8129 49.004 60.8129 49.4363Z" fill="#263238"/>
<path d="M51.3371 51.5344C51.9468 61.1793 53.542 65.6297 57.8453 74.2116C57.9091 74.3321 57.7106 74.4455 57.6397 74.3321C52.677 66.2887 50.1957 61.3777 50.855 51.6548C50.8905 51.2013 51.3088 51.1304 51.3371 51.5344Z" fill="#263238"/>
<path d="M41.4098 55.6738C42.6717 64.9644 44.2456 69.925 49.4563 77.6991C49.4789 77.735 49.4873 77.7781 49.4797 77.8198C49.4721 77.8616 49.4492 77.899 49.4155 77.9247C49.3818 77.9505 49.3396 77.9627 49.2973 77.959C49.255 77.9552 49.2157 77.9358 49.187 77.9046C43.0617 70.499 41.0979 64.3266 41.1333 55.7447C41.1333 55.1565 41.3318 55.0856 41.4098 55.6738Z" fill="#263238"/>
<path d="M73.5749 25.9083H48.0032C47.3107 25.9158 46.6493 26.1975 46.1642 26.6917C45.6791 27.1859 45.4099 27.8522 45.4156 28.5446V81.1416C45.4099 81.8339 45.6791 82.5002 46.1642 82.9944C46.6493 83.4886 47.3107 83.7703 48.0032 83.7778H73.5749C74.2675 83.7703 74.9288 83.4886 75.4139 82.9944C75.899 82.5002 76.1682 81.8339 76.1626 81.1416V28.5446C76.1682 27.8522 75.899 27.1859 75.4139 26.6917C74.9288 26.1975 74.2675 25.9158 73.5749 25.9083ZM74.5462 79.5188C74.5585 79.8352 74.5083 80.151 74.3984 80.4481C74.2886 80.7451 74.1212 81.0176 73.9059 81.25C73.6906 81.4823 73.4315 81.6699 73.1436 81.8021C72.8557 81.9343 72.5445 82.0085 72.2279 82.0203H49.3502C48.7115 81.9945 48.1089 81.7168 47.6744 81.248C47.24 80.7792 47.009 80.1574 47.032 79.5188V30.5359C47.032 27.7013 48.0741 27.5808 49.3502 27.5808H53.9371C54.1994 27.5808 54.4192 27.8855 54.4192 28.2894V28.4524C54.4192 29.3312 54.9013 29.3383 55.4897 29.3383H66.0814C66.6769 29.3383 67.159 29.3383 67.159 28.4524V28.2894C67.159 27.9209 67.3716 27.5808 67.641 27.5808H72.2208C73.504 27.5808 74.5391 27.9564 74.5391 30.5359L74.5462 79.5188Z" fill="#37474F"/>
<path d="M74.5394 30.5779V79.5607C74.5518 79.8772 74.5016 80.193 74.3917 80.4901C74.2818 80.7871 74.1145 81.0596 73.8991 81.292C73.6838 81.5243 73.4248 81.7119 73.1369 81.8441C72.849 81.9763 72.5378 82.0505 72.2212 82.0623H49.3577C48.7176 82.0383 48.1133 81.7614 47.6773 81.2924C47.2413 80.8234 47.0093 80.2006 47.0323 79.5607V30.5779C47.0323 27.7433 48.0745 27.6228 49.3577 27.6228H53.9375C54.1998 27.6228 54.4195 27.9275 54.4195 28.3314V28.4519C54.4195 29.3307 54.9016 29.3377 55.4901 29.3377H66.0817C66.6772 29.3377 67.1593 29.3377 67.1593 28.4519V28.2889C67.1593 27.9204 67.372 27.5803 67.6414 27.5803H72.2212C73.5044 27.6228 74.5394 27.9984 74.5394 30.5779Z" fill="#69008E"/>
<path opacity="0.2" d="M74.5389 36.8297V79.5621C74.5512 79.8786 74.501 80.1944 74.3911 80.4914C74.2813 80.7885 74.1139 81.061 73.8986 81.2933C73.6833 81.5257 73.4243 81.7133 73.1363 81.8455C72.8484 81.9777 72.5372 82.0518 72.2206 82.0637H49.3571C49.0405 82.0518 48.7294 81.9777 48.4414 81.8455C48.1535 81.7133 47.8945 81.5257 47.6792 81.2933C47.4639 81.061 47.2965 80.7885 47.1866 80.4914C47.0767 80.1944 47.0266 79.8786 47.0389 79.5621V47.5022C53.0578 46.7297 59.091 55.5172 64.7058 52.9305C69.8315 50.5565 69.5975 43.0518 71.5046 39.6289C72.1865 38.3923 73.2512 37.4101 74.5389 36.8297Z" fill="white"/>
<path opacity="0.2" d="M74.5389 64.965V79.5634C74.5512 79.8799 74.501 80.1957 74.3911 80.4928C74.2813 80.7898 74.1139 81.0623 73.8986 81.2946C73.6833 81.527 73.4243 81.7146 73.1363 81.8468C72.8484 81.979 72.5372 82.0531 72.2206 82.065H49.3571C49.0405 82.0531 48.7294 81.979 48.4414 81.8468C48.1535 81.7146 47.8945 81.527 47.6792 81.2946C47.4639 81.0623 47.2965 80.7898 47.1866 80.4928C47.0767 80.1957 47.0266 79.8799 47.0389 79.5634V60.4791C50.3 66.1839 53.9582 67.8279 57.2832 66.9846C61.0831 66.0209 66.4994 61.1027 71.6322 62.8177C72.8007 63.2143 73.8166 63.9648 74.5389 64.965Z" fill="white"/>
<path d="M62.2303 28.2063H59.3378C59.2908 28.2063 59.2457 28.1876 59.2125 28.1543C59.1792 28.121 59.1606 28.0759 59.1606 28.0289C59.1605 27.9811 59.179 27.9352 59.212 27.9008C59.2451 27.8664 59.2901 27.8462 59.3378 27.8443H62.2303C62.2779 27.8462 62.323 27.8664 62.3561 27.9008C62.3891 27.9352 62.4076 27.9811 62.4075 28.0289C62.4075 28.0759 62.3889 28.121 62.3556 28.1543C62.3224 28.1876 62.2773 28.2063 62.2303 28.2063Z" fill="#263238"/>
<path d="M53.1418 28.6795L53.0992 28.7221C53.0441 28.6651 52.9779 28.6199 52.9046 28.5894C52.8314 28.5589 52.7527 28.5437 52.6734 28.5447C52.5137 28.5458 52.3609 28.6095 52.2476 28.7221L52.1979 28.6795C52.2134 28.6594 52.2327 28.6425 52.2547 28.6299C52.2915 28.5936 52.3348 28.5647 52.3825 28.5447C52.4356 28.5163 52.4932 28.4971 52.5528 28.4879H52.6379H52.7728C52.8243 28.4772 52.8774 28.4772 52.9289 28.4879L53.0353 28.5376C53.0712 28.5571 53.1046 28.581 53.1347 28.6086L53.1844 28.6511L53.1418 28.6795Z" fill="#263238"/>
<path d="M52.3613 28.8864L52.2903 28.8225C52.3659 28.7441 52.4661 28.694 52.5742 28.6806C52.6514 28.666 52.731 28.6714 52.8055 28.6963C52.88 28.7211 52.947 28.7646 53 28.8225L52.929 28.8864C52.8525 28.8135 52.7509 28.7728 52.6452 28.7728C52.5395 28.7728 52.4378 28.8135 52.3613 28.8864Z" fill="#263238"/>
<path d="M52.864 28.9572L52.793 29.0282C52.7517 28.9922 52.6988 28.9724 52.644 28.9724C52.5892 28.9724 52.5363 28.9922 52.495 29.0282L52.4311 28.9572C52.4893 28.9013 52.5669 28.87 52.6476 28.87C52.7283 28.87 52.8058 28.9013 52.864 28.9572Z" fill="#263238"/>
<path d="M52.7075 29.0891C52.7075 29.1017 52.7038 29.114 52.6968 29.1244C52.6898 29.1349 52.6799 29.1431 52.6682 29.1479C52.6566 29.1527 52.6438 29.154 52.6315 29.1515C52.6191 29.149 52.6078 29.143 52.5989 29.1341C52.59 29.1252 52.5839 29.1138 52.5815 29.1015C52.579 29.0892 52.5803 29.0764 52.5851 29.0647C52.5899 29.0531 52.5981 29.0432 52.6085 29.0362C52.619 29.0292 52.6313 29.0255 52.6439 29.0255C52.6608 29.0255 52.6769 29.0322 52.6889 29.0441C52.7008 29.056 52.7075 29.0722 52.7075 29.0891Z" fill="#263238"/>
<path d="M48.8266 28.8149C48.8266 28.7784 48.8375 28.7427 48.8577 28.7124C48.878 28.682 48.9068 28.6584 48.9405 28.6444C48.9743 28.6304 49.0114 28.6268 49.0472 28.6339C49.0829 28.641 49.1158 28.6586 49.1416 28.6844C49.1674 28.7102 49.185 28.7431 49.1921 28.7789C49.1992 28.8147 49.1956 28.8518 49.1816 28.8855C49.1677 28.9192 49.144 28.948 49.1137 28.9683C49.0833 28.9886 49.0477 28.9994 49.0112 28.9994C48.9622 28.9994 48.9153 28.9799 48.8807 28.9453C48.8461 28.9107 48.8266 28.8638 48.8266 28.8149Z" fill="#263238"/>
<path d="M49.3979 28.8149C49.3979 28.7784 49.4087 28.7427 49.429 28.7124C49.4493 28.682 49.4781 28.6584 49.5118 28.6444C49.5455 28.6304 49.5826 28.6268 49.6184 28.6339C49.6542 28.641 49.6871 28.6586 49.7129 28.6844C49.7387 28.7102 49.7562 28.7431 49.7634 28.7789C49.7705 28.8147 49.7668 28.8518 49.7529 28.8855C49.7389 28.9192 49.7152 28.948 49.6849 28.9683C49.6546 28.9886 49.6189 28.9994 49.5824 28.9994C49.5335 28.9994 49.4865 28.9799 49.4519 28.9453C49.4173 28.9107 49.3979 28.8638 49.3979 28.8149Z" fill="#263238"/>
<path d="M50.1579 28.9994C50.2598 28.9994 50.3424 28.9168 50.3424 28.8149C50.3424 28.713 50.2598 28.6304 50.1579 28.6304C50.056 28.6304 49.9734 28.713 49.9734 28.8149C49.9734 28.9168 50.056 28.9994 50.1579 28.9994Z" fill="#263238"/>
<path d="M50.7312 28.9994C50.8331 28.9994 50.9157 28.9168 50.9157 28.8149C50.9157 28.713 50.8331 28.6304 50.7312 28.6304C50.6293 28.6304 50.5467 28.713 50.5467 28.8149C50.5467 28.9168 50.6293 28.9994 50.7312 28.9994Z" fill="#263238"/>
<path d="M51.3067 28.9994C51.4086 28.9994 51.4913 28.9168 51.4913 28.8149C51.4913 28.713 51.4086 28.6304 51.3067 28.6304C51.2048 28.6304 51.1222 28.713 51.1222 28.8149C51.1222 28.9168 51.2048 28.9994 51.3067 28.9994Z" fill="#263238"/>
<path d="M72.4758 29.2114H70.9941V28.5017H72.4758V29.2114ZM71.0579 29.1333H72.3908V28.6011H71.0579V29.1333Z" fill="#263238"/>
<path d="M72.0718 28.6445H71.1138V29.0987H72.0718V28.6445Z" fill="#263238"/>
<path d="M72.6118 28.687H72.4769V29.056H72.6118V28.687Z" fill="#263238"/>
<path d="M61.7014 53.3143C61.7028 53.4966 61.6495 53.6752 61.5486 53.827C61.4476 53.9788 61.3036 54.097 61.135 54.1664C60.9663 54.2357 60.7808 54.2531 60.6022 54.2163C60.4235 54.1795 60.26 54.0901 60.1326 53.9597C60.0052 53.8293 59.9197 53.6638 59.8871 53.4844C59.8545 53.305 59.8763 53.12 59.9497 52.9531C60.0231 52.7862 60.1447 52.6451 60.2989 52.5478C60.4532 52.4506 60.633 52.4016 60.8153 52.4073C61.0522 52.4128 61.2776 52.5108 61.4432 52.6803C61.6088 52.8498 61.7015 53.0774 61.7014 53.3143Z" fill="white"/>
<path d="M64.7604 53.0082H56.806L56.9124 52.4483C56.9816 52.1017 57.1636 51.7878 57.4299 51.5554L57.8482 51.1798L58.8974 47.1262C58.9994 46.7252 59.2359 46.3713 59.5675 46.1237C59.8992 45.876 60.3058 45.7496 60.7194 45.7656H60.8541C61.2668 45.7499 61.6724 45.8766 62.0029 46.1243C62.3333 46.372 62.5685 46.7258 62.669 47.1262L63.7253 51.1798L64.1436 51.5554C64.4103 51.7864 64.5904 52.1013 64.6541 52.4483L64.7604 53.0082Z" fill="white"/>
<path d="M60.7235 46.6318C60.5521 46.6332 60.3842 46.5837 60.241 46.4895C60.0979 46.3954 59.9859 46.2609 59.9194 46.103C59.8528 45.9452 59.8347 45.7711 59.8672 45.6029C59.8998 45.4348 59.9816 45.28 60.1023 45.1584C60.223 45.0368 60.3771 44.9537 60.545 44.9198C60.713 44.8859 60.8873 44.9026 61.0457 44.9678C61.2042 45.033 61.3397 45.1438 61.435 45.2862C61.5304 45.4285 61.5813 45.5959 61.5813 45.7672C61.5813 45.9953 61.4912 46.2141 61.3305 46.3761C61.1698 46.538 60.9516 46.6299 60.7235 46.6318ZM60.7235 45.427C60.6542 45.4256 60.5861 45.445 60.5279 45.4826C60.4697 45.5202 60.424 45.5744 60.3969 45.6381C60.3697 45.7018 60.3622 45.7722 60.3754 45.8402C60.3886 45.9083 60.4218 45.9708 60.4708 46.0198C60.5198 46.0688 60.5824 46.102 60.6504 46.1151C60.7184 46.1283 60.7889 46.1208 60.8526 46.0937C60.9164 46.0665 60.9706 46.0209 61.0082 45.9627C61.0458 45.9046 61.0652 45.8365 61.0638 45.7672C61.0535 45.6839 61.0133 45.6071 60.9508 45.5511C60.8882 45.495 60.8075 45.4636 60.7235 45.4625V45.427Z" fill="white"/>
<path d="M60.8143 58.634C59.0196 58.634 57.2651 58.102 55.7728 57.1053C54.2805 56.1086 53.1174 54.6919 52.4306 53.0344C51.7438 51.3769 51.5641 49.5531 51.9142 47.7935C52.2643 46.0339 53.1286 44.4176 54.3977 43.1491C55.6668 41.8805 57.2837 41.0165 59.044 40.6665C60.8043 40.3165 62.6288 40.4962 64.287 41.1827C65.9451 41.8693 67.3624 43.0319 68.3595 44.5236C69.3566 46.0153 69.8888 47.7691 69.8888 49.5631C69.887 51.9683 68.9303 54.2745 67.2289 55.9752C65.5275 57.6759 63.2205 58.6322 60.8143 58.634ZM60.8143 41.2009C59.1598 41.2009 57.5424 41.6914 56.1667 42.6102C54.791 43.5291 53.7187 44.8351 53.0856 46.3631C52.4524 47.8911 52.2867 49.5724 52.6095 51.1945C52.9323 52.8167 53.729 54.3067 54.899 55.4761C56.0689 56.6456 57.5595 57.442 59.1823 57.7647C60.8051 58.0874 62.4871 57.9218 64.0157 57.2888C65.5443 56.6559 66.8508 55.5841 67.77 54.209C68.6893 52.8338 69.1799 51.217 69.1799 49.5631C69.1761 47.3472 68.2933 45.2231 66.7251 43.6568C65.1569 42.0905 63.0312 41.2099 60.8143 41.208V41.2009Z" fill="white"/>
<path d="M52.4049 64.0566C52.4314 64.0306 52.467 64.0161 52.5041 64.0161C52.5412 64.0161 52.5769 64.0306 52.6034 64.0566C52.7479 64.1812 52.9302 64.2536 53.1209 64.2621C53.242 64.2662 53.3613 64.2314 53.4612 64.1629C53.4946 64.1413 53.5224 64.112 53.5421 64.0775C53.5619 64.043 53.573 64.0042 53.5746 63.9645C53.5818 63.9366 53.5818 63.9073 53.5746 63.8794C53.5514 63.8484 53.5225 63.8219 53.4895 63.8015C53.3766 63.7343 53.2512 63.6909 53.1209 63.6739C53.0013 63.6523 52.8847 63.6166 52.7735 63.5676C52.6696 63.5231 52.5809 63.4492 52.5183 63.355C52.475 63.2874 52.4527 63.2085 52.4545 63.1282C52.458 63.0506 52.4797 62.9749 52.5179 62.9072C52.5561 62.8395 52.6096 62.7817 52.6743 62.7385C52.8108 62.6411 52.9745 62.5891 53.1422 62.5896C53.3584 62.6006 53.5662 62.6772 53.7377 62.8093C53.7669 62.8307 53.7869 62.8624 53.7934 62.898C53.8 62.9335 53.7928 62.9703 53.7731 63.0007C53.7528 63.031 53.7216 63.0524 53.686 63.0603C53.6503 63.0683 53.613 63.0621 53.5817 63.0432C53.456 62.9419 53.303 62.8803 53.1422 62.866C53.0337 62.8662 52.9277 62.8982 52.8373 62.9582C52.809 62.9772 52.7854 63.0024 52.7683 63.0319C52.7511 63.0613 52.7408 63.0942 52.7381 63.1282C52.7299 63.1536 52.7299 63.1808 52.7381 63.2062C52.7588 63.235 52.7854 63.2591 52.816 63.277C52.9185 63.3379 53.0316 63.3788 53.1493 63.3975C53.2785 63.4205 53.4046 63.4586 53.525 63.5109C53.6352 63.5584 53.7289 63.6372 53.7944 63.7377C53.8391 63.805 53.8637 63.8837 53.8653 63.9645C53.8629 64.0488 53.8404 64.1314 53.7997 64.2053C53.759 64.2792 53.7013 64.3424 53.6313 64.3897C53.4843 64.4936 53.308 64.5481 53.128 64.5456C52.8672 64.5361 52.6174 64.4387 52.419 64.2692C52.402 64.2577 52.3877 64.2425 52.3774 64.2247C52.3672 64.2068 52.3611 64.1869 52.3597 64.1664C52.3584 64.1458 52.3617 64.1253 52.3696 64.1062C52.3774 64.0872 52.3894 64.0702 52.4049 64.0566Z" fill="white"/>
<path d="M55.0568 64.5319C54.8493 64.5301 54.651 64.4464 54.5049 64.2991C54.3589 64.1517 54.277 63.9527 54.277 63.7453V62.7815C54.277 62.762 54.2808 62.7426 54.2883 62.7246C54.2958 62.7065 54.3068 62.6901 54.3206 62.6763C54.3344 62.6625 54.3508 62.6515 54.3689 62.6441C54.3869 62.6366 54.4063 62.6327 54.4259 62.6327C54.4653 62.6327 54.5032 62.6484 54.5311 62.6763C54.559 62.7042 54.5747 62.7421 54.5747 62.7815V63.7453C54.5747 63.8731 54.6255 63.9957 54.7159 64.0861C54.8063 64.1765 54.929 64.2272 55.0568 64.2272C55.1847 64.2272 55.3073 64.1765 55.3977 64.0861C55.4881 63.9957 55.5389 63.8731 55.5389 63.7453V62.7815C55.5389 62.7614 55.5429 62.7414 55.5509 62.7229C55.5588 62.7044 55.5704 62.6876 55.585 62.6737C55.5996 62.6598 55.6168 62.649 55.6357 62.642C55.6546 62.6349 55.6747 62.6318 55.6949 62.6327C55.7343 62.6327 55.7722 62.6484 55.8001 62.6763C55.8281 62.7042 55.8437 62.7421 55.8437 62.7815V63.7453C55.8437 63.8486 55.8234 63.9509 55.7838 64.0464C55.7443 64.1418 55.6863 64.2285 55.6133 64.3015C55.5402 64.3746 55.4534 64.4325 55.358 64.4721C55.2625 64.5116 55.1602 64.5319 55.0568 64.5319Z" fill="white"/>
<path d="M56.4741 64.3831V62.7815C56.474 62.7614 56.4781 62.7414 56.486 62.7229C56.4939 62.7044 56.5056 62.6876 56.5201 62.6737C56.5347 62.6598 56.552 62.649 56.5709 62.642C56.5898 62.6349 56.6099 62.6318 56.63 62.6327H57.0129C57.1501 62.6327 57.2818 62.6872 57.3788 62.7842C57.4759 62.8813 57.5304 63.0129 57.5304 63.1501C57.5289 63.2605 57.4915 63.3674 57.424 63.4548C57.5074 63.5084 57.5762 63.5817 57.6244 63.6682C57.6727 63.7547 57.6988 63.8518 57.7005 63.9508C57.7005 64.105 57.6393 64.2528 57.5303 64.3617C57.4212 64.4707 57.2734 64.5319 57.1192 64.5319H56.63C56.5899 64.532 56.5512 64.5165 56.5222 64.4888C56.4931 64.4611 56.4759 64.4232 56.4741 64.3831ZM56.7789 63.3697H57.0129C57.0711 63.3697 57.127 63.3466 57.1683 63.3054C57.2095 63.2642 57.2326 63.2083 57.2326 63.1501C57.2326 63.0918 57.2095 63.0359 57.1683 62.9947C57.127 62.9535 57.0711 62.9304 57.0129 62.9304H56.7789V63.3697ZM56.7789 64.2343H57.1192C57.1944 64.2343 57.2665 64.2044 57.3197 64.1513C57.3729 64.0981 57.4028 64.026 57.4028 63.9508C57.4028 63.8757 57.3729 63.8036 57.3197 63.7504C57.2665 63.6972 57.1944 63.6674 57.1192 63.6674H56.7789V64.2343Z" fill="white"/>
<path d="M58.0287 64.0566C58.0552 64.0306 58.0908 64.0161 58.1279 64.0161C58.165 64.0161 58.2007 64.0306 58.2272 64.0566C58.3717 64.1812 58.554 64.2536 58.7447 64.2621C58.8659 64.2672 58.9855 64.2324 59.085 64.1629C59.1206 64.1432 59.1505 64.1145 59.1716 64.0797C59.1927 64.0449 59.2044 64.0052 59.2055 63.9645C59.2158 63.937 59.2158 63.9068 59.2055 63.8794C59.1852 63.8483 59.1586 63.8218 59.1275 63.8015C59.0125 63.7334 58.8845 63.6899 58.7518 63.6739C58.6327 63.6503 58.5163 63.6147 58.4044 63.5676C58.3037 63.5179 58.2162 63.4451 58.1492 63.355C58.1114 63.2854 58.0919 63.2074 58.0925 63.1282C58.0962 63.0514 58.1173 62.9765 58.1542 62.909C58.191 62.8415 58.2426 62.7832 58.3051 62.7385C58.4443 62.641 58.6102 62.589 58.7801 62.5896C58.9943 62.6002 59.1999 62.6769 59.3686 62.8093C59.3846 62.8185 59.3985 62.8311 59.4092 62.8462C59.4199 62.8613 59.4272 62.8786 59.4306 62.8968C59.434 62.915 59.4334 62.9337 59.4288 62.9517C59.4242 62.9696 59.4157 62.9863 59.404 63.0007C59.3946 63.0164 59.3821 63.0301 59.3672 63.0409C59.3523 63.0517 59.3354 63.0593 59.3175 63.0632C59.2996 63.0672 59.281 63.0675 59.263 63.064C59.2449 63.0606 59.2278 63.0535 59.2126 63.0432C59.0902 62.9409 58.9391 62.879 58.7801 62.866C58.6716 62.8653 58.5653 62.8974 58.4753 62.9582C58.4453 62.976 58.4201 63.0008 58.4016 63.0304C58.3831 63.0599 58.3719 63.0935 58.369 63.1282C58.3608 63.1536 58.3608 63.1808 58.369 63.2062C58.3868 63.2349 58.4111 63.2592 58.4398 63.277C58.5444 63.3389 58.66 63.3798 58.7801 63.3975C58.9089 63.4225 59.0348 63.4605 59.1559 63.5109C59.2633 63.5626 59.356 63.6406 59.4253 63.7377C59.4678 63.8056 59.49 63.8843 59.4891 63.9645C59.4867 64.0488 59.4642 64.1314 59.4235 64.2053C59.3828 64.2792 59.3251 64.3424 59.2551 64.3897C59.1085 64.4945 58.932 64.5491 58.7518 64.5456C58.4914 64.5344 58.242 64.4372 58.0428 64.2692C58.0277 64.2563 58.0153 64.2405 58.0064 64.2228C57.9975 64.205 57.9922 64.1857 57.9909 64.1659C57.9896 64.1461 57.9923 64.1262 57.9987 64.1074C58.0052 64.0886 58.0154 64.0714 58.0287 64.0566Z" fill="white"/>
<path d="M59.8157 63.5539C59.8212 63.2938 59.928 63.0462 60.1134 62.8635C60.2987 62.6809 60.548 62.5777 60.8082 62.5759C61.0365 62.5738 61.2588 62.6487 61.4392 62.7885C61.4721 62.8139 61.4936 62.8513 61.4989 62.8925C61.5042 62.9337 61.4929 62.9753 61.4675 63.0082C61.4422 63.0411 61.4047 63.0626 61.3635 63.0679C61.3223 63.0732 61.2807 63.062 61.2478 63.0366C61.1221 62.9391 60.9673 62.8867 60.8082 62.8878C60.6257 62.8885 60.4505 62.9596 60.3191 63.0862C60.2576 63.1475 60.209 63.2204 60.1762 63.3008C60.1433 63.3811 60.1268 63.4671 60.1276 63.5539C60.1266 63.6418 60.143 63.7289 60.1759 63.8104C60.2087 63.8919 60.2574 63.9661 60.3191 64.0287C60.4516 64.1528 60.6267 64.2212 60.8082 64.2201C60.9673 64.2211 61.1221 64.1687 61.2478 64.0712C61.2826 64.0498 61.3239 64.0415 61.3643 64.048C61.4046 64.0545 61.4413 64.0754 61.4675 64.1067C61.4945 64.1355 61.5094 64.1735 61.5094 64.213C61.5094 64.2524 61.4945 64.2904 61.4675 64.3193C61.2872 64.4591 61.0648 64.534 60.8366 64.5319C60.7051 64.5356 60.5741 64.5132 60.4513 64.4659C60.3285 64.4187 60.2164 64.3475 60.1214 64.2565C60.0264 64.1654 59.9505 64.0565 59.898 63.9359C59.8455 63.8153 59.8175 63.6854 59.8157 63.5539Z" fill="white"/>
<path d="M63.2453 64.3047C63.2518 64.3237 63.2545 64.3439 63.253 64.364C63.2515 64.3841 63.246 64.4037 63.2367 64.4216C63.2274 64.4395 63.2146 64.4553 63.199 64.4681C63.1834 64.4809 63.1654 64.4904 63.146 64.496H63.0893C63.0544 64.5047 63.0179 64.5047 62.983 64.496C62.9476 64.4726 62.9184 64.441 62.8979 64.4039C62.8494 64.3024 62.8275 64.1902 62.8341 64.0779C62.8471 64.0388 62.8471 63.9966 62.8341 63.9574C62.8129 63.9246 62.7836 63.8977 62.749 63.8795C62.702 63.8526 62.652 63.8312 62.6001 63.8157H62.2315V64.4039C62.2297 64.444 62.2124 64.4819 62.1834 64.5096C62.1543 64.5373 62.1157 64.5528 62.0755 64.5527C62.036 64.5527 61.9982 64.537 61.9702 64.5091C61.9423 64.4812 61.9267 64.4434 61.9267 64.4039V62.8023C61.9267 62.7828 61.9305 62.7634 61.938 62.7454C61.9455 62.7273 61.9564 62.7109 61.9702 62.6971C61.9841 62.6833 62.0005 62.6723 62.0185 62.6648C62.0366 62.6573 62.056 62.6535 62.0755 62.6535H62.5647C62.7189 62.6535 62.8667 62.7147 62.9758 62.8237C63.0848 62.9327 63.146 63.0805 63.146 63.2346C63.1461 63.3202 63.1271 63.4046 63.0903 63.4819C63.0535 63.5591 62.9998 63.6272 62.9334 63.6811C62.9677 63.7106 62.9986 63.7439 63.0255 63.7803C63.0865 63.8675 63.1188 63.9715 63.1177 64.0779C63.1177 64.1559 63.1177 64.2055 63.1177 64.2338C63.1434 64.233 63.1688 64.2391 63.1913 64.2516C63.2138 64.2641 63.2324 64.2824 63.2453 64.3047ZM62.8625 63.2133C62.8634 63.1765 62.857 63.1397 62.8435 63.1054C62.83 63.071 62.8098 63.0397 62.784 63.0133C62.7583 62.9869 62.7275 62.9659 62.6934 62.9516C62.6594 62.9372 62.6229 62.9299 62.586 62.9299H62.2315V63.4897H62.5647C62.603 63.4938 62.6417 63.4896 62.6782 63.4775C62.7148 63.4653 62.7483 63.4455 62.7765 63.4193C62.8047 63.3931 62.827 63.3612 62.8418 63.3256C62.8567 63.2901 62.8637 63.2518 62.8625 63.2133Z" fill="white"/>
<path d="M63.6994 62.7815C63.6994 62.7421 63.715 62.7042 63.743 62.6763C63.7709 62.6484 63.8089 62.6327 63.8484 62.6327C63.8685 62.6318 63.8887 62.6349 63.9076 62.642C63.9265 62.649 63.9438 62.6598 63.9584 62.6737C63.973 62.6876 63.9846 62.7044 63.9925 62.7229C64.0004 62.7414 64.0045 62.7614 64.0045 62.7815V64.3831C64.0045 64.4033 64.0004 64.4232 63.9925 64.4418C63.9846 64.4603 63.973 64.477 63.9584 64.4909C63.9438 64.5049 63.9265 64.5157 63.9076 64.5227C63.8887 64.5298 63.8685 64.5329 63.8484 64.5319C63.8089 64.5319 63.7709 64.5163 63.743 64.4884C63.715 64.4604 63.6994 64.4226 63.6994 64.3831V62.7815Z" fill="white"/>
<path d="M64.5081 64.383V62.7814C64.5081 62.7419 64.5238 62.7041 64.5517 62.6761C64.5796 62.6482 64.6175 62.6326 64.657 62.6326H65.0682C65.2042 62.6344 65.334 62.6897 65.4296 62.7866C65.5251 62.8834 65.5786 63.0139 65.5786 63.1499C65.5796 63.2596 65.5448 63.3666 65.4794 63.4546C65.5627 63.5082 65.6315 63.5815 65.6798 63.668C65.728 63.7546 65.7541 63.8516 65.7559 63.9507C65.7559 64.1048 65.6946 64.2526 65.5856 64.3616C65.4766 64.4706 65.3287 64.5318 65.1745 64.5318H64.6783C64.6572 64.5337 64.636 64.5314 64.6158 64.5248C64.5957 64.5183 64.5772 64.5078 64.5612 64.4939C64.5453 64.4799 64.5324 64.4629 64.5233 64.4439C64.5141 64.4248 64.509 64.4041 64.5081 64.383ZM64.813 63.3696H65.0682C65.1265 63.3696 65.1824 63.3464 65.2236 63.3052C65.2648 63.264 65.288 63.2081 65.288 63.1499C65.288 63.0916 65.2648 63.0357 65.2236 62.9945C65.1824 62.9533 65.1265 62.9302 65.0682 62.9302H64.8342L64.813 63.3696ZM64.813 64.2341H65.1532C65.2285 64.2341 65.3006 64.2043 65.3538 64.1511C65.407 64.098 65.4368 64.0258 65.4368 63.9507C65.4368 63.8755 65.407 63.8034 65.3538 63.7502C65.3006 63.6971 65.2285 63.6672 65.1532 63.6672H64.813V64.2341Z" fill="white"/>
<path d="M66.1169 64.383V62.7814C66.1169 62.7419 66.1325 62.7041 66.1605 62.6761C66.1884 62.6482 66.2262 62.6326 66.2657 62.6326H67.1945C67.2339 62.6326 67.2718 62.6482 67.2997 62.6761C67.3276 62.7041 67.3433 62.7419 67.3433 62.7814C67.3433 62.8208 67.3276 62.8587 67.2997 62.8866C67.2718 62.9145 67.2339 62.9302 67.1945 62.9302H66.4855V63.4333H67.1165C67.156 63.4333 67.1938 63.449 67.2217 63.4769C67.2497 63.5048 67.2653 63.5427 67.2653 63.5822C67.2653 63.6216 67.2497 63.6595 67.2217 63.6874C67.1938 63.7153 67.156 63.731 67.1165 63.731H66.4855V64.2341H67.1945C67.2339 64.2341 67.2718 64.2498 67.2997 64.2777C67.3276 64.3056 67.3433 64.3435 67.3433 64.383C67.3416 64.4219 67.3254 64.4587 67.2978 64.4863C67.2702 64.5138 67.2334 64.53 67.1945 64.5318H66.3012C66.279 64.5359 66.2563 64.5351 66.2345 64.5296C66.2126 64.5241 66.1923 64.5139 66.1748 64.4998C66.1572 64.4856 66.143 64.4679 66.133 64.4477C66.123 64.4275 66.1175 64.4054 66.1169 64.383Z" fill="white"/>
<path d="M67.7279 64.383V62.7814C67.7279 62.7419 67.7436 62.7041 67.7715 62.6761C67.7994 62.6482 67.8373 62.6326 67.8768 62.6326H68.1958C68.4477 62.6326 68.6894 62.7326 68.8675 62.9107C69.0457 63.0888 69.1458 63.3303 69.1458 63.5822C69.1458 63.834 69.0457 64.0756 68.8675 64.2536C68.6894 64.4317 68.4477 64.5318 68.1958 64.5318H67.9051C67.8833 64.536 67.8609 64.5353 67.8394 64.5298C67.8179 64.5242 67.7979 64.5139 67.781 64.4996C67.764 64.4854 67.7504 64.4675 67.7412 64.4473C67.732 64.4271 67.7275 64.4051 67.7279 64.383ZM68.0327 64.2341H68.1958C68.3688 64.2341 68.5346 64.1654 68.657 64.0432C68.7793 63.9209 68.848 63.7551 68.848 63.5822C68.848 63.4093 68.7793 63.2434 68.657 63.1212C68.5346 62.9989 68.3688 62.9302 68.1958 62.9302H68.0327V64.2341Z" fill="white"/>
<path d="M89.9789 91.7729C89.9789 91.7729 90.2412 80.1649 89.27 75.0342C88.2987 69.9035 77.4731 52.1869 73.5101 54.3058C68.3915 57.0271 72.6098 68.4791 75.403 73.8295C75.403 73.8295 63.5707 80.1295 64.8114 89.002C66.052 97.8744 89.9789 91.7729 89.9789 91.7729Z" fill="#F7A9A0"/>
<path d="M72.311 55.509C69.4753 61.3626 73.5659 68.1374 75.8983 73.5232C75.935 73.6011 75.9525 73.6866 75.9493 73.7727C75.9462 73.8587 75.9224 73.9427 75.88 74.0177C75.8377 74.0926 75.778 74.1563 75.7059 74.2035C75.6338 74.2506 75.5515 74.2798 75.4658 74.2886C70.6805 77.265 64.8317 82.8422 64.4843 88.7808C64.4843 88.8165 64.4701 88.8507 64.4448 88.876C64.4196 88.9012 64.3853 88.9154 64.3496 88.9154C64.3139 88.9154 64.2796 88.9012 64.2543 88.876C64.2291 88.8507 64.2149 88.8165 64.2149 88.7808C63.6832 82.4028 69.0144 76.4146 74.4662 73.4949C71.992 68.0098 68.1566 61.0366 72.2614 55.4736C72.2827 55.4523 72.3323 55.4736 72.311 55.509Z" fill="#263238"/>
<path d="M91.2985 112.358L123.201 125.412C123.201 125.412 132.155 97.774 133.679 82.5236C134.53 73.9771 129.511 73.7503 123.322 78.4417C101.685 94.8614 91.2985 112.358 91.2985 112.358Z" fill="#455A64"/>
<path d="M133.467 84.4376C133.467 84.6644 133.41 84.8911 133.375 85.1463C130.475 85.5644 127.561 85.9187 124.626 86.1596C121.024 86.4773 117.404 86.5365 113.794 86.3368L114.34 85.8478C117.755 85.9542 121.173 85.8548 124.577 85.5502C127.554 85.3022 130.511 84.9124 133.467 84.4376ZM128.951 79.8313C127.852 78.8462 126.767 77.847 125.683 76.8407L125.491 76.9541C126.59 77.9675 127.682 78.9951 128.781 80.0155C130.319 81.4329 131.879 82.8502 133.502 84.1612C133.502 84.0337 133.538 83.9132 133.552 83.7927C131.978 82.5596 130.454 81.2203 128.951 79.8596V79.8313ZM118.522 106.024C116.42 105.936 114.314 106.076 112.241 106.442C110.184 106.869 108.155 107.423 106.165 108.1C102.203 109.481 98.3654 111.198 94.6946 113.231C94.5103 113.33 94.326 113.429 94.1488 113.535L94.8577 113.833L94.964 113.769C98.5987 111.735 102.392 109.998 106.307 108.575C108.265 107.877 110.266 107.307 112.298 106.867C114.339 106.474 116.417 106.31 118.494 106.378C121.829 106.498 125.14 106.997 128.362 107.866C128.362 107.774 128.405 107.689 128.433 107.597C125.2 106.699 121.875 106.171 118.522 106.024Z" fill="#37474F"/>
<path d="M124.114 118.057C119.024 115.62 105.008 109.44 95.3382 106.719C95.2815 106.719 95.1822 106.931 95.2389 106.953C102.896 110.496 118.67 116.449 123.965 118.405C124.065 118.454 124.206 118.1 124.114 118.057Z" fill="#263238"/>
<path d="M131.936 97.0511C131.291 98.681 130.674 100.325 130.065 101.969C130.107 101.771 130.164 101.565 130.207 101.36C130.731 99.0212 131.242 96.6826 131.695 94.3227C131.695 94.266 131.61 94.2448 131.596 94.3227C129.469 102.472 123.691 123.017 123.231 125.291C123.053 125.242 119.941 123.994 119.523 123.924C119.438 123.924 119.36 124.08 119.445 124.101C119.657 124.15 123.698 125.858 123.698 125.802C125.343 121.897 128.916 106.852 129.696 103.514C130.561 101.412 131.32 99.2692 131.972 97.0865C131.972 97.0865 131.951 97.0156 131.936 97.0511Z" fill="#263238"/>
<path d="M132.587 77.6413C133.154 79.2145 142.101 88.7815 149.446 87.5626C151.842 87.1586 150.233 74.0129 150.233 74.0129L150.339 73.0137L151.757 59.053L134.544 50.6908L132.077 49.6065C132.077 49.6065 131.935 53.4546 131.807 58.2451C131.807 58.4719 131.807 58.6916 131.807 58.9538C131.807 59.216 131.807 59.4853 131.807 59.7404C131.807 60.4491 131.751 61.1578 131.744 61.9089C131.744 62.4688 131.744 63.0074 131.744 63.5885C131.744 64.1696 131.744 64.7365 131.744 65.3247C131.786 71.0578 132.353 76.9751 132.587 77.6413Z" fill="#F7A9A0"/>
<path d="M131.834 58.2168C133.659 61.8754 136.26 65.0924 139.456 67.6442C142.651 70.1959 146.365 72.021 150.337 72.9924L151.755 59.0318L134.542 50.6908L132.075 49.6065C132.075 49.6065 131.962 53.4546 131.834 58.2168Z" fill="#263238"/>
<path d="M167.609 36.0356C173.628 59.9246 159.995 66.2318 154.848 67.5215C150.169 68.6979 134.083 72.0924 125.625 48.9545C117.168 25.8167 126.377 15.4631 136.968 12.2174C147.56 8.97172 161.583 12.1536 167.609 36.0356Z" fill="#F7A9A0"/>
<path d="M159.974 31.5643C159.407 31.5927 158.839 31.5927 158.272 31.5643C157.67 31.6348 157.062 31.5106 156.535 31.21C156.391 31.082 156.292 30.91 156.255 30.7204C156.218 30.5308 156.244 30.3342 156.33 30.1611C156.553 29.844 156.856 29.592 157.209 29.4313C157.561 29.2706 157.951 29.2069 158.336 29.247C159.127 29.2028 159.906 29.4555 160.52 29.9556C160.652 30.0773 160.747 30.235 160.791 30.4094C160.836 30.5837 160.829 30.7673 160.771 30.9378C160.713 31.1082 160.607 31.2582 160.466 31.3695C160.324 31.4807 160.153 31.5484 159.974 31.5643Z" fill="#263238"/>
<path d="M144.526 35.0641C145.06 34.87 145.583 34.6476 146.093 34.3979C146.678 34.2385 147.195 33.8896 147.56 33.4058C147.647 33.2322 147.673 33.0349 147.634 32.8449C147.596 32.655 147.495 32.4833 147.348 32.357C147.021 32.1501 146.646 32.0338 146.259 32.0201C145.873 32.0064 145.49 32.0958 145.15 32.279C144.403 32.5468 143.78 33.0787 143.399 33.7743C143.322 33.9387 143.294 34.122 143.32 34.3018C143.345 34.4816 143.422 34.6502 143.541 34.7869C143.661 34.9237 143.818 35.0227 143.993 35.0719C144.167 35.1211 144.353 35.1184 144.526 35.0641Z" fill="#263238"/>
<path d="M148.958 40.4993C148.958 40.4426 148.845 40.6056 148.866 40.6765C149.284 42.2993 149.483 44.2198 148.121 45.1056C148.079 45.1056 148.121 45.2119 148.157 45.1907C149.908 44.5599 149.617 41.9946 148.958 40.4993Z" fill="#263238"/>
<path d="M147.113 39.1394C144.433 39.5221 145.404 44.8513 147.885 44.4969C150.367 44.1426 149.36 38.8134 147.113 39.1394Z" fill="#263238"/>
<path d="M146.121 39.6063C145.71 39.9961 145.349 40.6126 144.796 40.7685C144.243 40.9244 143.569 40.4851 143.045 40.0599C142.995 40.0103 142.952 40.0599 142.967 40.1378C143.137 41.1583 143.718 42.1363 144.845 42.0867C145.973 42.037 146.419 41.0095 146.49 39.9607C146.497 39.7055 146.284 39.4504 146.121 39.6063Z" fill="#263238"/>
<path d="M158.25 37.7863C158.25 37.7225 158.392 37.843 158.399 37.9068C158.633 39.5721 159.186 41.4501 160.774 41.7194C160.824 41.7194 160.838 41.8186 160.774 41.8186C158.91 41.8753 158.208 39.395 158.25 37.7863Z" fill="#263238"/>
<path d="M159.428 35.8033C162.051 35.1372 163.185 40.4309 160.753 41.0474C158.322 41.664 157.23 36.3632 159.428 35.8033Z" fill="#263238"/>
<path d="M160.605 35.915C161.08 36.1064 161.605 36.5245 162.115 36.4536C162.626 36.3828 163.009 35.7024 163.257 35.0363C163.257 34.9725 163.335 35.0363 163.356 35.0788C163.597 36.0851 163.491 37.2048 162.562 37.6087C161.633 38.0127 160.875 37.2473 160.435 36.2906C160.329 36.1489 160.414 35.8371 160.605 35.915Z" fill="#263238"/>
<path d="M151.458 53.5821C151.911 53.9152 152.379 54.3971 152.989 54.3688C153.606 54.2739 154.195 54.0493 154.719 53.7097C154.729 53.6984 154.744 53.6917 154.759 53.691C154.774 53.6904 154.789 53.6958 154.8 53.7062C154.812 53.7165 154.818 53.7309 154.819 53.7462C154.82 53.7615 154.814 53.7764 154.804 53.7876C154.61 54.1467 154.323 54.4464 153.972 54.6548C153.621 54.8633 153.22 54.9726 152.812 54.9711C152.462 54.9283 152.133 54.783 151.865 54.5535C151.598 54.324 151.404 54.0206 151.309 53.6813C151.266 53.5892 151.394 53.5325 151.458 53.5821Z" fill="#263238"/>
<path d="M157.892 45.8789C157.892 45.8789 158.714 48.2813 158.941 49.4222C157.898 49.8959 156.746 50.0801 155.607 49.9554C154.468 49.8307 153.384 49.4017 152.468 48.7136C152.355 48.6285 152.468 48.4726 152.61 48.5222C154.29 49.2487 156.158 49.4176 157.941 49.0041C157.941 48.664 156.389 44.9293 156.573 44.8797C157.494 44.7863 158.424 44.8149 159.338 44.9648C157.771 39.9049 155.403 35.1427 153.922 30.0828C153.912 30.046 153.916 30.0071 153.933 29.9729C153.949 29.9387 153.977 29.9112 154.011 29.8953C154.046 29.8793 154.085 29.8759 154.121 29.8855C154.158 29.8952 154.19 29.9173 154.212 29.9482C157.048 34.7671 158.976 40.5781 160.728 45.7301C160.969 46.3962 158.395 45.9852 157.892 45.8789Z" fill="#263238"/>
<path d="M157.322 49.6356C156.835 50.5686 156.114 51.3597 155.231 51.9317C154.741 52.2292 154.172 52.3678 153.6 52.3285C152.345 52.2222 152.125 51.1309 152.182 50.1529C152.216 49.6356 152.311 49.1242 152.466 48.6293C153.935 49.4749 155.637 49.8276 157.322 49.6356Z" fill="#263238"/>
<path d="M155.231 51.931C154.741 52.2285 154.172 52.3672 153.6 52.3279C152.345 52.2216 152.125 51.1302 152.182 50.1523C153.487 50.0602 154.905 50.705 155.231 51.931Z" fill="#FF9ABB"/>
<path d="M150.552 15.4992C150.552 15.4992 151.58 19.1559 150.346 21.8275C147.83 27.3197 141.229 25.9945 139.003 28.2055C136.933 30.2606 137.734 34.4347 135.856 36.4898C133.254 39.3244 129.645 38.304 129.241 40.1961C128.837 42.0882 127.674 48.1119 125.278 48.9127C122.882 49.7135 109.681 16.7252 142.683 10.7228C142.683 10.7228 146.972 8.88733 153.714 12.1401C160.456 15.3929 165.107 27.9504 165.107 27.9504C164.449 27.6351 163.843 27.2244 163.306 26.7315C161.767 25.4205 161.179 24.1945 160.038 23.3441C158.272 22.0118 157.322 22.5433 155.486 21.2181C152.693 19.2409 150.552 15.4992 150.552 15.4992Z" fill="#263238"/>
<path d="M150.048 13.7691C150.561 15.3206 150.894 16.9255 151.041 18.5526C151.271 20.1397 151.063 21.7597 150.438 23.2369C149.634 24.5751 148.376 25.5808 146.894 26.0715C145.405 26.6385 143.76 26.8227 142.165 27.4889C141.32 27.8352 140.592 28.4154 140.066 29.1613C139.614 29.9052 139.312 30.7313 139.18 31.592C138.868 33.2078 138.556 34.8023 137.507 35.9716C136.983 36.5617 136.337 37.0309 135.614 37.3466C134.89 37.6623 134.107 37.817 133.317 37.7999C131.736 37.7999 129.978 37.4102 128.44 38.133C130.028 37.5377 131.658 38.0834 133.31 38.1826C134.167 38.2339 135.024 38.0988 135.823 37.7869C136.623 37.4749 137.345 36.9934 137.94 36.3755C139.209 35.1141 139.535 33.2928 139.868 31.7408C139.995 30.9859 140.269 30.2635 140.676 29.6149C141.138 29.0172 141.757 28.5586 142.463 28.2896C143.881 27.6589 145.554 27.4393 147.135 26.8085C147.933 26.5042 148.681 26.0814 149.354 25.5542C150.058 25.0339 150.619 24.344 150.984 23.5487C151.581 21.9662 151.731 20.2499 151.417 18.588C151.151 16.9337 150.692 15.3163 150.048 13.7691Z" fill="#263238"/>
<path d="M150.67 15.1869C151.002 16.6894 151.539 18.1392 152.265 19.4956C152.973 20.9233 154.088 22.1094 155.47 22.9043C156.171 23.2474 156.905 23.5203 157.66 23.7192C158.316 23.9243 158.903 24.3069 159.355 24.8247C159.766 25.4818 160.241 26.0966 160.773 26.6602C161.35 27.185 162.038 27.5726 162.786 27.794C162.118 27.4431 161.527 26.9611 161.049 26.3767C160.594 25.7785 160.197 25.1377 159.865 24.4633C159.385 23.7992 158.712 23.2993 157.937 23.0318C157.205 22.83 156.493 22.5619 155.81 22.231C154.552 21.4896 153.505 20.438 152.769 19.1767C151.98 17.8954 151.279 16.5625 150.67 15.1869Z" fill="#263238"/>
<path d="M129.809 49.005C129.809 49.005 123.272 42.2727 120.132 44.753C116.991 47.2334 122.762 57.5586 127.051 58.409C127.594 58.5558 128.16 58.5916 128.717 58.5142C129.274 58.4368 129.809 58.2479 130.291 57.9587C130.773 57.6695 131.192 57.286 131.522 56.8313C131.852 56.3765 132.087 55.8598 132.212 55.3121L129.809 49.005Z" fill="#F7A9A0"/>
<path d="M121.861 47.6585C121.846 47.6585 121.832 47.6645 121.821 47.6751C121.811 47.6858 121.805 47.7002 121.805 47.7152C121.805 47.7303 121.811 47.7447 121.821 47.7553C121.832 47.7659 121.846 47.7719 121.861 47.7719C124.889 48.4806 126.824 50.8475 128.291 53.4058C127.278 52.4916 126.037 52.1019 124.789 53.3349C124.725 53.3987 124.789 53.505 124.896 53.4696C125.369 53.2315 125.905 53.146 126.429 53.2247C126.954 53.3033 127.441 53.5424 127.824 53.9089C128.46 54.5239 129.028 55.2059 129.518 55.9428C129.695 56.1767 130.128 55.9428 129.986 55.6877L129.95 55.6239C129.433 52.0026 125.803 47.3963 121.861 47.6585Z" fill="#263238"/>
<path d="M129.246 56.9277C129.263 57.1262 129.222 57.3255 129.126 57.5003C129.03 57.6751 128.884 57.8175 128.707 57.9094C128.53 58.0013 128.33 58.0386 128.132 58.0166C127.934 57.9946 127.747 57.9143 127.594 57.7858C127.442 57.6573 127.331 57.4865 127.276 57.295C127.22 57.1034 127.223 56.8998 127.284 56.71C127.345 56.5201 127.461 56.3526 127.617 56.2286C127.773 56.1046 127.962 56.0297 128.161 56.0135C128.292 56.0019 128.425 56.0163 128.551 56.056C128.676 56.0957 128.793 56.1599 128.894 56.2449C128.995 56.3299 129.078 56.4339 129.138 56.5511C129.198 56.6683 129.235 56.7963 129.246 56.9277Z" fill="white"/>
<path d="M126.653 55.5035C126.662 55.6423 126.63 55.7806 126.561 55.9013C126.492 56.022 126.389 56.1197 126.265 56.1822C126.14 56.2448 126.001 56.2695 125.862 56.2532C125.724 56.2369 125.594 56.1804 125.488 56.0906C125.382 56.0008 125.304 55.8818 125.265 55.7484C125.226 55.6149 125.227 55.473 125.268 55.3401C125.309 55.2073 125.389 55.0895 125.496 55.0014C125.604 54.9132 125.735 54.8587 125.873 54.8445C125.968 54.8347 126.064 54.8442 126.155 54.8724C126.246 54.9005 126.33 54.9467 126.403 55.0083C126.476 55.0698 126.536 55.1454 126.579 55.2305C126.622 55.3155 126.647 55.4084 126.653 55.5035Z" fill="white"/>
<path d="M120.302 47.5235H118.813C118.744 47.5235 118.675 47.5097 118.611 47.4829C118.547 47.4561 118.488 47.4168 118.44 47.3674C118.391 47.3179 118.352 47.2593 118.326 47.1948C118.3 47.1304 118.288 47.0614 118.288 46.992C118.29 46.8523 118.347 46.7189 118.447 46.6207C118.546 46.5226 118.68 46.4676 118.82 46.4676H120.302C120.442 46.4694 120.576 46.526 120.676 46.6253C120.775 46.7246 120.832 46.8587 120.834 46.9991C120.832 47.1388 120.775 47.2722 120.675 47.3703C120.576 47.4685 120.442 47.5235 120.302 47.5235Z" fill="#69008E"/>
<path d="M120.492 49.0525L119.032 49.3643C118.964 49.3789 118.894 49.38 118.826 49.3675C118.758 49.3551 118.694 49.3294 118.636 49.2918C118.578 49.2543 118.528 49.2057 118.489 49.1488C118.449 49.0919 118.422 49.0279 118.408 48.9604C118.378 48.8232 118.404 48.6799 118.48 48.5618C118.555 48.4436 118.675 48.3602 118.812 48.3297L120.265 48.0178C120.402 47.9883 120.546 48.0142 120.664 48.0898C120.782 48.1655 120.865 48.2848 120.896 48.4218C120.924 48.5588 120.897 48.7012 120.822 48.8188C120.746 48.9365 120.628 49.0203 120.492 49.0525Z" fill="#69008E"/>
<path d="M122.363 79.193C123.072 78.4843 129.644 72.6945 138.889 73.2544C148.573 73.8497 157.463 80.745 157.463 80.745C157.463 80.745 160.349 90.6663 151.692 91.545C139.619 92.7568 122.363 79.193 122.363 79.193Z" fill="#F7A9A0"/>
<path d="M123.057 271.62V250.012C123.057 244.152 130.387 244.556 130.387 250.012V267.906H130.572V260.302C130.572 255.342 137.179 255.342 137.179 260.302V267.906H137.385V261.925C137.385 257.092 144.113 256.865 144.113 262.336V269.862H144.318V265.61C144.318 260.345 151.074 260.153 151.074 265.773V285.701C151.074 289.421 149.295 293.751 141.489 293.751H127.459C123.865 293.751 121.207 284.34 119.406 280.69C117.605 277.041 114.018 273.696 111.664 270.224C109.31 266.751 113.153 263.357 116.868 266.142C119.085 267.786 121.156 269.619 123.057 271.62Z" fill="white"/>
<path d="M141.467 294.431H127.459C124.226 294.431 121.971 288.762 120.156 284.24C119.653 282.986 119.178 281.802 118.774 280.973C117.523 278.73 116.023 276.636 114.301 274.73C113.187 273.383 112.025 271.995 111.075 270.591C109.657 268.536 110.21 266.517 111.344 265.432C112.62 264.22 114.946 263.788 117.292 265.546C119.065 266.877 120.749 268.324 122.333 269.876V250.033C122.271 248.68 122.739 247.356 123.637 246.341C124.019 245.938 124.48 245.618 124.991 245.401C125.502 245.184 126.053 245.075 126.608 245.079C128.777 245.079 131.081 246.816 131.081 250.04V257.063C131.578 256.575 132.194 256.227 132.868 256.054C133.542 255.881 134.25 255.888 134.921 256.076C135.591 256.263 136.2 256.624 136.686 257.123C137.172 257.621 137.518 258.238 137.689 258.913C138.063 258.494 138.522 258.159 139.035 257.93C139.548 257.702 140.104 257.585 140.666 257.587C141.197 257.588 141.722 257.696 142.209 257.906C142.697 258.115 143.137 258.422 143.502 258.806C144.339 259.742 144.79 260.96 144.764 262.215L144.806 262.172C145.17 261.784 145.609 261.475 146.097 261.263C146.584 261.051 147.11 260.941 147.642 260.939C149.606 260.939 151.726 262.463 151.726 265.808V285.7C151.761 288.946 150.421 294.431 141.467 294.431ZM114.095 265.794C113.445 265.781 112.815 266.02 112.337 266.46C111.628 267.112 111.273 268.338 112.266 269.798C113.173 271.144 114.308 272.505 115.406 273.823C117.205 275.811 118.765 278.001 120.057 280.35C120.49 281.228 120.972 282.433 121.475 283.716C122.957 287.415 125.197 293.013 127.466 293.013H141.46C148.798 293.013 150.336 289.024 150.336 285.672V265.78C150.336 263.391 148.996 262.328 147.671 262.328C146.345 262.328 144.998 263.356 144.998 265.617V270.577H143.374V262.314C143.43 261.374 143.117 260.449 142.502 259.735C142.267 259.486 141.984 259.288 141.669 259.154C141.354 259.02 141.015 258.952 140.673 258.955C139.418 258.955 138.064 259.876 138.064 261.903V268.593H136.462V260.302C136.462 258.232 135.165 257.304 133.875 257.304C132.584 257.304 131.273 258.239 131.273 260.302V268.614H129.67V250.012C129.67 247.687 128.132 246.468 126.615 246.468C126.252 246.464 125.892 246.535 125.558 246.677C125.224 246.818 124.922 247.027 124.672 247.29C124.028 248.043 123.7 249.016 123.758 250.005V273.454L122.496 272.094C120.635 270.116 118.604 268.304 116.427 266.68C115.766 266.14 114.948 265.829 114.095 265.794Z" fill="#263238"/>
<path d="M129.487 243.018C129.513 242.066 129.723 241.127 130.104 240.254C130.451 239.368 130.969 238.56 131.628 237.873C131.547 239.785 130.794 241.607 129.501 243.018H129.487Z" fill="#263238"/>
<path d="M124.289 243.017C123.633 242.328 123.117 241.517 122.772 240.629C122.387 239.758 122.18 238.818 122.163 237.865C123.455 239.28 124.208 241.104 124.289 243.017Z" fill="#263238"/>
<path d="M120.609 246.724C118.697 246.644 116.874 245.891 115.462 244.598C116.415 244.619 117.354 244.826 118.227 245.208C119.111 245.556 119.92 246.071 120.609 246.724Z" fill="#263238"/>
<path d="M120.612 251.884C119.199 253.178 117.373 253.931 115.458 254.01C116.148 253.351 116.959 252.833 117.847 252.486C118.722 252.11 119.661 251.905 120.612 251.884Z" fill="#263238"/>
<path d="M133.129 251.891C134.081 251.917 135.02 252.127 135.894 252.507C136.782 252.855 137.593 253.372 138.283 254.031C136.369 253.948 134.544 253.196 133.129 251.905V251.891Z" fill="#263238"/>
<path d="M133.129 246.724C133.82 246.069 134.631 245.554 135.518 245.208C136.39 244.823 137.33 244.615 138.283 244.598C136.868 245.89 135.043 246.642 133.129 246.724Z" fill="#263238"/>
</svg>
