<svg width="32" height="32" viewBox="0 0 32 32" fill="none" xmlns="http://www.w3.org/2000/svg">
<path fill-rule="evenodd" clip-rule="evenodd" d="M18.2893 20.3885C19.8946 20.3885 21.2013 21.6858 21.2013 23.2805V27.3818C21.2013 27.7245 21.476 27.9992 21.828 28.0072H24.3693C26.372 28.0072 28 26.3992 28 24.4232V12.7912C27.9906 12.1112 27.6666 11.4712 27.1106 11.0458L18.32 4.03516C17.14 3.1005 15.4893 3.1005 14.3053 4.03783L5.57463 11.0432C4.99729 11.4818 4.67329 12.1218 4.66663 12.8138V24.4232C4.66663 26.3992 6.29463 28.0072 8.29729 28.0072H10.8626C11.224 28.0072 11.5173 27.7205 11.5173 27.3685C11.5173 27.2912 11.5266 27.2138 11.5426 27.1405V23.2805C11.5426 21.6952 12.8413 20.3992 14.4346 20.3885H18.2893ZM24.3693 30.0072H21.804C20.3346 29.9725 19.2013 28.8192 19.2013 27.3818V23.2805C19.2013 22.7885 18.792 22.3885 18.2893 22.3885H14.4413C13.9493 22.3912 13.5426 22.7925 13.5426 23.2805V27.3685C13.5426 27.4685 13.5293 27.5645 13.5013 27.6552C13.3573 28.9752 12.2293 30.0072 10.8626 30.0072H8.29729C5.19196 30.0072 2.66663 27.5018 2.66663 24.4232V12.8045C2.67996 11.4792 3.29063 10.2658 4.34529 9.46716L13.0586 2.47383C14.9773 0.95383 17.6506 0.95383 19.5653 2.47116L28.3413 9.47116C29.372 10.2565 29.9826 11.4672 30 12.7765V24.4232C30 27.5018 27.4746 30.0072 24.3693 30.0072Z" fill="white"/>
</svg>
