<svg width="32" height="32" viewBox="0 0 32 32" fill="none" xmlns="http://www.w3.org/2000/svg">
<circle cx="16" cy="16" r="10" fill="#121212"/>
<path d="M16.3333 2.66699L16.7064 2.67212C23.8941 2.86988 29.6667 8.76507 29.6667 16.0003C29.6667 23.347 23.6933 29.3337 16.3333 29.3337C8.98667 29.3337 3 23.347 3 16.0003C3 8.64033 8.98667 2.66699 16.3333 2.66699ZM18.9733 10.667C18.5733 10.267 17.9467 10.267 17.56 10.667L12.9067 15.2937C12.72 15.4803 12.6133 15.7337 12.6133 16.0003C12.6133 16.267 12.72 16.5203 12.9067 16.707L17.56 21.3337C17.7467 21.5337 18 21.627 18.2533 21.627C18.52 21.627 18.7733 21.5337 18.9733 21.3337C19.36 20.9337 19.36 20.307 18.96 19.9203L15.0267 16.0003L18.96 12.0803C19.36 11.6937 19.36 11.0537 18.9733 10.667Z" fill="white"/>
</svg>
