<svg width="400" height="362" viewBox="0 0 400 362" fill="none" xmlns="http://www.w3.org/2000/svg">
<path d="M400 354.7C400 358.416 310.476 361.452 200.023 361.452C89.5698 361.452 0 358.416 0 354.7C0 350.985 89.5698 347.949 200.023 347.949C310.476 347.949 400 350.985 400 354.7Z" fill="#47C1E2"/>
<path d="M356.963 0.476685V248.936H43.0371V0.476685H356.963Z" stroke="white" stroke-width="0.953354" stroke-miterlimit="10"/>
<path d="M143.956 236.475H51.7081V12.9382H143.956V236.475Z" fill="white"/>
<path d="M246.147 236.475H153.899V12.9382H246.147V236.475Z" fill="white"/>
<path d="M348.337 236.475H256.089V12.9382H348.337V236.475Z" fill="white"/>
<path d="M212.053 245.628H170.786V187.988H212.053V245.628Z" fill="#C3DFED"/>
<path d="M154.58 190.798L111.542 207.02V245.628H154.58V190.798Z" fill="#D4E6EE"/>
<path d="M82.3969 132.387H49.9829V245.628H82.3969V132.387Z" fill="#D4E6EE"/>
<path d="M59.6073 126.043H53.2516V132.387H59.6073V126.043Z" fill="#D4E6EE"/>
<path d="M57.1103 117.343L55.7484 119.745V126.043H57.1103V117.343Z" fill="#D4E6EE"/>
<path d="M78.1296 140.227H53.2516V138.233H78.1296V140.227Z" fill="#FDFEFF"/>
<path d="M78.1296 145.438H53.2516V143.489H78.1296V145.438Z" fill="#FDFEFF"/>
<path d="M78.1296 150.649H53.2516V148.701H78.1296V150.649Z" fill="#FDFEFF"/>
<path d="M78.1296 155.906H53.2516V153.912H78.1296V155.906Z" fill="#FDFEFF"/>
<path d="M78.1296 161.117H53.2516V159.168H78.1296V161.117Z" fill="#FDFEFF"/>
<path d="M78.1296 166.373H53.2516V164.379H78.1296V166.373Z" fill="#FDFEFF"/>
<path d="M78.1296 171.584H53.2516V169.636H78.1296V171.584Z" fill="#FDFEFF"/>
<path d="M78.1296 176.796H53.2516V174.847H78.1296V176.796Z" fill="#FDFEFF"/>
<path d="M170.787 132.387H138.373V245.628H170.787V132.387Z" fill="#D4E6EE"/>
<path d="M147.997 126.043H141.641V132.387H147.997V126.043Z" fill="#D4E6EE"/>
<path d="M145.5 117.343L144.138 119.745V126.043H145.5V117.343Z" fill="#D4E6EE"/>
<path d="M144.138 210.102H142.594V139.185H144.138V210.102Z" fill="#FDFEFF"/>
<path d="M148.587 214.588H147.043V143.625H148.587V214.588Z" fill="#FDFEFF"/>
<path d="M153.036 219.029H151.492V148.066H153.036V219.029Z" fill="#FDFEFF"/>
<path d="M157.485 223.47H155.942V152.552H157.485V223.47Z" fill="#FDFEFF"/>
<path d="M111.542 245.628H82.397V175.844H111.542V245.628Z" fill="#C3DFED"/>
<path d="M88.9797 186.765H85.7565V181.372H88.9797V186.765Z" fill="#FDFEFF"/>
<path d="M98.5586 186.765H95.3353V181.372H98.5586V186.765Z" fill="#FDFEFF"/>
<path d="M103.325 186.765H100.102V181.372H103.325V186.765Z" fill="#FDFEFF"/>
<path d="M88.9797 196.009H85.7565V190.662H88.9797V196.009Z" fill="#FDFEFF"/>
<path d="M93.7918 196.009H90.5232V190.662H93.7918V196.009Z" fill="#FDFEFF"/>
<path d="M108.092 196.009H104.869V190.662H108.092V196.009Z" fill="#FDFEFF"/>
<path d="M93.7918 205.298H90.5232V199.906H93.7918V205.298Z" fill="#FDFEFF"/>
<path d="M108.092 205.298H104.869V199.906H108.092V205.298Z" fill="#FDFEFF"/>
<path d="M88.9797 214.543H85.7565V209.15H88.9797V214.543Z" fill="#FDFEFF"/>
<path d="M93.7918 214.543H90.5232V209.15H93.7918V214.543Z" fill="#FDFEFF"/>
<path d="M98.5586 214.543H95.3353V209.15H98.5586V214.543Z" fill="#FDFEFF"/>
<path d="M108.092 214.543H104.869V209.15H108.092V214.543Z" fill="#FDFEFF"/>
<path d="M177.233 197.323H173.964V191.976H177.233V197.323Z" fill="#FDFEFF"/>
<path d="M182.454 197.323H179.23V191.976H182.454V197.323Z" fill="#FDFEFF"/>
<path d="M187.675 197.323H184.451V191.976H187.675V197.323Z" fill="#FDFEFF"/>
<path d="M198.161 197.323H194.938V191.976H198.161V197.323Z" fill="#FDFEFF"/>
<path d="M203.382 197.323H200.159V191.976H203.382V197.323Z" fill="#FDFEFF"/>
<path d="M208.648 197.323H205.425V191.976H208.648V197.323Z" fill="#FDFEFF"/>
<path d="M182.454 205.525H179.23V200.178H182.454V205.525Z" fill="#FDFEFF"/>
<path d="M192.941 205.525H189.672V200.178H192.941V205.525Z" fill="#FDFEFF"/>
<path d="M198.161 205.525H194.938V200.178H198.161V205.525Z" fill="#FDFEFF"/>
<path d="M203.382 205.525H200.159V200.178H203.382V205.525Z" fill="#FDFEFF"/>
<path d="M208.648 205.525H205.425V200.178H208.648V205.525Z" fill="#FDFEFF"/>
<path d="M177.233 213.727H173.964V208.38H177.233V213.727Z" fill="#FDFEFF"/>
<path d="M182.454 213.727H179.23V208.38H182.454V213.727Z" fill="#FDFEFF"/>
<path d="M198.161 213.727H194.938V208.38H198.161V213.727Z" fill="#FDFEFF"/>
<path d="M203.382 213.727H200.159V208.38H203.382V213.727Z" fill="#FDFEFF"/>
<path d="M177.233 221.929H173.964V216.582H177.233V221.929Z" fill="#FDFEFF"/>
<path d="M187.675 221.929H184.451V216.582H187.675V221.929Z" fill="#FDFEFF"/>
<path d="M192.941 221.929H189.672V216.582H192.941V221.929Z" fill="#FDFEFF"/>
<path d="M198.161 221.929H194.938V216.582H198.161V221.929Z" fill="#FDFEFF"/>
<path d="M203.382 221.929H200.159V216.582H203.382V221.929Z" fill="#FDFEFF"/>
<path d="M208.648 221.929H205.425V216.582H208.648V221.929Z" fill="#FDFEFF"/>
<path d="M374.078 245.628H332.857V187.988H374.078V245.628Z" fill="#C3DFED"/>
<path d="M316.65 190.798L273.567 207.02V245.628H316.65V190.798Z" fill="#D4E6EE"/>
<path d="M244.467 111.452H212.053V245.628H244.467V111.452Z" fill="#D4E6EE"/>
<path d="M221.632 105.153H215.276V111.452H221.632V105.153Z" fill="#D4E6EE"/>
<path d="M219.135 96.4076L217.773 98.8093V105.153H219.135V96.4076Z" fill="#D4E6EE"/>
<path d="M240.154 140.227H215.276V117.343H240.154V140.227Z" fill="#FDFEFF"/>
<path d="M240.154 145.438H215.276V143.489H240.154V145.438Z" fill="#FDFEFF"/>
<path d="M240.154 150.649H215.276V148.701H240.154V150.649Z" fill="#FDFEFF"/>
<path d="M240.154 155.906H215.276V153.912H240.154V155.906Z" fill="#FDFEFF"/>
<path d="M240.154 161.117H215.276V159.168H240.154V161.117Z" fill="#FDFEFF"/>
<path d="M240.154 166.373H215.276V164.379H240.154V166.373Z" fill="#FDFEFF"/>
<path d="M240.154 171.584H215.276V169.636H240.154V171.584Z" fill="#FDFEFF"/>
<path d="M240.154 176.796H215.276V174.847H240.154V176.796Z" fill="#FDFEFF"/>
<path d="M332.857 132.387H300.443V245.628H332.857V132.387Z" fill="#D4E6EE"/>
<path d="M310.022 126.043H303.666V132.387H310.022V126.043Z" fill="#D4E6EE"/>
<path d="M307.525 117.343L306.163 119.745V126.043H307.525V117.343Z" fill="#D4E6EE"/>
<path d="M306.163 210.102H304.619V139.185H306.163V210.102Z" fill="#FDFEFF"/>
<path d="M310.612 214.588H309.068V143.625H310.612V214.588Z" fill="#FDFEFF"/>
<path d="M315.061 219.029H313.563V148.066H315.061V219.029Z" fill="#FDFEFF"/>
<path d="M319.51 223.47H318.012V152.552H319.51V223.47Z" fill="#FDFEFF"/>
<path d="M273.567 245.628H244.467V175.844H273.567V245.628Z" fill="#C3DFED"/>
<path d="M251.05 186.765H247.827V181.372H251.05V186.765Z" fill="#FDFEFF"/>
<path d="M260.583 186.765H257.36V181.372H260.583V186.765Z" fill="#FDFEFF"/>
<path d="M265.395 186.765H262.127V181.372H265.395V186.765Z" fill="#FDFEFF"/>
<path d="M251.05 196.009H247.827V190.662H251.05V196.009Z" fill="#FDFEFF"/>
<path d="M255.817 196.009H252.593V190.662H255.817V196.009Z" fill="#FDFEFF"/>
<path d="M270.162 196.009H266.939V190.662H270.162V196.009Z" fill="#FDFEFF"/>
<path d="M255.817 205.298H252.593V199.906H255.817V205.298Z" fill="#FDFEFF"/>
<path d="M270.162 205.298H266.939V199.906H270.162V205.298Z" fill="#FDFEFF"/>
<path d="M251.05 214.543H247.827V209.15H251.05V214.543Z" fill="#FDFEFF"/>
<path d="M255.817 214.543H252.593V209.15H255.817V214.543Z" fill="#FDFEFF"/>
<path d="M260.583 214.543H257.36V209.15H260.583V214.543Z" fill="#FDFEFF"/>
<path d="M270.162 214.543H266.939V209.15H270.162V214.543Z" fill="#FDFEFF"/>
<path d="M339.258 197.323H336.035V191.976H339.258V197.323Z" fill="#FDFEFF"/>
<path d="M344.479 197.323H341.255V191.976H344.479V197.323Z" fill="#FDFEFF"/>
<path d="M349.745 197.323H346.521V191.976H349.745V197.323Z" fill="#FDFEFF"/>
<path d="M360.186 197.323H356.963V191.976H360.186V197.323Z" fill="#FDFEFF"/>
<path d="M365.452 197.323H362.229V191.976H365.452V197.323Z" fill="#FDFEFF"/>
<path d="M370.673 197.323H367.45V191.976H370.673V197.323Z" fill="#FDFEFF"/>
<path d="M344.479 205.525H341.255V200.178H344.479V205.525Z" fill="#FDFEFF"/>
<path d="M354.965 205.525H351.742V200.178H354.965V205.525Z" fill="#FDFEFF"/>
<path d="M360.186 205.525H356.963V200.178H360.186V205.525Z" fill="#FDFEFF"/>
<path d="M365.452 205.525H362.229V200.178H365.452V205.525Z" fill="#FDFEFF"/>
<path d="M370.673 205.525H367.45V200.178H370.673V205.525Z" fill="#FDFEFF"/>
<path d="M339.258 213.727H336.035V208.38H339.258V213.727Z" fill="#FDFEFF"/>
<path d="M344.479 213.727H341.255V208.38H344.479V213.727Z" fill="#FDFEFF"/>
<path d="M360.186 213.727H356.963V208.38H360.186V213.727Z" fill="#FDFEFF"/>
<path d="M365.452 213.727H362.229V208.38H365.452V213.727Z" fill="#FDFEFF"/>
<path d="M339.258 221.929H336.035V216.582H339.258V221.929Z" fill="#FDFEFF"/>
<path d="M349.745 221.929H346.521V216.582H349.745V221.929Z" fill="#FDFEFF"/>
<path d="M354.965 221.929H351.742V216.582H354.965V221.929Z" fill="#FDFEFF"/>
<path d="M360.186 221.929H356.963V216.582H360.186V221.929Z" fill="#FDFEFF"/>
<path d="M365.452 221.929H362.229V216.582H365.452V221.929Z" fill="#FDFEFF"/>
<path d="M370.673 221.929H367.45V216.582H370.673V221.929Z" fill="#FDFEFF"/>
<path d="M377.392 241.323H22.9713V217.76H377.392V241.323Z" fill="#69008E"/>
<path d="M381.296 210.646H18.7039V217.896H381.296V210.646Z" fill="#9D1CCA"/>
<path d="M377.21 341.378H295.04V241.459H377.21V341.378Z" fill="#69008E"/>
<path d="M370.9 331.953H301.351V250.93H370.9V331.953Z" fill="#00375A"/>
<path d="M370.9 331.953H303.394V253.196H370.9V331.953Z" fill="#00547C"/>
<path d="M301.85 352.933H295.04V341.378H301.85V352.933Z" fill="#00698F"/>
<path d="M377.21 352.933H370.401V341.378H377.21V352.933Z" fill="#00698F"/>
<path d="M39.496 330.14H30.144L41.5843 241.459H54.0687L39.496 330.14Z" fill="#949595"/>
<path d="M48.4849 275.4L54.0688 241.459H41.5844L38.6335 264.026L48.4849 275.4Z" fill="#6E7172"/>
<path d="M38.3158 330.14H31.2791L29.3724 352.842H33.5944L38.3158 330.14Z" fill="#444849"/>
<path d="M68.823 330.14H78.2204L72.9542 241.459H60.4698L68.823 330.14Z" fill="#6E7172"/>
<path d="M63.6931 275.4L60.4698 241.459H72.9542L74.3162 264.026L63.6931 275.4Z" fill="#6E7172"/>
<path d="M70.0034 330.14H77.0401L77.4033 352.842H73.1359L70.0034 330.14Z" fill="#444849"/>
<path d="M187.402 190.299H61.9226V200.858H187.402V190.299Z" fill="#949595"/>
<path d="M68.6415 210.781H61.9226V200.858H68.6415V210.781Z" fill="#949595"/>
<path d="M68.6415 206.069V200.858H61.9226V203.44C64.1471 204.301 66.2808 205.344 68.6415 206.069Z" fill="#6E7172"/>
<path d="M187.402 210.781H180.729V200.858H187.402V210.781Z" fill="#949595"/>
<path d="M185.268 208.289C185.949 208.742 186.721 209.195 187.402 209.649V200.858H180.729V205.434C182.272 206.295 183.725 207.292 185.268 208.289Z" fill="#6E7172"/>
<path d="M175.962 184.136H73.5898V190.299H175.962V184.136Z" fill="#004D78"/>
<path d="M175.236 184.136H74.3163V127.584H175.236V184.136Z" fill="#00739C"/>
<path d="M171.104 178.472H78.4474V133.248H171.104V178.472Z" fill="#9762A9"/>
<path d="M127.114 133.248C127.114 134.97 125.706 136.33 124.027 136.33C122.302 136.33 120.94 134.97 120.94 133.248C120.94 131.572 122.302 130.167 124.027 130.167C125.706 130.167 127.114 131.572 127.114 133.248Z" fill="#00739C"/>
<path d="M106.185 172.627H85.5294V142.583H106.185V172.627Z" fill="#CFECFC"/>
<path d="M106.185 147.024H85.5294V142.583H106.185V147.024Z" fill="white"/>
<path d="M123.437 157.809V142.674H108.728V157.809H123.437Z" fill="#CFECFC"/>
<path d="M123.437 145.846H108.728V142.674H123.437V145.846Z" fill="white"/>
<path d="M169.016 152.326H150.448V133.248H169.016V152.326Z" fill="#00739C"/>
<path d="M167.836 151.147H149.223V132.115H167.836V151.147Z" fill="#474747"/>
<path d="M140.506 159.214V172.898C140.506 173.08 140.597 173.216 140.642 173.352L147.407 166.328L140.506 159.214Z" fill="white"/>
<path d="M156.305 166.328L163.069 173.352C163.16 173.216 163.205 173.08 163.205 172.898V159.214L156.305 166.328Z" fill="white"/>
<path d="M149.722 166.328L151.856 168.548L153.989 166.328L155.17 165.15L162.07 157.99H141.687L148.587 165.15L149.722 166.328Z" fill="white"/>
<path d="M155.17 167.551L151.856 170.95L148.587 167.551L142.504 173.85H161.253L155.17 167.551Z" fill="white"/>
<path d="M59.0171 119.246L69.1408 130.303L67.3249 132.75L54.1141 123.46L59.0171 119.246Z" fill="#69008E"/>
<path d="M62.9214 110.093L72.3641 126.632L70.2304 127.811L57.9276 112.902L62.9214 110.093Z" fill="#69008E"/>
<path d="M74.7248 113.763L70.866 115.122L75.0426 123.279L77.721 122.327L74.7248 113.763Z" fill="#69008E"/>
<path d="M214.096 104.609H161.798C161.026 104.609 160.436 104.02 160.436 103.25V81.4991C160.436 80.7287 161.026 80.0943 161.798 80.0943H214.096C214.868 80.0943 215.458 80.7287 215.458 81.4991V103.25C215.458 104.02 214.868 104.609 214.096 104.609Z" fill="#69008E"/>
<path d="M168.108 104.609L163.251 121.557L184.224 104.609H168.108Z" fill="#69008E"/>
<path d="M208.83 86.8915H167.018V85.5774H208.83V86.8915Z" fill="white"/>
<path d="M208.83 93.009H167.018V91.7402H208.83V93.009Z" fill="white"/>
<path d="M208.83 99.1718H167.018V97.8576H208.83V99.1718Z" fill="white"/>
<path d="M192.895 150.241L186.766 149.154L190.898 116.844L199.977 118.385L192.895 150.241Z" fill="#0096C8"/>
<path d="M191.987 158.534C191.624 160.482 189.763 161.842 187.765 161.479C185.768 161.117 184.451 159.259 184.769 157.265C185.132 155.271 187.039 153.957 189.037 154.274C190.989 154.637 192.351 156.54 191.987 158.534Z" fill="#0096C8"/>
<path d="M70.6389 37.1362L73.9075 44.6584L80.5356 39.8097L79.6277 47.9663L87.7993 47.0147L82.8963 53.6307L90.4323 56.8933L82.8963 60.2013L87.7993 66.7719L79.6277 65.8656L80.5356 74.0222L73.9075 69.1282L70.6389 76.6504L67.3703 69.1282L60.7422 74.0222L61.6501 65.8656L53.4785 66.7719L58.3815 60.2013L50.8455 56.8933L58.3815 53.6307L53.4785 47.0147L61.6501 47.9663L60.7422 39.8097L67.3703 44.6584L70.6389 37.1362Z" fill="#69008E"/>
<path d="M65.509 59.3403H64.0563L63.6931 51.6821H65.8268L65.509 59.3403Z" fill="white"/>
<path d="M65.6453 61.2888C65.6453 61.742 65.2367 62.1498 64.7827 62.1498C64.2833 62.1498 63.9202 61.742 63.9202 61.2888C63.9202 60.7904 64.2833 60.4279 64.7827 60.4279C65.2367 60.4279 65.6453 60.7904 65.6453 61.2888Z" fill="white"/>
<path d="M71.3654 59.3403H69.9126L69.5494 51.6821H71.7285L71.3654 59.3403Z" fill="white"/>
<path d="M71.5015 61.2888C71.5015 61.742 71.0929 62.1498 70.6389 62.1498C70.185 62.1498 69.7764 61.742 69.7764 61.2888C69.7764 60.7904 70.185 60.4279 70.6389 60.4279C71.0929 60.4279 71.5015 60.7904 71.5015 61.2888Z" fill="white"/>
<path d="M77.2671 59.3403H75.769L75.4512 51.6821H77.5849L77.2671 59.3403Z" fill="white"/>
<path d="M77.3579 61.2888C77.3579 61.742 76.9947 62.1498 76.4954 62.1498C76.0414 62.1498 75.6328 61.742 75.6328 61.2888C75.6328 60.7904 76.0414 60.4279 76.4954 60.4279C76.9947 60.4279 77.3579 60.7904 77.3579 61.2888Z" fill="white"/>
<path d="M126.887 90.7886C126.887 99.9421 115.628 107.328 101.737 107.328C87.8448 107.328 76.5862 99.9421 76.5862 90.7886C76.5862 81.635 87.8448 74.2488 101.737 74.2488C115.628 74.2488 126.887 81.635 126.887 90.7886Z" fill="#69008E"/>
<path d="M116.4 101.891L130.519 120.651L101.736 107.328L116.4 101.891Z" fill="#69008E"/>
<path d="M93.1108 90.7885C93.1108 93.009 91.2949 94.8215 89.0704 94.8215C86.8459 94.8215 85.0754 93.009 85.0754 90.7885C85.0754 88.5681 86.8459 86.7556 89.0704 86.7556C91.2949 86.7556 93.1108 88.5681 93.1108 90.7885Z" fill="white"/>
<path d="M105.777 90.7885C105.777 93.009 103.961 94.8215 101.736 94.8215C99.512 94.8215 97.696 93.009 97.696 90.7885C97.696 88.5681 99.512 86.7556 101.736 86.7556C103.961 86.7556 105.777 88.5681 105.777 90.7885Z" fill="white"/>
<path d="M118.443 90.7885C118.443 93.009 116.627 94.8215 114.402 94.8215C112.178 94.8215 110.362 93.009 110.362 90.7885C110.362 88.5681 112.178 86.7556 114.402 86.7556C116.627 86.7556 118.443 88.5681 118.443 90.7885Z" fill="white"/>
<path d="M196.209 53.7213V70.6236C196.209 70.8048 196.119 70.9861 196.028 71.1674L187.72 62.5576L196.209 53.7213Z" fill="#69008E"/>
<path d="M176.779 62.5576L168.426 71.1674C168.335 70.9861 168.29 70.8048 168.29 70.6236V53.7213L176.779 62.5576Z" fill="#69008E"/>
<path d="M184.86 62.5576L182.227 65.2765L179.594 62.5576L178.186 61.0622L169.697 52.2712H194.802L186.313 61.0622L184.86 62.5576Z" fill="#69008E"/>
<path d="M178.186 64.0077L182.227 68.2219L186.313 64.0077L193.803 71.7565H170.696L178.186 64.0077Z" fill="#69008E"/>
<path d="M191.579 51.9541C191.579 54.3104 193.485 56.2136 195.846 56.2136C198.207 56.2136 200.159 54.3104 200.159 51.9541C200.159 49.5977 198.207 47.6492 195.846 47.6492C193.485 47.6492 191.579 49.5977 191.579 51.9541Z" fill="#FF5160"/>
<path d="M115.265 57.0746V56.0777C115.265 51.0477 121.666 50.8212 121.666 47.2413C121.666 45.7006 120.395 44.6584 118.488 44.6584C116.4 44.6584 115.129 45.7913 115.129 47.3773V47.7851C115.129 48.1929 114.902 48.3742 114.493 48.3742L110.589 48.2382C110.226 48.2382 109.999 48.057 109.999 47.7851V47.3773C109.999 43.0271 113.495 39.991 118.624 39.991C123.618 39.991 126.841 42.8458 126.841 47.0601C126.841 53.0869 120.35 53.1322 120.35 56.4402V57.0746C120.35 57.4824 120.123 57.709 119.714 57.709H115.855C115.492 57.709 115.265 57.4824 115.265 57.0746ZM114.947 62.9202C114.947 61.3341 116.355 60.02 118.08 60.02C119.714 60.02 121.167 61.3341 121.167 62.9202C121.167 64.5062 119.714 65.8203 118.034 65.8203C116.309 65.8203 114.947 64.5062 114.947 62.9202Z" fill="#69008E"/>
<path fill-rule="evenodd" clip-rule="evenodd" d="M34.9563 186.448V204.211H28.5552C23.4707 204.211 19.3849 200.133 19.3849 195.103V189.756C19.3849 187.898 20.883 186.448 22.6989 186.448H34.9563ZM22.2449 189.756V195.103C22.2449 198.547 25.0596 201.401 28.5552 201.401H32.0963V189.257H22.7443C22.4719 189.257 22.2449 189.484 22.2449 189.756Z" fill="#00739C"/>
<path d="M27.738 184.182V199C27.738 204.03 30.4165 208.38 34.4115 210.781H51.2541C55.2491 208.38 57.9276 204.03 57.9276 199V184.182H27.738Z" fill="#00739C"/>
<path d="M27.738 195.556V199C27.738 204.03 30.4165 208.38 34.4115 210.781H51.2541C52.389 210.102 53.4332 209.241 54.3411 208.244C43.9904 208.742 33.5944 204.03 27.738 195.556Z" fill="#004D78"/>
<path d="M329.089 209.558H375.122V195.284H329.089V209.558Z" fill="white"/>
<path d="M329.089 209.558V195.284H375.531V193.924H326.456V210.917H375.531V209.558H329.089Z" fill="#0096C8"/>
<path d="M329.089 199.226H375.122V198.003H329.089V199.226Z" fill="#B8DCED"/>
<path d="M329.089 203.033H375.122V201.854H329.089V203.033Z" fill="#B8DCED"/>
<path d="M329.089 206.839H375.122V205.661H329.089V206.839Z" fill="#B8DCED"/>
<path d="M332.63 192.565H378.708V182.369H332.63V192.565Z" fill="white"/>
<path d="M332.63 192.565V182.369H379.072V181.01H330.042V193.924H379.072V192.565H332.63Z" fill="#00739C"/>
<path d="M332.63 186.04H378.708V184.816H332.63V186.04Z" fill="#B8DCED"/>
<path d="M332.63 189.846H378.708V188.668H332.63V189.846Z" fill="#B8DCED"/>
<path d="M327.364 179.741H373.442V165.467H327.364V179.741Z" fill="white"/>
<path d="M327.364 179.741V165.467H373.806V164.107H324.776V181.1H373.806V179.741H327.364Z" fill="#0096C8"/>
<path d="M327.364 169.409H373.442V168.186H327.364V169.409Z" fill="#B8DCED"/>
<path d="M327.364 173.805H373.442V172.627H327.364V173.805Z" fill="#B8DCED"/>
<path d="M327.364 177.022H373.442V175.844H327.364V177.022Z" fill="#B8DCED"/>
<path d="M299.898 220.162L293.588 217.986L266.485 296.335L272.75 298.51L299.898 220.162Z" fill="#69008E"/>
<path d="M265.895 292.891H198.615C195.574 292.891 193.077 290.444 193.077 287.408V286.955C193.077 283.919 195.574 281.427 198.615 281.427H265.895C268.937 281.427 271.433 283.919 271.433 286.955V287.408C271.433 290.444 268.937 292.891 265.895 292.891Z" fill="#474747"/>
<path d="M272.75 292.891H204.154V298.51H272.75V292.891Z" fill="#69008E"/>
<path d="M246.374 302.181H224.81V298.51H246.374V302.181Z" fill="#004D78"/>
<path d="M239.655 338.432H231.483V298.51H239.655V338.432Z" fill="#69008E"/>
<path d="M239.655 316.908V298.51H231.483V311.788C234.253 313.419 236.977 315.141 239.655 316.908Z" fill="#004D78"/>
<path d="M268.619 342.873H202.565V338.432H268.619V342.873Z" fill="#69008E"/>
<path d="M209.011 346.725H201.975V338.432H209.011V346.725Z" fill="#69008E"/>
<path d="M239.11 346.725H232.073V338.432H239.11V346.725Z" fill="#69008E"/>
<path d="M269.163 346.725H262.127V338.432H269.163V346.725Z" fill="#69008E"/>
<path d="M268.619 349.988C268.619 351.619 267.302 352.933 265.668 352.933C264.034 352.933 262.717 351.619 262.717 349.988C262.717 348.356 264.034 347.949 265.668 347.949C267.302 347.949 268.619 348.356 268.619 349.988Z" fill="#69008E"/>
<path d="M238.52 349.988C238.52 351.619 237.203 352.933 235.569 352.933C233.935 352.933 232.618 351.619 232.618 349.988C232.618 348.356 233.935 347.949 235.569 347.949C237.203 347.949 238.52 348.356 238.52 349.988Z" fill="#69008E"/>
<path d="M208.467 349.988C208.467 351.619 207.15 352.933 205.516 352.933C203.881 352.933 202.565 351.619 202.565 349.988C202.565 348.356 203.881 347.949 205.516 347.949C207.15 347.949 208.467 348.356 208.467 349.988Z" fill="#69008E"/>
<path d="M302.44 201.628L308.796 203.848L287.64 264.978L281.285 262.803L302.44 201.628Z" fill="#69008E"/>
<path d="M306.344 181.236C302.894 180.058 299.126 181.871 297.9 185.315L270.798 263.618C269.618 267.107 271.433 270.869 274.884 272.047C278.379 273.27 282.147 271.412 283.328 267.968L310.43 189.665C311.656 186.176 309.795 182.415 306.344 181.236Z" fill="#474747"/>
<path d="M275.655 195.148L284.962 200.042L294.632 181.554L285.325 176.705L275.655 195.148Z" fill="#F4C6BA"/>
<path d="M285.325 176.705L280.422 186.04C282.374 187.535 284.69 190.118 284.735 192.61C284.735 194.695 283.736 197.414 281.739 198.32L284.962 200.042L294.632 181.554L285.325 176.705Z" fill="#EF9C9C"/>
<path d="M313.563 166.373C308.614 179.514 299.807 181.282 290.546 177.838C281.33 174.394 275.292 166.509 280.241 153.323C285.189 140.136 296.72 132.251 305.936 135.741C315.197 139.184 318.511 153.187 313.563 166.373Z" fill="#00182E"/>
<path d="M306.163 152.054C303.394 161.434 289.275 167.28 279.877 164.515C270.48 161.706 265.078 151.873 267.892 142.447C270.662 133.067 278.743 125.635 293.542 129.94C302.985 132.705 308.977 142.674 306.163 152.054Z" fill="#00182E"/>
<path d="M284.009 140.136C273.34 136.964 265.396 145.846 265.759 158.035C265.577 162.748 258.177 157.129 258.768 165.15C258.858 166.283 260.175 167.098 261.037 167.642C261.401 167.823 262.082 168.05 262.309 168.367C262.808 168.956 262.399 170.134 262.172 170.769C261.537 172.672 260.856 174.575 260.765 176.569C260.674 178.88 261.491 180.738 263.08 182.369C263.398 182.641 263.761 182.868 264.079 183.094C267.348 184.952 269.708 186.176 273.431 186.583C276.7 186.946 280.331 187.943 283.555 187.082C290.047 185.269 295.494 180.104 299.58 174.756C301.078 172.763 302.349 170.542 303.03 168.095C306.027 157.22 294.813 143.353 284.009 140.136Z" fill="#F4C6BA"/>
<path d="M273.613 186.629C276.836 186.991 280.422 187.943 283.555 187.082C290.047 185.269 295.494 180.103 299.58 174.756C301.078 172.763 302.349 170.542 303.03 168.095C303.847 165.104 303.575 161.932 302.576 158.806C298.309 171.72 286.823 182.777 273.613 186.629Z" fill="#EF9C9C"/>
<path d="M271.07 140.272C267.847 147.885 276.427 153.595 278.97 154.093C281.557 154.637 278.652 158.942 279.878 160.392C280.876 161.479 284.508 156.812 285.643 156.495C289.229 155.543 291.499 160.845 292.18 163.518C292.907 166.328 292.771 169.772 291.499 172.445C290.364 174.756 288.367 178.653 289.865 181.236C291.136 183.502 294.223 183.502 296.175 182.233C298.4 180.738 300.352 178.563 302.486 176.886C305.21 174.756 307.661 172.219 309.068 169.001C313.699 158.76 309.613 143.852 296.085 137.598C282.556 131.345 271.07 140.272 271.07 140.272Z" fill="#00182E"/>
<path d="M294.813 167.687C293.27 172.445 288.503 175.164 284.19 173.805C279.832 172.4 280.967 168.503 282.51 163.745C284.054 158.987 285.416 155.135 289.729 156.54C294.087 157.945 296.357 162.929 294.813 167.687Z" fill="#F4C6BA"/>
<path d="M285.915 168.14C286.551 168.866 287.323 167.597 287.504 166.962C287.686 166.373 287.822 165.739 288.231 165.24C288.639 164.697 289.502 164.379 290.183 164.651C290.455 164.742 290.818 165.104 291.045 164.787C291.318 164.515 291.045 164.062 290.909 163.79C290.501 163.02 289.956 162.386 289.093 162.114C287.368 161.57 286.869 163.065 286.279 164.923C286.052 165.603 285.325 167.28 285.779 168.005C285.81 168.065 285.855 168.11 285.915 168.14Z" fill="#CF8D70"/>
<path d="M274.566 157.174C274.566 157.174 273.658 154.637 270.662 155.226" stroke="#6C341E" stroke-width="1.27114" stroke-linecap="round" stroke-linejoin="round"/>
<path d="M270.934 161.389C270.571 162.476 269.844 163.201 269.345 163.02C268.846 162.839 268.755 161.796 269.118 160.754C269.527 159.712 270.208 158.987 270.707 159.168C271.206 159.349 271.343 160.346 270.934 161.389Z" fill="#6C341E"/>
<path d="M275.837 169.953C275.61 170.587 273.794 170.497 271.797 169.817C269.799 169.092 268.346 168.005 268.573 167.37C268.8 166.736 270.616 166.826 272.614 167.551C274.611 168.276 276.064 169.364 275.837 169.953Z" fill="#FF738F"/>
<path d="M266.848 173.624C266.031 173.382 265.244 173.14 264.488 172.898C264.306 173.578 264.17 174.258 263.988 174.892C263.807 175.663 263.625 176.478 263.443 177.249C264.851 178.291 266.712 178.653 268.483 177.974C269.935 177.385 270.98 176.206 271.433 174.847C269.89 174.666 268.346 174.077 266.848 173.624Z" fill="white"/>
<path d="M111.588 343.734C111.588 343.734 112.178 343.644 111.452 345.275C110.725 346.952 106.095 352.571 104.233 352.933C102.372 353.296 77.5848 336.892 78.4927 333.901C79.3553 331.182 106.185 335.804 106.185 335.804L111.588 343.734Z" fill="#002545"/>
<path d="M107.774 332.088L103.779 336.257C103.779 336.257 104.96 341.831 111.588 343.734L115.583 339.52L107.774 332.088Z" fill="#F4C6BA"/>
<path d="M106.912 332.995L107.774 332.088L115.583 339.52L111.815 343.508C110.18 339.973 108.591 336.484 106.912 332.995Z" fill="#EF9C9C"/>
<path d="M180.184 265.929C185.268 272.681 190.262 278.391 160.981 303.993C131.654 329.641 117.308 342.556 117.308 342.556L106.639 331.771C106.639 331.771 153.717 277.213 160.345 267.425C167.155 257.365 180.184 265.929 180.184 265.929Z" fill="#002545"/>
<path d="M260.674 260.537C259.358 270.823 256.316 285.46 229.849 285.324C209.42 285.279 172.058 286.411 166.701 275.445C163.523 268.965 150.312 260.945 192.759 254.963C219.181 251.293 237.204 247.803 244.467 248.982C251.731 250.205 261.219 256.277 260.674 260.537Z" fill="#003E6A"/>
<path d="M256.725 254.51C255.317 265.975 242.878 275.898 233.209 280.203C225.945 283.466 217.773 284.689 209.783 285.279C217.092 285.415 224.129 285.324 229.849 285.324C256.316 285.46 259.358 270.823 260.674 260.537C260.901 258.679 259.267 256.504 256.725 254.51Z" fill="#002545"/>
<path d="M244.467 248.982C239.791 248.211 230.621 249.389 217.637 251.338C217.97 251.791 218.288 252.244 218.59 252.697C223.629 256.866 227.897 261.896 232.482 266.564C237.703 271.82 243.559 276.442 249.143 281.291C258.132 276.261 259.766 267.425 260.674 260.537C261.219 256.277 251.731 250.205 244.467 248.982Z" fill="#002545"/>
<path d="M97.5598 329.143C97.5598 329.143 98.1954 329.188 97.1058 330.638C96.0617 332.134 90.3416 336.62 88.4349 336.575C86.5281 336.529 65.7814 315.231 67.3249 312.513C68.7322 310.066 93.9734 320.261 93.9734 320.261L97.5598 329.143Z" fill="#002545"/>
<path d="M96.3341 316.953L91.522 320.216C91.522 320.216 91.522 325.926 97.5599 329.143L102.372 325.88L96.3341 316.953Z" fill="#F4C6BA"/>
<path d="M95.8348 317.271L96.3342 316.953L102.372 325.88L99.1489 328.055C97.9685 324.521 96.879 320.896 95.8348 317.271Z" fill="#EF9C9C"/>
<path d="M181.183 267.651C184.724 275.355 188.401 281.971 154.262 300.821C120.168 319.627 103.416 329.188 103.416 329.188L95.2899 316.41C95.2899 316.41 152.9 273.044 161.48 264.932C170.287 256.549 181.183 267.651 181.183 267.651Z" fill="#003E6A"/>
<path d="M287.459 194.604C296.72 200.042 288.094 220.524 280.695 235.115C274.203 247.803 267.938 254.057 263.035 267.425C262.445 269.056 261.855 270.687 261.537 272.409C261.264 274.041 261.264 275.808 260.447 277.213C259.085 279.66 256.634 278.935 254.5 278.164C252.049 277.303 248.825 276.261 246.782 274.675C244.24 272.772 242.379 270.143 239.882 268.24C233.39 263.528 227.625 257.773 220.86 253.558C220.179 253.105 219.498 252.697 218.954 252.063C218.409 251.474 218.091 250.658 218.227 249.843C218.363 249.027 218.999 248.393 219.589 247.803C222.495 244.903 225.173 241.867 228.442 239.33C241.97 228.907 252.185 214.316 261.128 199.997C266.485 191.477 276.563 188.305 287.459 194.604Z" fill="#1E82BC"/>
<path d="M290.047 197.187C290.001 201.537 289.865 205.933 288.73 210.192C287.459 215.132 285.598 219.935 283.328 224.512C278.425 234.481 272.296 243.499 265.85 252.471C264.124 254.873 262.445 257.274 260.856 259.767C259.403 262.123 258.314 264.706 256.77 266.926C254.773 269.781 251.731 271.865 248.099 271.594C244.785 271.367 242.152 269.554 239.655 267.561C239.383 267.53 239.11 267.485 238.838 267.425C239.171 267.697 239.519 267.968 239.882 268.24C242.379 270.144 244.24 272.772 246.783 274.675C248.825 276.261 252.049 277.303 254.5 278.164C256.634 278.935 259.085 279.66 260.447 277.213C261.264 275.808 261.264 274.041 261.537 272.409C261.855 270.687 262.445 269.056 263.035 267.425C267.938 254.057 274.203 247.803 280.695 235.115C287.232 222.246 294.677 204.845 290.047 197.187Z" fill="#69008E"/>
<path d="M243.922 235.025C246.374 237.744 250.55 237.97 253.274 235.523L267.075 223.152C269.754 220.705 269.981 216.536 267.575 213.863C265.123 211.144 260.947 210.917 258.268 213.364L244.422 225.735C241.743 228.182 241.516 232.306 243.922 235.025Z" fill="#F4C6BA"/>
<path d="M253.093 235.206C255.408 231.853 254.591 227.276 251.231 224.965L208.467 198.275C204.562 195.828 201.884 196.462 200.794 198.003C199.16 200.314 200.295 202.806 204.018 206.114L242.878 237.019C246.192 239.33 250.777 238.514 253.093 235.206Z" fill="#F4C6BA"/>
<path d="M267.575 213.863C265.123 211.144 260.946 210.917 258.268 213.364L249.824 220.887C251.64 225.055 253.819 228.998 256.18 232.895L267.075 223.152C269.754 220.705 269.981 216.536 267.575 213.863Z" fill="#EF9C9C"/>
<path d="M279.333 196.553C272.795 192.112 257.905 208.47 254.091 212.277C250.278 216.129 248.644 214.86 248.78 216.582C248.916 218.304 256.498 229.406 261.31 231.037C266.122 232.714 275.111 219.074 278.198 213.953C281.239 208.833 287.413 202.036 279.333 196.553Z" fill="#69008E"/>
<path d="M232.164 193.245L204.018 191.931L202.156 171.63L229.577 165.15L232.164 193.245Z" fill="#474747"/>
<path d="M203.927 202.262H204.608C205.334 202.217 205.879 201.537 205.834 200.812L204.063 171.766C204.018 171.041 203.382 170.497 202.656 170.542H201.975C201.248 170.587 200.658 171.267 200.704 171.992L202.52 201.039C202.565 201.764 203.201 202.308 203.927 202.262Z" fill="#69008E"/>
<path d="M208.557 196.009C208.557 195.148 208.512 194.242 208.694 193.381C208.784 192.656 209.011 191.976 209.011 191.251C209.057 189.937 207.967 188.577 206.515 189.166C206.333 189.257 206.151 189.393 205.97 189.529C205.516 189.756 204.971 189.801 204.426 189.756C204.154 189.71 203.836 189.71 203.564 189.529C203.246 189.393 203.019 189.03 202.792 188.759C201.975 187.762 199.705 186.493 198.525 187.716C197.798 188.487 197.844 190.481 197.707 191.477C197.435 193.154 197.526 196.054 197.208 197.731C196.663 201.084 199.796 203.712 203.11 204.166C207.468 204.709 208.603 199.997 208.557 196.009Z" fill="#F4C6BA"/>
</svg>
